<?xml version="1.0" standalone="no"?>
<!DOCTYPE svg PUBLIC "-//W3C//DTD SVG 1.1//EN" "http://www.w3.org/Graphics/SVG/1.1/DTD/svg11.dtd" >
<svg xmlns="http://www.w3.org/2000/svg" xmlns:xlink="http://www.w3.org/1999/xlink" version="1.1">
<metadata>
Created by FontForge 20170731 at Mon Sep 24 18:42:44 2001
 By Aleksey,,,
Copyright (c) 1987, 1992, 1999 Adobe Systems Incorporated.  All Rights Reserved.Eurostile is a trademark of Nebiolo.
</metadata>
<defs>
<font id="EurostileLT-Demi" horiz-adv-x="705" >
  <font-face 
    font-family="Eurostile LT"
    font-weight="700"
    font-stretch="normal"
    units-per-em="1000"
    panose-1="2 0 7 5 5 0 0 2 0 4"
    ascent="800"
    descent="-200"
    x-height="525"
    cap-height="750"
    bbox="-60 -250 1270 993"
    underline-thickness="50"
    underline-position="-175"
    unicode-range="U+0020-FB02"
  />
<missing-glyph horiz-adv-x="352" 
 />
    <glyph glyph-name=".notdef" horiz-adv-x="352" 
 />
    <glyph glyph-name=".null" horiz-adv-x="0" 
 />
    <glyph glyph-name="nonmarkingreturn" horiz-adv-x="333" 
 />
    <glyph glyph-name="space" unicode=" " horiz-adv-x="352" 
 />
    <glyph glyph-name="exclam" unicode="!" horiz-adv-x="309" 
d="M217 137h-126v-137h126v137zM225 750h-142l8 -499h126z" />
    <glyph glyph-name="quotedbl" unicode="&#x22;" horiz-adv-x="474" 
d="M50 750v-130l42 -129h54l42 129v130h-138zM286 750v-130l42 -129h54l42 129v130h-138z" />
    <glyph glyph-name="numbersign" unicode="#" 
d="M284 750l-39 -210h-126v-115h105l-24 -133h-122v-115h100l-33 -177h93l33 177h109l-33 -177h93l33 177h127v115h-103l24 133h107v115h-89l39 210h-92l-39 -210h-109l39 210h-93zM317 425h112l-26 -133h-110z" />
    <glyph glyph-name="dollar" unicode="$" 
d="M391 321q36 -1 64 -2.5t48 -10.5t30.5 -28t10.5 -54t-6.5 -57.5t-23.5 -35t-47 -17t-76 -4.5v209zM391 638q38 -1 63.5 -3t41.5 -9.5t23.5 -22.5t9.5 -42v-25h126v25q0 69 -19.5 107.5t-54 57.5t-83.5 23.5t-107 6.5v73h-80v-73q-69 0 -121.5 -7t-88 -30t-53.5 -67
t-18 -118q0 -69 18.5 -108.5t54 -60.5t88 -29.5t120.5 -14.5v-209q-45 0 -75 2.5t-49 13t-27 31.5t-8 58v27h-126v-27q0 -50 9.5 -91t40 -70.5t86.5 -45.5t149 -16v-78h80v78q75 0 129.5 10.5t90 36.5t52.5 71t17 114q0 74 -20.5 115.5t-58 62t-91 26.5t-119.5 9v199z
M311 439q-34 2 -61 4.5t-45.5 11.5t-28.5 27.5t-10 51.5q0 38 7.5 59t25 30.5t45 11.5t67.5 3v-199z" />
    <glyph glyph-name="percent" unicode="%" horiz-adv-x="905" 
d="M741 750h-95l-474 -750h93zM883 240q-1 45 -10.5 71.5t-29.5 41t-51 18.5t-75 4t-73.5 -4.5t-48.5 -18.5t-27.5 -41t-9.5 -72v-110q1 -45 9.5 -71.5t27.5 -41t49 -18.5t74 -4q43 0 74 4.5t51 18.5t29.5 41t10.5 72v110zM798 141q0 -26 -4 -40.5t-13.5 -21.5t-25 -8
t-38.5 -1t-37.5 1t-22.5 8t-11 21.5t-3 40.5v93q0 24 3 37.5t11 19.5t22.5 7t37.5 1q25 0 41 -1t25 -7t12 -19.5t3 -37.5v-93zM347 621q-1 45 -10.5 71.5t-29.5 41t-51 18.5t-75 4t-73.5 -4.5t-48.5 -18.5t-27.5 -41t-9.5 -72v-110q1 -45 9.5 -71.5t27.5 -41t49 -18.5t74 -4
q43 0 74 4.5t51 18.5t29.5 41t10.5 72v110zM262 522q0 -26 -4 -40.5t-13.5 -21.5t-25 -8t-38.5 -1t-37.5 1t-22.5 8t-11 21.5t-3 40.5v93q0 24 3 37.5t11 19.5t22.5 7t37.5 1q25 0 41 -1t25 -7t12 -19.5t3 -37.5v-93z" />
    <glyph glyph-name="ampersand" unicode="&#x26;" horiz-adv-x="781" 
d="M523 157q-12 -17 -27.5 -26t-34.5 -13.5t-42 -5t-50 -0.5q-47 0 -80.5 1.5t-54.5 12t-30.5 34t-9.5 68.5q0 32 1.5 55.5t9.5 40t24.5 26.5t47.5 15zM705 0l68 83l-107 94q11 33 13 69.5t2 71.5v51h-123v-101l-238 207q-25 20 -35.5 38t-10.5 51q0 27 7 42t20.5 22t33 8.5
t45.5 1.5q39 0 61 -4t32.5 -16.5t13 -35.5t2.5 -61h123q0 75 -9.5 121.5t-35.5 71.5t-71 33.5t-116 8.5q-59 0 -103.5 -6.5t-75.5 -26.5t-46.5 -57.5t-15.5 -100.5q0 -25 3 -42.5t10 -32.5t19 -28.5t31 -29.5q-47 -4 -75 -20.5t-43 -43.5t-20 -62.5t-5 -77.5
q0 -81 21.5 -128t61.5 -70.5t97.5 -29.5t129.5 -6q37 0 74 1.5t69.5 9.5t59.5 25t44 47z" />
    <glyph glyph-name="quotesingle" unicode="'" horiz-adv-x="238" 
d="M50 750v-130l42 -129h54l42 129v130h-138z" />
    <glyph glyph-name="parenleft" unicode="(" horiz-adv-x="348" 
d="M293 -32q-36 0 -56 11t-29.5 28.5t-11 40.5t-1.5 47v416q0 31 2.5 55t12 40t29 24t54.5 8v118q-88 0 -135 -20.5t-69 -61.5t-25.5 -101.5t-4.5 -140.5v-264q0 -87 5 -147.5t28 -98.5t70 -55t131 -17v118z" />
    <glyph glyph-name="parenright" unicode=")" horiz-adv-x="348" 
d="M55 638q36 0 56 -11t29.5 -28.5t11 -40.5t1.5 -47v-416q0 -31 -2.5 -55t-12 -40t-29.5 -24t-54 -8v-118q88 0 135 20.5t69 61.5t25.5 101.5t4.5 140.5v264q0 87 -5 147.5t-28 98.5t-70 55t-131 17v-118z" />
    <glyph glyph-name="asterisk" unicode="*" 
d="M552 579l-25 76l-137 -49v144h-75v-144l-136 49l-26 -71l136 -51l-84 -116l60 -45l90 120l83 -120l59 45l-81 116z" />
    <glyph glyph-name="plus" unicode="+" horiz-adv-x="584" 
d="M244 525v-194h-194v-96h194v-194h96v194h194v96h-194v194h-96z" />
    <glyph glyph-name="comma" unicode="," horiz-adv-x="352" 
d="M89 -126h25q40 0 62.5 10t33 29t13 45.5t2.5 58.5v118h-126v-135h50q0 -42 -16 -54.5t-44 -12.5v-59z" />
    <glyph glyph-name="hyphen" unicode="-" horiz-adv-x="266" 
d="M0 324v-96h266v96h-266z" />
    <glyph glyph-name="hyphen" unicode="&#xad;" horiz-adv-x="266" 
d="M0 324v-96h266v96h-266z" />
    <glyph glyph-name="period" unicode="." horiz-adv-x="352" 
d="M215 137h-126v-137h126v137z" />
    <glyph glyph-name="slash" unicode="/" horiz-adv-x="682" 
d="M687 750h-113l-579 -863h112z" />
    <glyph glyph-name="zero" unicode="0" 
d="M353 756q-96 0 -156.5 -13.5t-94.5 -48.5t-46.5 -95.5t-12.5 -154.5v-138q0 -101 17 -162t54 -94.5t96 -44.5t143 -11t143 11t96 44.5t54 94.5t17 162v136q0 100 -17 162t-54 95.5t-96 45t-143 11.5zM353 112q-53 0 -86.5 3.5t-53 19t-27 47.5t-7.5 90v205q0 57 7.5 89.5
t27 48.5t53 19.5t86.5 3.5q52 0 86 -3.5t53.5 -19.5t27 -48.5t7.5 -89.5v-205q0 -58 -7.5 -90t-27 -47.5t-53.5 -19t-86 -3.5z" />
    <glyph glyph-name="one" unicode="1" 
d="M492 750h-173l-240 -226l82 -89l195 195v-630h136v750z" />
    <glyph glyph-name="two" unicode="2" 
d="M627 118h-429v25q0 42 8.5 64.5t29.5 34t55 17t85 13.5q70 12 118 25t77.5 39t42.5 70.5t13 118.5t-18 119.5t-53 70t-86.5 33t-117.5 8.5q-103 0 -161 -17t-86.5 -51t-35.5 -85t-7 -120h136q0 58 6 89.5t22.5 46t46.5 17t79 2.5q40 0 66.5 -3.5t42.5 -15.5t23 -34.5
t7 -59.5q0 -51 -8 -77t-28.5 -38.5t-56 -18t-91.5 -15.5q-63 -10 -109 -20.5t-76.5 -34t-45 -65t-14.5 -113.5v-143h565v118z" />
    <glyph glyph-name="three" unicode="3" 
d="M59 253q0 -93 18 -145t53.5 -77.5t88.5 -31t124 -5.5q72 0 127.5 5.5t93.5 28t57.5 67t19.5 122.5q0 37 -6 66t-20.5 50t-39.5 33t-64 15v4q38 4 61 19t36 38.5t17 54t4 63.5q0 73 -24.5 113t-65 58.5t-92 21.5t-104.5 3q-75 0 -127.5 -8t-85.5 -34.5t-48 -75t-15 -129.5
h136q0 43 4.5 69t19 39t42 17t74.5 4q44 0 73 -2t46 -10t24 -23.5t7 -42.5q0 -34 -3 -57.5t-12.5 -38t-27 -21t-45.5 -6.5h-109v-109h109q30 0 49.5 -6t31 -19.5t15.5 -34.5t4 -51q0 -39 -8 -60.5t-27 -31t-50 -11.5t-77 -2q-47 0 -76 2.5t-45 16t-21.5 42t-5.5 80.5h-136z
" />
    <glyph glyph-name="four" unicode="4" 
d="M574 750h-212l-332 -433v-157h408v-160h136v160h88v109h-88v481zM438 269h-294l290 377h4v-377z" />
    <glyph glyph-name="five" unicode="5" 
d="M211 641h397v109h-523v-400h126q4 19 16.5 29t30.5 14.5t41.5 5.5t50.5 1q49 0 78.5 -4.5t45.5 -19.5t21 -44t5 -77q0 -49 -5 -77.5t-21 -43t-46 -18.5t-79 -4q-34 0 -61 1.5t-45.5 11.5t-28.5 31t-10 60h-136q2 -73 18.5 -117t49.5 -67t83 -30.5t119 -7.5q83 0 140 8.5
t92 36t50.5 79.5t15.5 140q0 70 -11 119.5t-39 81t-75 45.5t-120 14q-22 0 -48 -1.5t-51 -8t-46 -19t-33 -33.5h-2v185z" />
    <glyph glyph-name="six" unicode="6" 
d="M347 340q45 0 74.5 -2t46 -12.5t23 -33t6.5 -62.5q0 -44 -6 -68t-22.5 -35t-45.5 -13t-76 -2q-50 0 -80 4.5t-45.5 18.5t-20 40.5t-4.5 71.5q0 35 8 54t26 27.5t46.5 10t69.5 1.5zM61 287q0 -96 13.5 -154t46 -88.5t87.5 -40.5t139 -10q81 0 135.5 9.5t88 36.5t48 75
t14.5 125q0 72 -13.5 115t-45 66t-82.5 30t-126 7q-27 0 -53 -2.5t-48.5 -10t-39.5 -21.5t-26 -38h-2v118q0 47 5.5 74t21.5 40.5t45.5 16.5t77.5 3q39 0 66.5 -2t45 -11t25 -28.5t7.5 -55.5h136q1 78 -18.5 121t-56.5 64t-89 25.5t-116 4.5q-75 0 -128.5 -9.5t-88.5 -37
t-51.5 -76.5t-17.5 -128v-218z" />
    <glyph glyph-name="seven" unicode="7" 
d="M621 750h-556v-123h419l-324 -627h155l306 612v138z" />
    <glyph glyph-name="eight" unicode="8" 
d="M353 329q52 0 83 -3.5t47.5 -15t21.5 -32.5t5 -57q0 -33 -5 -54.5t-21.5 -33.5t-47.5 -16.5t-83 -4.5t-83 4t-47.5 15.5t-21.5 33t-5 56.5q0 33 4.5 54t21 33t47.5 16.5t84 4.5zM353 -6q72 0 127 6t91.5 29t55.5 68t19 124q0 70 -27.5 111.5t-100.5 52.5v4q37 7 60 21
t35.5 35t16.5 48.5t4 62.5q0 79 -24 120t-63.5 59t-90 19.5t-103.5 1.5q-66 0 -118 -6.5t-88.5 -27.5t-55.5 -60.5t-19 -105.5q0 -36 4.5 -63.5t18 -48t37 -34t61.5 -21.5v-4q-41 -5 -67 -19.5t-40.5 -36.5t-20 -49.5t-5.5 -58.5q0 -83 23 -128.5t62.5 -67.5t93 -26.5
t114.5 -4.5zM353 438q-39 0 -67 2t-45 13t-25 35t-8 68q0 28 5.5 44.5t21.5 25t44.5 10.5t73.5 2q40 0 67.5 -1t44.5 -8.5t25 -24.5t8 -48q0 -46 -8 -70.5t-25 -35t-45 -11.5t-67 -1z" />
    <glyph glyph-name="nine" unicode="9" 
d="M351 638q42 0 72 -2.5t48.5 -14.5t27 -35.5t8.5 -65.5q0 -38 -6 -59.5t-23 -32.5t-47.5 -14t-79.5 -3t-78.5 3t-45 14.5t-20.5 33t-5 58.5q0 40 5 63.5t20.5 35.5t45 15.5t78.5 3.5zM60 210q0 -80 22.5 -123.5t61.5 -64t92 -24.5t115 -4q68 0 122 8.5t92 32.5t58 68
t20 115v217q0 97 -11 159.5t-42.5 98.5t-88.5 49.5t-150 13.5q-86 0 -141 -10.5t-87 -37.5t-44.5 -72.5t-12.5 -115.5q0 -76 17 -121t49 -68.5t79 -30.5t107 -7q72 0 117 14t70 59h2v-124q0 -48 -8 -74.5t-26 -38.5t-48 -14.5t-74 -2.5q-45 0 -74.5 1.5t-47.5 10.5t-25.5 29
t-7.5 57h-136z" />
    <glyph glyph-name="colon" unicode=":" horiz-adv-x="352" 
d="M215 137h-126v-137h126v137zM215 525h-126v-137h126v137z" />
    <glyph glyph-name="semicolon" unicode=";" horiz-adv-x="352" 
d="M89 -126h25q40 0 62.5 10t33 29t13 45.5t2.5 58.5v118h-126v-135h50q0 -42 -16 -54.5t-44 -12.5v-59zM225 525h-126v-137h126v137z" />
    <glyph glyph-name="semicolon" unicode="&#x37e;" horiz-adv-x="352" 
d="M89 -126h25q40 0 62.5 10t33 29t13 45.5t2.5 58.5v118h-126v-135h50q0 -42 -16 -54.5t-44 -12.5v-59zM225 525h-126v-137h126v137z" />
    <glyph glyph-name="less" unicode="&#x3c;" horiz-adv-x="584" 
d="M50 248l484 -207v100l-348 142l348 142v100l-484 -207v-70z" />
    <glyph glyph-name="equal" unicode="=" horiz-adv-x="584" 
d="M50 333h484v96h-484v-96zM50 138h484v96h-484v-96z" />
    <glyph glyph-name="greater" unicode="&#x3e;" horiz-adv-x="584" 
d="M534 318l-484 207v-100l348 -142l-348 -142v-100l484 207v70z" />
    <glyph glyph-name="question" unicode="?" horiz-adv-x="595" 
d="M328 239v17q0 24 5.5 38.5t16 23.5t26 15.5t35.5 14.5q42 18 68.5 35t40.5 39t19 51.5t5 70.5q0 69 -16 110.5t-46.5 64t-74.5 29.5t-99 7q-72 0 -121 -7.5t-79 -30t-43 -63t-13 -105.5v-27h126v27q-1 33 4 53t19 30.5t38.5 14t63.5 3.5q34 0 56.5 -3t35.5 -14t18 -32
t5 -57q0 -32 -7 -50t-20.5 -29.5t-33 -19.5t-45.5 -19q-35 -15 -56.5 -28.5t-33.5 -31.5t-16 -44t-4 -66v-17h126zM328 137h-126v-137h126v137z" />
    <glyph glyph-name="at" unicode="@" horiz-adv-x="975" 
d="M622 551l-12 -51h-2q-10 28 -38 46.5t-57 18.5q-45 0 -86 -23.5t-72.5 -60.5t-50 -82t-18.5 -87q0 -30 11 -57t30.5 -48t46 -33.5t57.5 -12.5q14 0 27.5 2.5t28.5 9t32.5 17.5t39.5 29q20 -32 43 -45t61 -13q51 0 92 24t70 62.5t44.5 85.5t15.5 93q0 73 -31 134
t-82.5 104.5t-118 67.5t-136.5 24q-88 0 -166 -35.5t-136 -94t-91.5 -135t-33.5 -158.5q0 -84 35.5 -147t92 -106t127.5 -64.5t142 -21.5q48 0 103 8t98 31l-30 75q-39 -17 -84.5 -23.5t-86.5 -6.5q-60 0 -114.5 20t-96 56t-66 86t-24.5 110q0 52 23.5 108.5t66.5 104
t104.5 78.5t136.5 31q60 0 111 -21.5t88.5 -57t58.5 -80.5t21 -91q0 -22 -9 -53.5t-25.5 -60.5t-40 -49.5t-51.5 -20.5t-37 14.5t-5 37.5l72 261h-78zM498 488q35 0 56 -17t21 -52q0 -26 -7.5 -57t-23 -59t-38.5 -46.5t-54 -18.5q-41 0 -55.5 26t-14.5 64q0 40 12.5 70
t30.5 50t38 30t35 10z" />
    <glyph glyph-name="A" unicode="A" horiz-adv-x="709" 
d="M517 142l49 -142h146l-254 750h-212l-249 -750h149l47 142h324zM485 251h-259l128 389h2z" />
    <glyph glyph-name="B" unicode="B" horiz-adv-x="716" 
d="M208 327h221q32 0 52 -5t31.5 -17t15.5 -32.5t4 -51.5q0 -35 -8 -54.5t-23.5 -29t-39.5 -12t-56 -2.5h-197v204zM450 0q59 0 102 9.5t70.5 33t40.5 64t13 102.5q0 36 -5 66t-18.5 53t-38 37.5t-63.5 19.5v4q34 8 55 23t32.5 36t15.5 48t4 59q0 62 -14 100t-41.5 59
t-69 28.5t-96.5 7.5h-373v-750h386zM208 627h203q27 0 46 -2t32 -11t19 -26t6 -47t-4 -50t-15 -32.5t-30.5 -17.5t-49.5 -5h-207v191z" />
    <glyph glyph-name="C" unicode="C" horiz-adv-x="696" 
d="M655 499v41q-4 81 -25.5 124.5t-60 64t-93.5 24t-125 3.5q-83 0 -142.5 -12t-97.5 -45t-56 -90t-18 -147v-172q1 -82 13 -140t46 -94t95 -51t160 -11q70 3 128 7t99 24.5t63.5 65t21.5 129.5v49h-144v-41q0 -40 -10 -62.5t-30.5 -33t-52.5 -13t-75 -2.5q-57 0 -90.5 7
t-51 26.5t-23 54.5t-5.5 91v166q0 55 6 88.5t24.5 52t52 24.5t87.5 6q47 0 78 -2.5t49 -11.5t25.5 -27.5t7.5 -51.5v-41h144z" />
    <glyph glyph-name="D" unicode="D" horiz-adv-x="754" 
d="M62 0h382q85 0 138 24t82.5 64.5t40 93.5t10.5 112v177q0 76 -17 129.5t-53 86.5t-91.5 48t-133.5 15h-358v-750zM206 123v504h214q41 0 70 -7t47 -24.5t26 -47.5t8 -77v-177q0 -32 -6 -62.5t-21 -54.5t-39.5 -39t-60.5 -15h-238z" />
    <glyph glyph-name="E" unicode="E" horiz-adv-x="619" 
d="M200 627h370v123h-514v-750h517v123h-373v199h351v118h-351v187z" />
    <glyph glyph-name="F" unicode="F" horiz-adv-x="582" 
d="M202 627h352v123h-496v-750h144v310h334v118h-334v199z" />
    <glyph glyph-name="G" unicode="G" horiz-adv-x="727" 
d="M354 398v-109h189v-27q0 -53 -8.5 -82.5t-29.5 -43.5t-55.5 -16.5t-85.5 -2.5q-60 0 -96.5 5t-56 22.5t-26 52t-7.5 93.5v172q1 54 6.5 87.5t24.5 52t55.5 25t99.5 6.5q47 0 81 -1.5t55.5 -11.5t32 -32.5t10.5 -63.5h143q1 60 -9.5 100.5t-31 66.5t-50 39.5t-65.5 19
t-78 6t-88 0.5q-87 0 -149.5 -11t-102.5 -42.5t-59 -89t-19 -151.5v-172q0 -95 18 -153.5t57 -90t102 -42t153 -10.5q100 0 163 10.5t98.5 40t48.5 82t13 135.5v136h-333z" />
    <glyph glyph-name="H" unicode="H" horiz-adv-x="769" 
d="M703 750h-144v-307h-349v307h-144v-750h144v320h349v-320h144v750z" />
    <glyph glyph-name="I" unicode="I" horiz-adv-x="276" 
d="M210 750h-144v-750h144v750z" />
    <glyph glyph-name="J" unicode="J" horiz-adv-x="583" 
d="M380 750v-519q0 -35 -3.5 -57t-14 -34.5t-30 -17.5t-51.5 -5q-42 0 -65 5t-33.5 18.5t-12.5 37t-2 60.5v56h-138v-108q0 -65 17.5 -103t50.5 -58t79.5 -25.5t103.5 -5.5q64 0 110.5 9.5t75.5 35.5t43 72t14 120v519h-144z" />
    <glyph glyph-name="K" unicode="K" horiz-adv-x="715" 
d="M210 750h-144v-750h144v321h67l276 -321h182l-335 384l304 366h-177l-250 -306h-67v306z" />
    <glyph glyph-name="L" unicode="L" horiz-adv-x="565" 
d="M210 750h-144v-750h494v123h-350v627z" />
    <glyph glyph-name="M" unicode="M" horiz-adv-x="1007" 
d="M804 632h5l-12 -632h144v750h-236l-200 -557h-4l-204 557h-231v-750h144l-12 629h3l238 -629h129z" />
    <glyph glyph-name="N" unicode="N" horiz-adv-x="827" 
d="M629 123h-4l-321 627h-238v-750h144l-12 627h5l319 -627h239v750h-144z" />
    <glyph glyph-name="O" unicode="O" horiz-adv-x="715" 
d="M356 756q-89 0 -150 -10t-98 -39.5t-53 -83.5t-16 -141v-202q0 -92 17 -148.5t54.5 -87t98 -40.5t147.5 -10q85 0 145.5 11t99.5 42t57 87t18 146v202q0 90 -19.5 144.5t-59.5 83t-100 37.5t-141 9zM356 633q48 0 82 -4t55 -19t30.5 -45t8.5 -83v-202q0 -54 -9 -86.5
t-30 -49.5t-54.5 -22t-82.5 -5q-54 0 -88 4.5t-52.5 21t-25.5 49t-7 88.5v202q1 45 6.5 74t23 46t51.5 24t92 7z" />
    <glyph glyph-name="P" unicode="P" horiz-adv-x="686" 
d="M56 0h144v243h188q73 0 124 9t83 36t46 75.5t14 128.5q0 79 -13.5 129t-44.5 78.5t-82.5 39.5t-126.5 11h-332v-750zM200 366v261h188q40 0 64.5 -6t37.5 -21.5t17 -41.5t4 -66q0 -39 -4.5 -63.5t-18 -38t-37.5 -18.5t-63 -6h-188z" />
    <glyph glyph-name="Q" unicode="Q" horiz-adv-x="766" 
d="M774 101l-73 49q5 15 7.5 35.5t4 40t2 34.5t0.5 20v202q0 99 -27 154.5t-73 82t-106 32t-126 5.5q-83 0 -145.5 -10t-103.5 -39.5t-61.5 -83t-20.5 -141.5v-202q3 -93 22 -149.5t59 -86.5t101.5 -40t148.5 -10q32 0 68 1t71.5 7.5t68.5 21t60 41.5l65 -49zM407 352
l-59 -85l184 -119q-30 -25 -69.5 -28t-79.5 -3q-55 0 -91 3.5t-57.5 19.5t-30 49t-8.5 91v202q0 53 11 83.5t34.5 45.5t58.5 18.5t83 3.5q54 0 90 -4.5t57.5 -20t31 -45.5t9.5 -81v-132q0 -27 -1.5 -53.5t-2.5 -53.5z" />
    <glyph glyph-name="R" unicode="R" horiz-adv-x="722" 
d="M426 248q52 -1 73.5 -30.5t21.5 -77.5v-140h144v140q0 40 -5.5 70t-20 51t-39 33.5t-62.5 15.5v4q48 7 74.5 25.5t39.5 45.5t16 62.5t3 77.5q0 64 -12.5 106.5t-39.5 68.5t-70.5 37t-104.5 13h-383v-750h144v248h221zM205 371v256h200q39 0 62.5 -4.5t37 -18t18 -38
t4.5 -64.5q0 -41 -5.5 -67t-20.5 -40t-40.5 -19t-65.5 -5h-190z" />
    <glyph glyph-name="S" unicode="S" horiz-adv-x="673" 
d="M33 239v-35q0 -81 25.5 -123.5t69 -62t100.5 -22t119 -2.5q72 0 127 6t92 29.5t55.5 69t18.5 124.5q0 72 -13.5 112.5t-47 62t-90 29.5t-143.5 13q-55 3 -87.5 7t-50 14t-22.5 29t-5 54q0 30 6 48.5t23.5 28.5t50 13.5t86.5 3.5q38 0 63.5 -1.5t41.5 -10t22.5 -25.5
t6.5 -47v-24h144v24q0 74 -22 114.5t-59.5 60t-88.5 23.5t-108 4q-68 0 -124.5 -4t-98 -24.5t-64.5 -63.5t-23 -120q0 -82 22.5 -125.5t61.5 -63.5t92 -24.5t114 -8.5q42 -2 73.5 -3t53 -9t32 -27.5t10.5 -59.5q0 -33 -5 -54t-20.5 -34t-45 -18t-78.5 -5q-50 0 -82.5 2.5
t-52 11.5t-27.5 27.5t-8 50.5v35h-144z" />
    <glyph glyph-name="T" unicode="T" horiz-adv-x="587" 
d="M366 627h220v123h-584v-123h220v-627h144v627z" />
    <glyph glyph-name="U" unicode="U" horiz-adv-x="754" 
d="M545 750v-533q0 -30 -7.5 -49.5t-27 -31t-52 -15.5t-82.5 -4q-52 0 -84.5 5t-51 16.5t-25 30.5t-6.5 48v533h-144v-533q0 -79 24 -123.5t65.5 -66.5t98.5 -27.5t123 -5.5q68 0 125.5 5.5t99 27.5t65 67t23.5 123v533h-144z" />
    <glyph glyph-name="V" unicode="V" horiz-adv-x="677" 
d="M539 750l-200 -630h-3l-200 630h-147l240 -750h217l242 750h-149z" />
    <glyph glyph-name="W" unicode="W" horiz-adv-x="1113" 
d="M810 118h-3l-168 632h-166l-172 -632h-4l-156 632h-144l195 -750h206l155 572h4l150 -572h208l202 750h-145z" />
    <glyph glyph-name="X" unicode="X" horiz-adv-x="693" 
d="M687 750h-165l-173 -298l-174 298h-168l229 -363l-247 -387h170l190 317l189 -317h166l-240 387z" />
    <glyph glyph-name="Y" unicode="Y" horiz-adv-x="670" 
d="M681 750h-166l-181 -320h-3l-178 320h-164l271 -462v-288h144v288z" />
    <glyph glyph-name="Z" unicode="Z" horiz-adv-x="648" 
d="M618 750h-575v-123h394v-4l-412 -501v-122h598v123h-420v3l415 501v123z" />
    <glyph glyph-name="bracketleft" unicode="[" horiz-adv-x="348" 
d="M59 756v-906h232v109h-96v688h96v109h-232z" />
    <glyph glyph-name="backslash" unicode="\" horiz-adv-x="278" 
d="M216 -113h112l-265 863h-113z" />
    <glyph glyph-name="bracketright" unicode="]" horiz-adv-x="348" 
d="M289 -150v906h-232v-109h96v-688h-96v-109h232z" />
    <glyph glyph-name="asciicircum" unicode="^" horiz-adv-x="584" 
d="M257 750l-207 -485h100l142 349l142 -349h100l-207 485h-70z" />
    <glyph glyph-name="underscore" unicode="_" horiz-adv-x="500" 
d="M500 -75h-500v-50h500v50z" />
    <glyph glyph-name="grave" unicode="`" horiz-adv-x="371" 
d="M120 743l-45 -82l194 -86l27 52z" />
    <glyph glyph-name="a" unicode="a" horiz-adv-x="589" 
d="M284 236q23 0 44 -1.5t37 -8.5t25.5 -22.5t9.5 -42.5q0 -28 -8.5 -44t-24 -24.5t-37 -10.5t-46.5 -2q-32 0 -54 2t-35.5 10.5t-19.5 24.5t-6 44t9 43.5t24.5 22.5t36.5 8t45 1zM400 0h126v329q0 66 -13.5 106t-42.5 61t-74 28t-108 7q-45 0 -86 -3.5t-71.5 -19t-49 -47.5
t-18.5 -89h126q0 25 7.5 40t21 22t31.5 9t39 2q39 0 61.5 -6t34 -19.5t14 -35.5t2.5 -54v-68h-4q-11 22 -28 34t-37.5 18t-44 7t-47.5 1q-49 0 -85.5 -7.5t-61 -26t-37 -49.5t-12.5 -78q0 -53 14 -86t39.5 -51t61.5 -24t81 -6q23 0 47.5 1.5t47 8.5t41 21.5t27.5 40.5h3z
" />
    <glyph glyph-name="b" unicode="b" horiz-adv-x="594" 
d="M310 435q33 0 54.5 -6t34 -23t18 -48t5.5 -80q0 -45 -1.5 -80t-11.5 -59t-33 -36.5t-66 -12.5q-48 0 -74 12t-37.5 35.5t-13 58.5t-1.5 82q0 42 4.5 72t18 48.5t38 27.5t65.5 9zM58 0h126l-5 79h4q24 -52 66 -68.5t98 -16.5q73 0 113.5 21.5t60 60t23.5 90.5t4 112
q0 58 -6 104.5t-27 79.5t-61 51t-107 18q-24 0 -48 -3t-45 -11t-38 -23t-27 -39h-5v295h-126v-750z" />
    <glyph glyph-name="c" unicode="c" horiz-adv-x="551" 
d="M394 200q0 -35 -3 -56.5t-14.5 -33.5t-34 -16t-61.5 -4q-42 0 -64 8.5t-32 28.5t-11.5 53t-1.5 82q0 51 2 84t12 53t32 28t63 8q33 0 55 -3.5t34.5 -13.5t18 -28.5t5.5 -48.5h126q0 62 -15.5 99.5t-45.5 57.5t-75 26.5t-103 6.5q-77 0 -123.5 -16t-71.5 -49.5t-32.5 -84
t-7.5 -119.5q0 -80 9.5 -131.5t35.5 -82t72 -42.5t118 -12q66 0 112 8t74 30.5t40.5 62.5t12.5 105h-126z" />
    <glyph glyph-name="d" unicode="d" horiz-adv-x="593" 
d="M279 435q41 0 65.5 -9t37.5 -27.5t17 -48.5t4 -72q0 -47 -1 -82t-12.5 -58.5t-37 -35.5t-73.5 -12q-43 0 -66 12.5t-33 36.5t-11.5 59t-1.5 80q0 49 5.5 80t18 48t34 23t54.5 6zM405 0h126v750h-126v-295h-5q-10 24 -27 39t-38 23t-45 11t-48 3q-68 0 -107.5 -18
t-60.5 -51t-27 -79.5t-6 -104.5q0 -60 4 -112t23.5 -90.5t60 -60t113.5 -21.5q56 0 98 16.5t66 68.5h4z" />
    <glyph glyph-name="e" unicode="e" horiz-adv-x="570" 
d="M403 167q0 -29 -9 -45t-24.5 -23t-37.5 -8t-48 -1q-42 0 -65.5 7.5t-35 24.5t-13.5 46t-2 71h361q0 86 -8 142.5t-33.5 89.5t-74 46.5t-129.5 13.5q-80 0 -127.5 -16t-73 -49t-33.5 -84t-8 -121q0 -76 9.5 -127.5t36 -82.5t74 -44t122.5 -13q56 0 101.5 4t77.5 21
t49 51.5t17 96.5h-126zM168 319q0 35 3 57.5t14.5 35.5t34.5 18t64 5q39 0 62 -3t36 -14.5t17 -35t4 -63.5h-235z" />
    <glyph glyph-name="f" unicode="f" horiz-adv-x="348" 
d="M342 525h-128v32q0 24 1.5 43t9.5 31t25.5 18t49.5 5h38v96h-82q-52 0 -84.5 -10.5t-51 -32t-25.5 -55.5t-7 -81v-46h-74v-96h74v-429h126v429h128v96z" />
    <glyph glyph-name="g" unicode="g" horiz-adv-x="594" 
d="M280 435q41 0 65.5 -9t38 -27.5t18 -48.5t4.5 -72q0 -47 -2 -82t-14 -58.5t-37.5 -35.5t-72.5 -12q-42 0 -65 12.5t-33.5 36.5t-12 59t-1.5 80q0 49 5.5 80t18 48t34 23t54.5 6zM410 -25q0 -34 -5.5 -55.5t-19.5 -34t-39.5 -17.5t-65.5 -5q-27 0 -45.5 3t-30 11.5t-17 25
t-5.5 43.5h-118q-3 -59 12.5 -94.5t44.5 -54t70 -24.5t89 -6q72 0 120.5 10t77.5 36t41.5 71.5t12.5 116.5v524h-126l5 -79h-4q-24 52 -66 68.5t-98 16.5q-73 0 -113.5 -21.5t-60 -60t-23.5 -90.5t-4 -112q0 -58 6 -104.5t27 -79.5t60.5 -51t107.5 -18q24 0 48 3t45.5 11.5
t40 24.5t30.5 42h3v-100z" />
    <glyph glyph-name="h" unicode="h" horiz-adv-x="598" 
d="M188 750h-126v-750h126v289q0 35 4 62.5t17 46t38 28t66 9.5q30 0 49.5 -5.5t30 -17.5t14.5 -31.5t4 -47.5v-333h126v346q0 48 -8.5 83t-29.5 57.5t-55.5 33.5t-86.5 11q-28 0 -53 -2.5t-46.5 -11t-38.5 -25.5t-27 -46h-4v304z" />
    <glyph glyph-name="i" unicode="i" horiz-adv-x="236" 
d="M181 525h-126v-525h126v525zM181 750h-126v-107h126v107z" />
    <glyph glyph-name="j" unicode="j" horiz-adv-x="225" 
d="M176 525h-126v-549q0 -14 -2 -25.5t-8 -20t-18.5 -13.5t-33.5 -5v-90q24 -6 47 -6q43 0 70.5 12.5t43 35t21.5 54.5t6 70v537zM176 750h-126v-107h126v107z" />
    <glyph glyph-name="k" unicode="k" horiz-adv-x="539" 
d="M187 750h-126v-750h126v235h31l175 -235h152l-224 278l186 247h-142l-147 -204h-31v429z" />
    <glyph glyph-name="l" unicode="l" horiz-adv-x="252" 
d="M189 750h-126v-750h126v750z" />
    <glyph glyph-name="m" unicode="m" horiz-adv-x="924" 
d="M63 525v-525h126v296q0 35 4.5 61t18 43.5t37.5 26t62 8.5q26 0 42.5 -5t26 -16t14 -28.5t5.5 -42.5v-343h126v296q0 35 4.5 61t18 43.5t37.5 26t62 8.5q26 0 42.5 -5t26 -16t14 -28.5t5.5 -42.5v-343h126v355q0 48 -9 81.5t-30.5 54.5t-56 30.5t-85.5 9.5
q-26 0 -52 -4.5t-48.5 -15t-39.5 -28.5t-26 -45h-4q-5 28 -21 46.5t-37.5 28.5t-47 14t-50.5 4t-50 -3.5t-47 -12.5t-40 -25t-28 -41h-4v76h-122z" />
    <glyph glyph-name="n" unicode="n" horiz-adv-x="598" 
d="M62 525v-525h126v289q0 35 4 62.5t17 46t38 28t66 9.5q30 0 49.5 -5.5t30 -17.5t14.5 -31.5t4 -47.5v-333h126v346q0 48 -8.5 83t-29.5 57.5t-55.5 33.5t-86.5 11q-28 0 -53 -2.5t-46.5 -11t-38.5 -25.5t-27 -46h-4v79h-126z" />
    <glyph glyph-name="o" unicode="o" horiz-adv-x="582" 
d="M291 531q-82 0 -131 -13.5t-74.5 -44.5t-33.5 -83t-8 -128t8 -127.5t33.5 -82.5t74.5 -44.5t131 -13.5t131 13.5t74.5 44.5t33.5 82.5t8 127.5t-8 128t-33.5 83t-74.5 44.5t-131 13.5zM291 435q42 0 66 -7t36.5 -26.5t15.5 -53.5t3 -87t-3 -86t-15.5 -52t-36.5 -26
t-66 -7t-66 7t-36.5 26t-15.5 52t-3 86t3 87t15.5 53.5t36.5 26.5t66 7z" />
    <glyph glyph-name="p" unicode="p" horiz-adv-x="596" 
d="M312 90q-41 0 -65.5 9t-38 27.5t-18 48.5t-4.5 72q0 47 1.5 82t13 58.5t37.5 35.5t74 12q43 0 66 -12.5t33 -36.5t11.5 -59t1.5 -80q0 -50 -5.5 -80.5t-18 -47.5t-34 -23t-54.5 -6zM186 525h-126v-752h126v297h5q10 -24 27 -39t38 -23t45 -11t48 -3q67 0 107 18t61 51
t27 79.5t6 104.5q0 60 -4 112t-23.5 90.5t-60 60t-113.5 21.5q-56 0 -98 -16.5t-66 -68.5h-4z" />
    <glyph glyph-name="q" unicode="q" horiz-adv-x="597" 
d="M283 435q41 0 65.5 -9t38 -27.5t18 -48.5t4.5 -72q0 -47 -1.5 -82t-13 -58.5t-37.5 -35.5t-74 -12q-43 0 -66 12.5t-33 36.5t-11.5 59t-1.5 80q0 49 5.5 80t18 48t34 23t54.5 6zM535 525h-126l5 -79h-4q-24 52 -66 68.5t-98 16.5q-73 0 -113.5 -21.5t-60 -60t-23.5 -90.5
t-4 -112q0 -58 6 -104.5t27 -79.5t60.5 -51t107.5 -18q24 0 48 3t45 11t38 23t27 39h5v-297h126v752z" />
    <glyph glyph-name="r" unicode="r" horiz-adv-x="471" 
d="M53 525v-525h126v324q-2 51 18.5 81t76.5 30q22 0 35 -5.5t19.5 -16.5t8 -26.5t1.5 -35.5v-27h118v42q0 37 -6 67.5t-21.5 52t-42 33.5t-68.5 12q-46 0 -83.5 -15.5t-56.5 -59.5h-5l3 69h-123z" />
    <glyph glyph-name="s" unicode="s" horiz-adv-x="557" 
d="M507 382q0 55 -21 85t-53.5 44.5t-72.5 17t-79 2.5q-51 0 -94.5 -2.5t-75.5 -17t-50.5 -44t-18.5 -83.5q0 -50 8.5 -81.5t33 -49t69.5 -24.5t117 -8q48 -1 74 -5.5t38.5 -13.5t15 -22t2.5 -30q0 -27 -8 -41.5t-23.5 -20.5t-37.5 -7t-50 -1q-35 0 -56.5 2.5t-34 11.5
t-17 25.5t-5.5 45.5h-126q0 -64 17 -99t48.5 -51t75.5 -18.5t98 -2.5q50 0 94.5 4.5t78 20.5t53 47t19.5 84q0 64 -19 97t-51.5 48t-75 17.5t-88.5 4.5q-41 2 -65.5 4t-37.5 8t-17 16.5t-4 30.5q0 26 8 40t23 20.5t36 7.5t46 1t44 -1t31.5 -7t18.5 -18.5t6 -36.5h126z" />
    <glyph glyph-name="t" unicode="t" horiz-adv-x="425" 
d="M-2 429h66v-270q0 -50 8.5 -82t29.5 -50.5t55.5 -25.5t86.5 -7q51 0 85 10t54 34t28 63.5t7 99.5h-111v-41q0 -19 -5 -35t-18 -25.5t-40 -9.5q-20 0 -30.5 4t-16 13t-6.5 22t-1 31v269h201v96h-201v119h-126v-119h-66v-96z" />
    <glyph glyph-name="u" unicode="u" horiz-adv-x="593" 
d="M530 0v525h-126v-303q0 -69 -27.5 -100.5t-100.5 -31.5q-30 0 -47.5 5.5t-26.5 18t-11.5 32.5t-2.5 48v331h-126v-380q0 -43 13 -72t36 -46.5t55.5 -25t71.5 -7.5q27 0 52 3.5t47 13.5t39 27t28 43h4v-81h122z" />
    <glyph glyph-name="v" unicode="v" horiz-adv-x="491" 
d="M497 525h-132l-115 -439h-3l-123 439h-129l159 -525h190z" />
    <glyph glyph-name="w" unicode="w" horiz-adv-x="796" 
d="M794 525h-122l-90 -439h-4l-101 439h-157l-102 -439h-3l-89 439h-124l119 -525h183l93 422h3l94 -422h180z" />
    <glyph glyph-name="x" unicode="x" horiz-adv-x="500" 
d="M487 525h-146l-91 -168l-91 168h-144l153 -249l-173 -276h150l105 192l106 -192h148l-170 276z" />
    <glyph glyph-name="y" unicode="y" horiz-adv-x="485" 
d="M490 525h-128l-102 -447h-2l-133 447h-130l173 -525h61q-4 -23 -9.5 -47t-16 -44t-28.5 -33t-48 -13q-7 0 -13.5 1t-13.5 2v-95q14 -1 27 -2.5t27 -1.5q55 0 89 16.5t55 45t33 67t23 83.5z" />
    <glyph glyph-name="z" unicode="z" horiz-adv-x="475" 
d="M452 420v105h-407v-96h258l-280 -321v-108h429v96h-283z" />
    <glyph glyph-name="braceleft" unicode="{" horiz-adv-x="389" 
d="M37 260q7 0 21 -0.5t27.5 -5.5t23.5 -16t10 -32v-223q0 -35 12.5 -60t30.5 -41t37 -24t33 -8h96v96h-37q-17 0 -26.5 4.5t-14 11.5t-5 16.5t-0.5 18.5v207q-1 35 -11.5 55t-25.5 30t-31 13t-28 4v2q12 1 28 5.5t31 14.5t25.5 28t11.5 46v207q0 9 0.5 18.5t5 16.5t14 11.5
t26.5 4.5h37v96h-96q-14 0 -33 -8t-37 -24t-30.5 -41.5t-12.5 -59.5v-223q0 -17 -10 -25.5t-23.5 -13t-27.5 -5t-21 -0.5v-96z" />
    <glyph glyph-name="bar" unicode="|" horiz-adv-x="280" 
d="M188 750h-96v-1000h96v1000z" />
    <glyph glyph-name="braceright" unicode="}" horiz-adv-x="389" 
d="M352 346q-8 0 -21.5 0.5t-27 5.5t-23.5 16t-10 32v223q0 34 -12.5 59.5t-30.5 41.5t-37.5 24t-32.5 8h-96v-96h37q17 0 26.5 -4.5t14 -11.5t5 -16.5t0.5 -18.5v-207q1 -35 11.5 -55t25.5 -30t31 -13t28 -4v-2q-12 -1 -28 -5.5t-31 -14.5t-25.5 -28t-11.5 -46v-207
q0 -9 -0.5 -18.5t-5 -16.5t-14 -11.5t-26.5 -4.5h-37v-96h96q13 0 32.5 8t37.5 24t30.5 41t12.5 60v223q0 16 10 25t23.5 13.5t27 5t21.5 0.5v96z" />
    <glyph glyph-name="asciitilde" unicode="~" horiz-adv-x="584" 
d="M451 345q0 -9 -1.5 -20t-6 -20.5t-13 -16t-22.5 -6.5q-11 0 -25.5 4t-33.5 15l-106 59q-31 17 -55 17q-32 0 -57.5 -14t-43.5 -36.5t-27.5 -50.5t-9.5 -57h83q1 9 3.5 20t7 21t11.5 17t18 7q19 0 46 -14l119 -60q24 -12 43 -16.5t36 -4.5q26 0 48 14.5t37.5 37t23.5 50.5
t8 54h-83z" />
    <glyph glyph-name="Euro" 
d="M656 234q-25 -33 -46.5 -55.5t-45.5 -36t-52.5 -19.5t-66.5 -6h-69q-46 0 -75 5.5t-45.5 21t-23.5 43t-8 71.5h324l27 89h-352v54h369l27 89h-395q1 46 8 74t24 43.5t46 20.5t74 5h69q26 0 50.5 -1.5t48 -11t46 -29.5t43.5 -57l42 138q-19 25 -40 41.5t-48 26t-62 13
t-83 3.5h-66q-72 0 -124 -11t-86 -40.5t-51.5 -81.5t-19.5 -133h-58l-27 -89h84v-54h-57l-27 -89h85q2 -73 14 -123.5t40 -81.5t75.5 -45t121.5 -14h101q42 0 73.5 3.5t56.5 12t43.5 23t35.5 35.5v166z" />
    <glyph glyph-name="Euro" unicode="&#x20ac;" 
d="M656 234q-25 -33 -46.5 -55.5t-45.5 -36t-52.5 -19.5t-66.5 -6h-69q-46 0 -75 5.5t-45.5 21t-23.5 43t-8 71.5h324l27 89h-352v54h369l27 89h-395q1 46 8 74t24 43.5t46 20.5t74 5h69q26 0 50.5 -1.5t48 -11t46 -29.5t43.5 -57l42 138q-19 25 -40 41.5t-48 26t-62 13
t-83 3.5h-66q-72 0 -124 -11t-86 -40.5t-51.5 -81.5t-19.5 -133h-58l-27 -89h84v-54h-57l-27 -89h85q2 -73 14 -123.5t40 -81.5t75.5 -45t121.5 -14h101q42 0 73.5 3.5t56.5 12t43.5 23t35.5 35.5v166z" />
    <glyph glyph-name="Zcaron" horiz-adv-x="648" 
d="M618 750h-575v-123h394v-4l-412 -501v-122h598v123h-420v3l415 501v123zM324 809l178 108l-25 50l-153 -63l-154 63l-24 -50z" />
    <glyph glyph-name="Zcaron" unicode="&#x17d;" horiz-adv-x="648" 
d="M618 750h-575v-123h394v-4l-412 -501v-122h598v123h-420v3l415 501v123zM324 809l178 108l-25 50l-153 -63l-154 63l-24 -50z" />
    <glyph glyph-name="zcaron" horiz-adv-x="475" 
d="M452 420v105h-407v-96h258l-280 -321v-108h429v96h-283zM238 584l178 108l-25 50l-153 -63l-154 63l-24 -50z" />
    <glyph glyph-name="zcaron" unicode="&#x17e;" horiz-adv-x="475" 
d="M452 420v105h-407v-96h258l-280 -321v-108h429v96h-283zM238 584l178 108l-25 50l-153 -63l-154 63l-24 -50z" />
    <glyph glyph-name="nonbreakingspace" unicode="&#xa0;" horiz-adv-x="352" 
 />
    <glyph glyph-name="exclamdown" unicode="&#xa1;" horiz-adv-x="309" 
d="M217 525h-126v-137h126v137zM83 -225h142l-8 499h-126z" />
    <glyph glyph-name="cent" unicode="&#xa2;" 
d="M320 174q-29 4 -45.5 17t-24.5 35t-9.5 51.5t-1.5 66.5q0 33 1.5 63t9.5 53.5t24.5 39t45.5 20.5v-346zM390 78q61 1 101.5 13.5t63.5 37t31.5 63t6.5 92.5h-126q1 -30 -1.5 -49.5t-10.5 -32.5t-23.5 -19t-41.5 -9v346q23 -5 37.5 -10.5t23 -16t12 -27t4.5 -41.5h126
q-1 52 -14 88.5t-38.5 59t-63 33t-87.5 10.5v68h-70v-68q-71 -2 -112 -21.5t-62 -55t-27 -85t-6 -110.5q0 -59 6 -108t27.5 -84t62.5 -54.5t111 -19.5v-84h70v84z" />
    <glyph glyph-name="sterling" unicode="&#xa3;" 
d="M484 392h-201v136q0 37 6 58.5t21 33t39.5 15t61.5 3.5q40 0 64 -4.5t37.5 -15t18 -28t4.5 -44.5v-32h136v32q0 74 -17.5 116t-52 63t-85.5 26t-117 5q-72 0 -120.5 -10.5t-78 -38t-41.5 -75t-12 -120.5v-120h-98v-109h98v-55q-1 -20 -4 -39t-11 -34t-23 -25t-39 -12
v-118h608v121l-450 -6v3q20 11 31 23t16.5 27t6.5 33t1 40v42h201v109z" />
    <glyph glyph-name="currency" unicode="&#xa4;" 
d="M522 248q9 17 20.5 44.5t11.5 71.5q-2 36 -11.5 57t-17.5 36l80 79l-68 68l-79 -78q-17 12 -43.5 19t-58.5 9q-33 2 -61.5 -7t-46.5 -23l-78 78l-69 -69l79 -77q-16 -15 -23.5 -42.5t-6.5 -59.5q0 -27 6.5 -53.5t25.5 -49.5l-78 -79l67 -67l80 80q20 -16 46.5 -23.5
t52.5 -9.5q21 0 36 3t27 7.5t21.5 10t19.5 10.5l77 -77l68 65zM246 348q-2 21 5.5 40.5t21.5 35t34.5 25t44.5 9.5t44.5 -9.5t34.5 -25t21 -35t6 -40.5q1 -14 -4.5 -31.5t-18.5 -32.5t-33.5 -25.5t-49.5 -10.5q-41 0 -72 28t-34 72z" />
    <glyph glyph-name="yen" unicode="&#xa5;" 
d="M558 536l125 214h-158l-173 -320h-3l-171 320h-156l121 -214h-90v-109h149l51 -86h-200v-109h228v-232h136v232h235v109h-207l52 86h155v109h-94z" />
    <glyph glyph-name="brokenbar" unicode="&#xa6;" horiz-adv-x="280" 
d="M188 675h-96v-349h96v349zM188 -175v350h-96v-350h96z" />
    <glyph glyph-name="section" unicode="&#xa7;" 
d="M431 340q32 -8 51 -14.5t28.5 -15.5t12.5 -22t3 -34q0 -17 -2 -33t-8 -29t-17.5 -21t-29.5 -8q-10 0 -26.5 4t-26.5 6l-151 35q-25 6 -41 11t-25.5 14t-13.5 23t-4 37q0 16 2 32.5t8.5 29t18.5 20.5t33 8q12 0 29.5 -4t29.5 -7zM67 1v-16q0 -76 18 -119.5t54 -65.5
t89.5 -27.5t125.5 -5.5q65 0 119.5 3.5t93.5 23t60.5 61.5t21.5 119q0 24 -1.5 46.5t-8.5 42t-20.5 34t-37.5 22.5v2q23 7 37 24.5t21.5 39t10 46t2.5 47.5q0 47 -11.5 75t-33.5 44t-54 25t-73 18l-167 38q-28 6 -47 11.5t-30.5 14t-16.5 23.5t-5 41q0 21 4.5 34.5t19 21.5
t42 11t74.5 3q46 0 73 -3t41.5 -14t19 -31.5t5.5 -54.5h130v28q0 70 -18.5 109t-53.5 57.5t-85 22.5t-112 4q-68 0 -119.5 -5t-86 -24t-52.5 -56.5t-18 -102.5q0 -23 1.5 -44t7 -40t16.5 -35t30 -27q-27 -6 -43 -20.5t-24.5 -34t-10.5 -42.5t-2 -47q0 -44 6 -72t21 -46
t41 -28.5t67 -19.5l246 -54q21 -5 36 -9.5t24.5 -13.5t14 -23t4.5 -38q0 -27 -6 -44.5t-23.5 -27t-48.5 -13.5t-81 -4q-57 0 -88 5t-46 18t-18.5 35.5t-4.5 57.5h-130z" />
    <glyph glyph-name="dieresis" unicode="&#xa8;" horiz-adv-x="453" 
d="M75 695v-88h99v88h-99zM279 695v-88h99v88h-99z" />
    <glyph glyph-name="copyright" unicode="&#xa9;" horiz-adv-x="790" 
d="M395 -6q79 0 148 30t121 81.5t82 121t30 148.5t-30 148.5t-82 121t-121 81.5t-148 30t-148.5 -30t-121 -81.5t-81.5 -121t-30 -148.5t30 -148.5t81.5 -121t121 -81.5t148.5 -30zM395 66q-65 0 -121.5 24t-98.5 66t-66 98.5t-24 120.5t24 120.5t66 98.5t98.5 66t121.5 24
q63 0 119.5 -24t98.5 -66t66.5 -98.5t24.5 -120.5t-24.5 -120.5t-66.5 -98.5t-98.5 -66t-119.5 -24zM503 307q-1 -18 -9 -32t-21 -24.5t-29 -16t-33 -5.5q-30 0 -53.5 13.5t-39.5 35t-24.5 48.5t-8.5 54q0 28 7.5 55t23 48t38.5 33.5t54 12.5q36 0 62.5 -20t32.5 -55h85
q-11 69 -60.5 107t-118.5 38q-49 0 -87.5 -16.5t-65.5 -46t-41 -70t-14 -88.5q0 -46 15 -86t42 -69.5t66 -46.5t87 -17q33 0 63.5 10t54.5 29t39.5 46.5t19.5 62.5h-85z" />
    <glyph glyph-name="ordfeminine" unicode="&#xaa;" horiz-adv-x="440" 
d="M278 435h84v212q0 37 -10.5 58.5t-30 32.5t-47 14.5t-60.5 3.5q-27 0 -53 -1.5t-46 -11t-32.5 -29.5t-12.5 -57h86q-1 16 3 24.5t12 13t19 5.5t24 1q23 0 36 -4.5t19 -12.5t6.5 -19t0.5 -23v-40h-2q-6 10 -17 16t-24 8.5t-27 3t-25 0.5q-28 0 -50.5 -4t-38.5 -15
t-24.5 -30.5t-8.5 -49.5q0 -31 8.5 -50.5t24 -30.5t37.5 -15t50 -4q30 0 56 4.5t43 32.5l2 -2zM209 486q-32 0 -48 7t-16 43q0 29 18.5 34t44.5 5q33 0 51 -6.5t18 -34.5q0 -32 -18 -40t-50 -8z" />
    <glyph glyph-name="guillemotleft" unicode="&#xab;" horiz-adv-x="529" 
d="M182 539l-131 -264l142 -262l81 51l-113 211l107 216zM387 539l-132 -264l143 -262l80 51l-113 211l107 216z" />
    <glyph glyph-name="logicalnot" unicode="&#xac;" horiz-adv-x="584" 
d="M438 121h96v308h-484v-96h388v-212z" />
    <glyph glyph-name="registered" unicode="&#xae;" horiz-adv-x="790" 
d="M395 -6q78 0 147.5 30t121.5 81.5t82 121t30 148.5t-30 148t-82 121t-121.5 82t-147.5 30q-79 0 -148.5 -30t-121 -82t-81.5 -121t-30 -148t30 -148.5t81.5 -121t121 -81.5t148.5 -30zM395 66q-65 0 -121 24t-98 66t-66 98t-24 121q0 64 24 120.5t66 98.5t98 66t121 24
q64 0 120.5 -24t98.5 -66t66 -98.5t24 -120.5q0 -65 -24 -121t-66 -98t-98.5 -66t-120.5 -24zM485 342q54 4 82.5 30.5t28.5 92.5q0 37 -13.5 59.5t-35.5 34.5t-50.5 16t-59.5 4h-199v-411h80v174h81l92 -174h93zM318 402v117h100q15 0 32 -0.5t32 -5.5t24.5 -16t9.5 -32
q0 -39 -21 -51t-56 -12h-121z" />
    <glyph glyph-name="macron" unicode="&#xaf;" horiz-adv-x="426" 
d="M75 690v-76h276v76h-276z" />
    <glyph glyph-name="macron" unicode="&#x2c9;" horiz-adv-x="426" 
d="M75 690v-76h276v76h-276z" />
    <glyph glyph-name="degree" unicode="&#xb0;" horiz-adv-x="400" 
d="M350 606q0 31 -12 58t-32.5 47.5t-47.5 32.5t-58 12t-58.5 -12t-48 -32.5t-32 -47.5t-11.5 -58t12 -58.5t32 -47.5t47.5 -32t58.5 -12t58 12t47.5 32t32.5 47.5t12 58.5zM281 606q0 -34 -24 -57.5t-57 -23.5q-34 0 -57.5 23.5t-23.5 57.5q0 16 6 31t17 26t25.5 17.5
t31.5 6.5q34 0 58 -24t24 -57z" />
    <glyph glyph-name="plusminus" unicode="&#xb1;" horiz-adv-x="584" 
d="M244 525v-135h-194v-96h194v-135h96v135h194v96h-194v135h-96zM50 0h484v96h-484v-96z" />
    <glyph glyph-name="twosuperior" unicode="&#xb2;" horiz-adv-x="423" 
d="M373 384h-244v13q0 22 4 33.5t15 17.5t29 9t45 8q42 7 71 15t46.5 23.5t25.5 42t8 71.5t-11 72t-32 42t-51.5 20t-70.5 5q-62 0 -97 -10t-52 -30.5t-21 -51.5t-4 -72h95q0 34 3.5 52.5t12 27t24 10t39.5 1.5q20 0 33.5 -2.5t21.5 -9.5t11.5 -20t3.5 -34q0 -31 -4 -46.5
t-15 -23t-29.5 -10.5t-48.5 -9q-38 -6 -65.5 -12.5t-45.5 -20.5t-27 -39t-9 -68v-82h339v78z" />
    <glyph glyph-name="threesuperior" unicode="&#xb3;" horiz-adv-x="423" 
d="M174 495h65q37 0 47 -15t10 -48q0 -20 -4.5 -31t-15 -16t-28.5 -6t-46 -1q-27 0 -42 1.5t-22.5 9t-9 22.5t-1.5 43h-95q0 -56 10.5 -87t32 -46t53.5 -18t74 -3q43 0 78 3t59.5 16.5t38 39.5t13.5 73q0 45 -20.5 70t-67.5 29v2q46 5 63.5 35t17.5 70q0 44 -16.5 68
t-42.5 35t-58.5 13t-64.5 2q-45 0 -76 -5t-51 -21t-29 -45t-9 -78h95q0 24 2.5 38t10 21.5t21 9.5t36.5 2q26 0 43 -1t26.5 -5.5t13.5 -12.5t4 -21q0 -20 -2 -33t-7.5 -20t-15 -9.5t-25.5 -2.5h-65v-78z" />
    <glyph glyph-name="acute" unicode="&#xb4;" horiz-adv-x="371" 
d="M251 743l-176 -116l27 -52l194 86z" />
    <glyph glyph-name="mu" unicode="&#xb5;" horiz-adv-x="593" 
d="M531 0v525h-126v-303q0 -69 -27.5 -100.5t-100.5 -31.5q-30 0 -47.5 5.5t-26.5 18t-11.5 32.5t-2.5 48v331h-126v-752h126v225q13 -2 24 -3t26 -1q27 0 52 3.5t47 13.5t39 27t28 43h4v-81h122z" />
    <glyph glyph-name="mu" unicode="&#x3bc;" horiz-adv-x="593" 
d="M531 0v525h-126v-303q0 -69 -27.5 -100.5t-100.5 -31.5q-30 0 -47.5 5.5t-26.5 18t-11.5 32.5t-2.5 48v331h-126v-752h126v225q13 -2 24 -3t26 -1q27 0 52 3.5t47 13.5t39 27t28 43h4v-81h122z" />
    <glyph glyph-name="paragraph" unicode="&#xb6;" 
d="M693 -227v977h-418q-78 0 -131 -10t-85.5 -38.5t-46.5 -79.5t-14 -133q0 -83 15.5 -132t49.5 -75t86 -34t126 -8h113v-467h109v859h87v-859h109zM388 358h-121q-39 0 -65 3.5t-41 17t-21 39.5t-6 71q0 49 4.5 78t19 43t42.5 18t75 4h113v-274z" />
    <glyph glyph-name="periodcentered" unicode="&#xb7;" horiz-adv-x="352" 
d="M239 352h-126v-137h126v137z" />
    <glyph glyph-name="periodcentered" unicode="&#x2219;" horiz-adv-x="352" 
d="M239 352h-126v-137h126v137z" />
    <glyph glyph-name="cedilla" unicode="&#xb8;" horiz-adv-x="308" 
d="M189 -12l-114 -69l27 -46l131 52z" />
    <glyph glyph-name="onesuperior" unicode="&#xb9;" horiz-adv-x="423" 
d="M309 756h-118l-144 -136l50 -58l117 117v-373h95v450z" />
    <glyph glyph-name="ordmasculine" unicode="&#xba;" horiz-adv-x="440" 
d="M220 756q-51 0 -81 -8.5t-46 -27.5t-21 -49.5t-5 -73.5q0 -53 6.5 -85.5t23.5 -50.5t46.5 -24t76.5 -6q52 0 83 9.5t46.5 30t20 51.5t4.5 75q0 49 -6.5 80t-23.5 48.5t-47 24t-77 6.5zM220 691q24 0 37.5 -3.5t20 -13.5t8.5 -28.5t2 -48.5q0 -25 -1 -44t-7.5 -31.5
t-20.5 -19t-39 -6.5q-24 0 -37.5 3t-20 13.5t-8 30.5t-1.5 54q0 27 1.5 45.5t8 29t20 15t37.5 4.5z" />
    <glyph glyph-name="guillemotright" unicode="&#xbb;" horiz-adv-x="529" 
d="M347 539l-86 -48l107 -216l-113 -211l80 -51l143 262zM142 539l-85 -48l107 -216l-113 -211l80 -51l143 262z" />
    <glyph glyph-name="onequarter" unicode="&#xbc;" horiz-adv-x="1057" 
d="M955 450h-141l-199 -260v-98h245v-92h95v92h39v74h-39v284zM860 166h-167l164 212h3v-212zM816 750h-95l-474 -750h93zM316 750h-118l-144 -136l50 -58l117 117v-373h95v450z" />
    <glyph glyph-name="onehalf" unicode="&#xbd;" horiz-adv-x="1057" 
d="M801 750h-95l-474 -750h93zM301 750h-118l-144 -136l50 -58l117 117v-373h95v450zM1008 78h-244v13q0 22 4 33.5t15 17.5t29 9t45 8q42 7 71 15t46.5 23.5t25.5 42t8 71.5t-11 72t-32 42t-51.5 20t-70.5 5q-62 0 -97 -10t-52 -30.5t-21 -51.5t-4 -72h95q0 34 3.5 52.5
t12 27t24 10t39.5 1.5q20 0 33.5 -2.5t21.5 -9.5t11.5 -20t3.5 -34q0 -31 -4 -46.5t-15 -23t-29.5 -10.5t-48.5 -9q-38 -6 -65.5 -12.5t-45.5 -20.5t-27 -39t-9 -68v-82h339v78z" />
    <glyph glyph-name="threequarters" unicode="&#xbe;" horiz-adv-x="1057" 
d="M967 450h-141l-199 -260v-98h245v-92h95v92h39v74h-39v284zM872 166h-167l164 212h3v-212zM838 750h-95l-474 -750h93zM174 495h65q37 0 47 -15t10 -48q0 -20 -4.5 -31t-15 -16t-28.5 -6t-46 -1q-27 0 -42 1.5t-22.5 9t-9 22.5t-1.5 43h-95q0 -56 10.5 -87t32 -46
t53.5 -18t74 -3q43 0 78 3t59.5 16.5t38 39.5t13.5 73q0 45 -20.5 70t-67.5 29v2q46 5 63.5 35t17.5 70q0 44 -16.5 68t-42.5 35t-58.5 13t-64.5 2q-45 0 -76 -5t-51 -21t-29 -45t-9 -78h95q0 24 2.5 38t10 21.5t21 9.5t36.5 2q26 0 43 -1t26.5 -5.5t13.5 -12.5t4 -21
q0 -20 -2 -33t-7.5 -20t-15 -9.5t-25.5 -2.5h-65v-78z" />
    <glyph glyph-name="questiondown" unicode="&#xbf;" horiz-adv-x="595" 
d="M268 283v-17q0 -24 -5.5 -38.5t-16 -23.5t-26 -15.5t-35.5 -14.5q-42 -18 -68.5 -35t-40.5 -39t-19 -51.5t-5 -70.5q0 -69 16 -110.5t46.5 -64t74 -29.5t99.5 -7q71 0 120 7.5t79 30t43.5 63t13.5 105.5v27h-126v-27q1 -33 -4 -53t-19 -30.5t-38.5 -14t-63.5 -3.5
q-34 0 -56.5 3t-35.5 14t-18 32t-5 57q0 32 7 50t20.5 29.5t33 19.5t45.5 19q35 15 56.5 28.5t33.5 31.5t16 44t4 66v17h-126zM394 525h-126v-137h126v137z" />
    <glyph glyph-name="Agrave" unicode="&#xc0;" horiz-adv-x="709" 
d="M517 142l49 -142h146l-254 750h-212l-249 -750h149l47 142h324zM485 251h-259l128 389h2zM309 968l-45 -82l194 -86l27 52z" />
    <glyph glyph-name="Aacute" unicode="&#xc1;" horiz-adv-x="709" 
d="M517 142l49 -142h146l-254 750h-212l-249 -750h149l47 142h324zM485 251h-259l128 389h2zM440 968l-176 -116l27 -52l194 86z" />
    <glyph glyph-name="Acircumflex" unicode="&#xc2;" horiz-adv-x="709" 
d="M517 142l49 -142h146l-254 750h-212l-249 -750h149l47 142h324zM485 251h-259l128 389h2zM355 967l-178 -108l24 -50l154 63l153 -63l25 50z" />
    <glyph glyph-name="Atilde" unicode="&#xc3;" horiz-adv-x="709" 
d="M517 142l49 -142h146l-254 750h-212l-249 -750h149l47 142h324zM485 251h-259l128 389h2zM486 929q-9 -16 -22.5 -30.5t-33.5 -14.5q-15 0 -33.5 9t-39 19.5t-41 19.5t-40.5 9q-42 0 -69 -25.5t-46 -59.5l64 -35q9 17 20.5 29.5t33.5 12.5q15 0 33 -8.5t37.5 -19t40 -19
t42.5 -8.5q43 0 69.5 26t46.5 61z" />
    <glyph glyph-name="Adieresis" unicode="&#xc4;" horiz-adv-x="709" 
d="M517 142l49 -142h146l-254 750h-212l-249 -750h149l47 142h324zM485 251h-259l128 389h2zM203 920v-88h99v88h-99zM407 920v-88h99v88h-99z" />
    <glyph glyph-name="Aring" unicode="&#xc5;" horiz-adv-x="709" 
d="M517 142l49 -142h146l-254 750h-212l-249 -750h149l47 142h324zM485 251h-259l128 389h2zM263 901q0 -19 7 -35.5t19.5 -29t29.5 -20t36 -7.5t36 7.5t29.5 20t19.5 29t7 35.5t-7 36t-19.5 29.5t-29.5 19.5t-36 7t-36 -7t-29.5 -19.5t-19.5 -29.5t-7 -36zM308 901
q0 20 13.5 33.5t33.5 13.5t33.5 -13.5t13.5 -33.5t-13.5 -33.5t-33.5 -13.5t-33.5 13.5t-13.5 33.5z" />
    <glyph glyph-name="AE" unicode="&#xc6;" horiz-adv-x="1059" 
d="M510 251h-254l179 376h75v-376zM510 0h509v123h-365v203h343v109h-343v192h365v123h-682l-354 -750h158l69 142h300v-142z" />
    <glyph glyph-name="Ccedilla" unicode="&#xc7;" horiz-adv-x="696" 
d="M383 -12l-114 -69l27 -46l131 52zM655 499v41q-4 81 -25.5 124.5t-60 64t-93.5 24t-125 3.5q-83 0 -142.5 -12t-97.5 -45t-56 -90t-18 -147v-172q1 -82 13 -140t46 -94t95 -51t160 -11q70 3 128 7t99 24.5t63.5 65t21.5 129.5v49h-144v-41q0 -40 -10 -62.5t-30.5 -33
t-52.5 -13t-75 -2.5q-57 0 -90.5 7t-51 26.5t-23 54.5t-5.5 91v166q0 55 6 88.5t24.5 52t52 24.5t87.5 6q47 0 78 -2.5t49 -11.5t25.5 -27.5t7.5 -51.5v-41h144z" />
    <glyph glyph-name="Egrave" unicode="&#xc8;" horiz-adv-x="619" 
d="M200 627h370v123h-514v-750h517v123h-373v199h351v118h-351v187zM244 968l-45 -82l194 -86l27 52z" />
    <glyph glyph-name="Eacute" unicode="&#xc9;" horiz-adv-x="619" 
d="M200 627h370v123h-514v-750h517v123h-373v199h351v118h-351v187zM395 968l-176 -116l27 -52l194 86z" />
    <glyph glyph-name="Ecircumflex" unicode="&#xca;" horiz-adv-x="619" 
d="M200 627h370v123h-514v-750h517v123h-373v199h351v118h-351v187zM310 967l-178 -108l24 -50l154 63l153 -63l25 50z" />
    <glyph glyph-name="Edieresis" unicode="&#xcb;" horiz-adv-x="619" 
d="M200 627h370v123h-514v-750h517v123h-373v199h351v118h-351v187zM158 920v-88h99v88h-99zM362 920v-88h99v88h-99z" />
    <glyph glyph-name="Igrave" unicode="&#xcc;" horiz-adv-x="276" 
d="M210 750h-144v-750h144v750zM73 968l-45 -82l194 -86l27 52z" />
    <glyph glyph-name="Iacute" unicode="&#xcd;" horiz-adv-x="276" 
d="M210 750h-144v-750h144v750zM204 968l-176 -116l27 -52l194 86z" />
    <glyph glyph-name="Icircumflex" unicode="&#xce;" horiz-adv-x="276" 
d="M210 750h-144v-750h144v750zM138 967l-178 -108l24 -50l154 63l153 -63l25 50z" />
    <glyph glyph-name="Idieresis" unicode="&#xcf;" horiz-adv-x="276" 
d="M210 750h-144v-750h144v750zM-34 920v-88h99v88h-99zM170 920v-88h99v88h-99z" />
    <glyph glyph-name="Eth" unicode="&#xd0;" horiz-adv-x="754" 
d="M206 627h214q41 0 70 -7t47 -24.5t26 -47.5t8 -77v-177q0 -32 -6 -62.5t-21 -54.5t-39.5 -39t-60.5 -15h-238v208h175v109h-175v187zM62 440h-91v-109h91v-331h382q85 0 138 24t82.5 64.5t40 93.5t10.5 112v177q0 76 -17 129.5t-53 86.5t-91.5 48t-133.5 15h-358v-310z
" />
    <glyph glyph-name="Ntilde" unicode="&#xd1;" horiz-adv-x="827" 
d="M629 123h-4l-321 627h-238v-750h144l-12 627h5l319 -627h239v750h-144zM545 929q-9 -16 -22.5 -30.5t-33.5 -14.5q-15 0 -33.5 9t-39 19.5t-41 19.5t-40.5 9q-42 0 -69 -25.5t-46 -59.5l64 -35q9 17 20.5 29.5t33.5 12.5q15 0 33 -8.5t37.5 -19t40 -19t42.5 -8.5
q43 0 69.5 26t46.5 61z" />
    <glyph glyph-name="Ograve" unicode="&#xd2;" horiz-adv-x="715" 
d="M356 756q-89 0 -150 -10t-98 -39.5t-53 -83.5t-16 -141v-202q0 -92 17 -148.5t54.5 -87t98 -40.5t147.5 -10q85 0 145.5 11t99.5 42t57 87t18 146v202q0 90 -19.5 144.5t-59.5 83t-100 37.5t-141 9zM356 633q48 0 82 -4t55 -19t30.5 -45t8.5 -83v-202q0 -54 -9 -86.5
t-30 -49.5t-54.5 -22t-82.5 -5q-54 0 -88 4.5t-52.5 21t-25.5 49t-7 88.5v202q1 45 6.5 74t23 46t51.5 24t92 7zM292 968l-45 -82l194 -86l27 52z" />
    <glyph glyph-name="Oacute" unicode="&#xd3;" horiz-adv-x="715" 
d="M356 756q-89 0 -150 -10t-98 -39.5t-53 -83.5t-16 -141v-202q0 -92 17 -148.5t54.5 -87t98 -40.5t147.5 -10q85 0 145.5 11t99.5 42t57 87t18 146v202q0 90 -19.5 144.5t-59.5 83t-100 37.5t-141 9zM356 633q48 0 82 -4t55 -19t30.5 -45t8.5 -83v-202q0 -54 -9 -86.5
t-30 -49.5t-54.5 -22t-82.5 -5q-54 0 -88 4.5t-52.5 21t-25.5 49t-7 88.5v202q1 45 6.5 74t23 46t51.5 24t92 7zM423 968l-176 -116l27 -52l194 86z" />
    <glyph glyph-name="Ocircumflex" unicode="&#xd4;" horiz-adv-x="715" 
d="M356 756q-89 0 -150 -10t-98 -39.5t-53 -83.5t-16 -141v-202q0 -92 17 -148.5t54.5 -87t98 -40.5t147.5 -10q85 0 145.5 11t99.5 42t57 87t18 146v202q0 90 -19.5 144.5t-59.5 83t-100 37.5t-141 9zM356 633q48 0 82 -4t55 -19t30.5 -45t8.5 -83v-202q0 -54 -9 -86.5
t-30 -49.5t-54.5 -22t-82.5 -5q-54 0 -88 4.5t-52.5 21t-25.5 49t-7 88.5v202q1 45 6.5 74t23 46t51.5 24t92 7zM358 967l-178 -108l24 -50l154 63l153 -63l25 50z" />
    <glyph glyph-name="Otilde" unicode="&#xd5;" horiz-adv-x="715" 
d="M356 756q-89 0 -150 -10t-98 -39.5t-53 -83.5t-16 -141v-202q0 -92 17 -148.5t54.5 -87t98 -40.5t147.5 -10q85 0 145.5 11t99.5 42t57 87t18 146v202q0 90 -19.5 144.5t-59.5 83t-100 37.5t-141 9zM356 633q48 0 82 -4t55 -19t30.5 -45t8.5 -83v-202q0 -54 -9 -86.5
t-30 -49.5t-54.5 -22t-82.5 -5q-54 0 -88 4.5t-52.5 21t-25.5 49t-7 88.5v202q1 45 6.5 74t23 46t51.5 24t92 7zM489 929q-9 -16 -22.5 -30.5t-33.5 -14.5q-15 0 -33.5 9t-39 19.5t-41 19.5t-40.5 9q-42 0 -69 -25.5t-46 -59.5l64 -35q9 17 20.5 29.5t33.5 12.5
q15 0 33 -8.5t37.5 -19t40 -19t42.5 -8.5q43 0 69.5 26t46.5 61z" />
    <glyph glyph-name="Odieresis" unicode="&#xd6;" horiz-adv-x="715" 
d="M356 756q-89 0 -150 -10t-98 -39.5t-53 -83.5t-16 -141v-202q0 -92 17 -148.5t54.5 -87t98 -40.5t147.5 -10q85 0 145.5 11t99.5 42t57 87t18 146v202q0 90 -19.5 144.5t-59.5 83t-100 37.5t-141 9zM356 633q48 0 82 -4t55 -19t30.5 -45t8.5 -83v-202q0 -54 -9 -86.5
t-30 -49.5t-54.5 -22t-82.5 -5q-54 0 -88 4.5t-52.5 21t-25.5 49t-7 88.5v202q1 45 6.5 74t23 46t51.5 24t92 7zM206 920v-88h99v88h-99zM410 920v-88h99v88h-99z" />
    <glyph glyph-name="multiply" unicode="&#xd7;" horiz-adv-x="584" 
d="M291 351l-173 174l-68 -69l173 -173l-173 -171l69 -70l172 173l175 -173l68 66l-175 175l175 175l-68 67z" />
    <glyph glyph-name="Oslash" unicode="&#xd8;" horiz-adv-x="754" 
d="M754 774l-102 -91q-26 27 -58.5 42t-68 22t-72.5 8t-73 1q-123 0 -191 -21t-100 -65.5t-38 -114.5t-6 -168v-69q0 -36 1.5 -71t5 -64t9.5 -45l-61 -55v-109l103 91q25 -27 52 -41t60 -21t73.5 -8t91.5 -1q113 0 179 17.5t99.5 62t42.5 120.5t9 193q0 66 -0.5 119.5
t-15.5 101.5l60 53v113zM566 491v-114q0 -81 -1.5 -131.5t-18 -79t-55 -39t-111.5 -10.5q-23 0 -50.5 0.5t-52.5 5t-43 13t-23 25.5zM189 254v207q0 50 6.5 83t27 53t58 28t99.5 8q56 0 98 -6.5t67 -39.5z" />
    <glyph glyph-name="Ugrave" unicode="&#xd9;" horiz-adv-x="754" 
d="M545 750v-533q0 -30 -7.5 -49.5t-27 -31t-52 -15.5t-82.5 -4q-52 0 -84.5 5t-51 16.5t-25 30.5t-6.5 48v533h-144v-533q0 -79 24 -123.5t65.5 -66.5t98.5 -27.5t123 -5.5q68 0 125.5 5.5t99 27.5t65 67t23.5 123v533h-144zM312 968l-45 -82l194 -86l27 52z" />
    <glyph glyph-name="Uacute" unicode="&#xda;" horiz-adv-x="754" 
d="M545 750v-533q0 -30 -7.5 -49.5t-27 -31t-52 -15.5t-82.5 -4q-52 0 -84.5 5t-51 16.5t-25 30.5t-6.5 48v533h-144v-533q0 -79 24 -123.5t65.5 -66.5t98.5 -27.5t123 -5.5q68 0 125.5 5.5t99 27.5t65 67t23.5 123v533h-144zM443 968l-176 -116l27 -52l194 86z" />
    <glyph glyph-name="Ucircumflex" unicode="&#xdb;" horiz-adv-x="754" 
d="M545 750v-533q0 -30 -7.5 -49.5t-27 -31t-52 -15.5t-82.5 -4q-52 0 -84.5 5t-51 16.5t-25 30.5t-6.5 48v533h-144v-533q0 -79 24 -123.5t65.5 -66.5t98.5 -27.5t123 -5.5q68 0 125.5 5.5t99 27.5t65 67t23.5 123v533h-144zM377 967l-178 -108l24 -50l154 63l153 -63
l25 50z" />
    <glyph glyph-name="Udieresis" unicode="&#xdc;" horiz-adv-x="754" 
d="M545 750v-533q0 -30 -7.5 -49.5t-27 -31t-52 -15.5t-82.5 -4q-52 0 -84.5 5t-51 16.5t-25 30.5t-6.5 48v533h-144v-533q0 -79 24 -123.5t65.5 -66.5t98.5 -27.5t123 -5.5q68 0 125.5 5.5t99 27.5t65 67t23.5 123v533h-144zM226 920v-88h99v88h-99zM430 920v-88h99v88h-99
z" />
    <glyph glyph-name="Yacute" unicode="&#xdd;" horiz-adv-x="670" 
d="M681 750h-166l-181 -320h-3l-178 320h-164l271 -462v-288h144v288zM419 968l-176 -116l27 -52l194 86z" />
    <glyph glyph-name="Thorn" unicode="&#xde;" horiz-adv-x="686" 
d="M56 0h144v121h188q73 0 124 9t83 36t46 75.5t14 128.5q0 79 -13.5 129t-44.5 78.5t-82.5 39.5t-126.5 11h-188v122h-144v-750zM200 244v261h188q40 0 64.5 -6t37.5 -21.5t17 -41.5t4 -66q0 -39 -4.5 -63.5t-18 -38t-37.5 -18.5t-63 -6h-188z" />
    <glyph glyph-name="germandbls" unicode="&#xdf;" horiz-adv-x="606" 
d="M67 0h126v571q0 29 5 48t16.5 30.5t31 16t48.5 4.5q22 0 42.5 -3t36.5 -10.5t25.5 -21t9.5 -34.5q0 -30 -8 -49t-21 -30t-31 -15t-37 -4h-36v-86h36q40 0 64.5 -10t38 -31t18 -53t4.5 -75q0 -33 -4.5 -62t-15.5 -50t-30.5 -33.5t-49.5 -12.5q-23 0 -43.5 8t-40.5 18v-103
q27 -8 55 -13.5t57 -5.5q63 0 101.5 19t60 53t29 80.5t7.5 101.5q0 43 -6 81t-22.5 67.5t-47.5 47t-80 20.5v3q57 8 88.5 41t31.5 93q0 50 -18.5 80.5t-49.5 47t-70.5 22t-81.5 5.5q-82 0 -129.5 -13t-72 -42t-31 -75t-6.5 -113v-513z" />
    <glyph glyph-name="agrave" unicode="&#xe0;" horiz-adv-x="589" 
d="M284 236q23 0 44 -1.5t37 -8.5t25.5 -22.5t9.5 -42.5q0 -28 -8.5 -44t-24 -24.5t-37 -10.5t-46.5 -2q-32 0 -54 2t-35.5 10.5t-19.5 24.5t-6 44t9 43.5t24.5 22.5t36.5 8t45 1zM400 0h126v329q0 66 -13.5 106t-42.5 61t-74 28t-108 7q-45 0 -86 -3.5t-71.5 -19t-49 -47.5
t-18.5 -89h126q0 25 7.5 40t21 22t31.5 9t39 2q39 0 61.5 -6t34 -19.5t14 -35.5t2.5 -54v-68h-4q-11 22 -28 34t-37.5 18t-44 7t-47.5 1q-49 0 -85.5 -7.5t-61 -26t-37 -49.5t-12.5 -78q0 -53 14 -86t39.5 -51t61.5 -24t81 -6q23 0 47.5 1.5t47 8.5t41 21.5t27.5 40.5h3z
M229 743l-45 -82l194 -86l27 52z" />
    <glyph glyph-name="aacute" unicode="&#xe1;" horiz-adv-x="589" 
d="M284 236q23 0 44 -1.5t37 -8.5t25.5 -22.5t9.5 -42.5q0 -28 -8.5 -44t-24 -24.5t-37 -10.5t-46.5 -2q-32 0 -54 2t-35.5 10.5t-19.5 24.5t-6 44t9 43.5t24.5 22.5t36.5 8t45 1zM400 0h126v329q0 66 -13.5 106t-42.5 61t-74 28t-108 7q-45 0 -86 -3.5t-71.5 -19t-49 -47.5
t-18.5 -89h126q0 25 7.5 40t21 22t31.5 9t39 2q39 0 61.5 -6t34 -19.5t14 -35.5t2.5 -54v-68h-4q-11 22 -28 34t-37.5 18t-44 7t-47.5 1q-49 0 -85.5 -7.5t-61 -26t-37 -49.5t-12.5 -78q0 -53 14 -86t39.5 -51t61.5 -24t81 -6q23 0 47.5 1.5t47 8.5t41 21.5t27.5 40.5h3z
M380 743l-176 -116l27 -52l194 86z" />
    <glyph glyph-name="acircumflex" unicode="&#xe2;" horiz-adv-x="589" 
d="M284 236q23 0 44 -1.5t37 -8.5t25.5 -22.5t9.5 -42.5q0 -28 -8.5 -44t-24 -24.5t-37 -10.5t-46.5 -2q-32 0 -54 2t-35.5 10.5t-19.5 24.5t-6 44t9 43.5t24.5 22.5t36.5 8t45 1zM400 0h126v329q0 66 -13.5 106t-42.5 61t-74 28t-108 7q-45 0 -86 -3.5t-71.5 -19t-49 -47.5
t-18.5 -89h126q0 25 7.5 40t21 22t31.5 9t39 2q39 0 61.5 -6t34 -19.5t14 -35.5t2.5 -54v-68h-4q-11 22 -28 34t-37.5 18t-44 7t-47.5 1q-49 0 -85.5 -7.5t-61 -26t-37 -49.5t-12.5 -78q0 -53 14 -86t39.5 -51t61.5 -24t81 -6q23 0 47.5 1.5t47 8.5t41 21.5t27.5 40.5h3z
M295 742l-178 -108l24 -50l154 63l153 -63l25 50z" />
    <glyph glyph-name="atilde" unicode="&#xe3;" horiz-adv-x="589" 
d="M284 236q23 0 44 -1.5t37 -8.5t25.5 -22.5t9.5 -42.5q0 -28 -8.5 -44t-24 -24.5t-37 -10.5t-46.5 -2q-32 0 -54 2t-35.5 10.5t-19.5 24.5t-6 44t9 43.5t24.5 22.5t36.5 8t45 1zM400 0h126v329q0 66 -13.5 106t-42.5 61t-74 28t-108 7q-45 0 -86 -3.5t-71.5 -19t-49 -47.5
t-18.5 -89h126q0 25 7.5 40t21 22t31.5 9t39 2q39 0 61.5 -6t34 -19.5t14 -35.5t2.5 -54v-68h-4q-11 22 -28 34t-37.5 18t-44 7t-47.5 1q-49 0 -85.5 -7.5t-61 -26t-37 -49.5t-12.5 -78q0 -53 14 -86t39.5 -51t61.5 -24t81 -6q23 0 47.5 1.5t47 8.5t41 21.5t27.5 40.5h3z
M426 704q-9 -16 -22.5 -30.5t-33.5 -14.5q-15 0 -33.5 9t-39 19.5t-41 19.5t-40.5 9q-42 0 -69 -25.5t-46 -59.5l64 -35q9 17 20.5 29.5t33.5 12.5q15 0 33 -8.5t37.5 -19t40 -19t42.5 -8.5q43 0 69.5 26t46.5 61z" />
    <glyph glyph-name="adieresis" unicode="&#xe4;" horiz-adv-x="589" 
d="M284 236q23 0 44 -1.5t37 -8.5t25.5 -22.5t9.5 -42.5q0 -28 -8.5 -44t-24 -24.5t-37 -10.5t-46.5 -2q-32 0 -54 2t-35.5 10.5t-19.5 24.5t-6 44t9 43.5t24.5 22.5t36.5 8t45 1zM400 0h126v329q0 66 -13.5 106t-42.5 61t-74 28t-108 7q-45 0 -86 -3.5t-71.5 -19t-49 -47.5
t-18.5 -89h126q0 25 7.5 40t21 22t31.5 9t39 2q39 0 61.5 -6t34 -19.5t14 -35.5t2.5 -54v-68h-4q-11 22 -28 34t-37.5 18t-44 7t-47.5 1q-49 0 -85.5 -7.5t-61 -26t-37 -49.5t-12.5 -78q0 -53 14 -86t39.5 -51t61.5 -24t81 -6q23 0 47.5 1.5t47 8.5t41 21.5t27.5 40.5h3z
M143 695v-88h99v88h-99zM347 695v-88h99v88h-99z" />
    <glyph glyph-name="aring" unicode="&#xe5;" horiz-adv-x="589" 
d="M284 236q23 0 44 -1.5t37 -8.5t25.5 -22.5t9.5 -42.5q0 -28 -8.5 -44t-24 -24.5t-37 -10.5t-46.5 -2q-32 0 -54 2t-35.5 10.5t-19.5 24.5t-6 44t9 43.5t24.5 22.5t36.5 8t45 1zM400 0h126v329q0 66 -13.5 106t-42.5 61t-74 28t-108 7q-45 0 -86 -3.5t-71.5 -19t-49 -47.5
t-18.5 -89h126q0 25 7.5 40t21 22t31.5 9t39 2q39 0 61.5 -6t34 -19.5t14 -35.5t2.5 -54v-68h-4q-11 22 -28 34t-37.5 18t-44 7t-47.5 1q-49 0 -85.5 -7.5t-61 -26t-37 -49.5t-12.5 -78q0 -53 14 -86t39.5 -51t61.5 -24t81 -6q23 0 47.5 1.5t47 8.5t41 21.5t27.5 40.5h3z
M203 656q0 -19 7 -35.5t19.5 -29t29.5 -20t36 -7.5t36 7.5t29.5 20t19.5 29t7 35.5t-7 36t-19.5 29.5t-29.5 19.5t-36 7t-36 -7t-29.5 -19.5t-19.5 -29.5t-7 -36zM248 656q0 20 13.5 33.5t33.5 13.5t33.5 -13.5t13.5 -33.5t-13.5 -33.5t-33.5 -13.5t-33.5 13.5t-13.5 33.5z
" />
    <glyph glyph-name="ae" unicode="&#xe6;" horiz-adv-x="920" 
d="M521 319q0 35 3 57.5t14.5 35.5t34.5 18t64 5q39 0 62 -3t36 -14.5t17 -35t4 -63.5h-235zM279 236q23 0 44 -1.5t37 -8.5t25.5 -22.5t9.5 -42.5q0 -28 -8.5 -44t-24 -24.5t-37 -10.5t-46.5 -2q-32 0 -54 2t-35.5 10.5t-19.5 24.5t-6 44t9 43.5t24.5 22.5t36.5 8t45 1z
M395 260h-4q-11 23 -28 35.5t-37.5 18.5t-44 7t-47.5 1q-49 0 -85.5 -7.5t-61 -26t-37 -49.5t-12.5 -78q0 -53 14 -86t39.5 -51t61.5 -24t81 -6q33 0 66 1.5t62 10t51 25t32 46.5h3q10 -29 31 -45.5t47.5 -25t55.5 -10.5t55 -2q56 0 101.5 4t77.5 21t49 51.5t17 96.5h-126
q0 -29 -9 -45t-24.5 -23t-37.5 -8t-48 -1q-42 0 -65.5 7.5t-35 24.5t-13.5 46t-2 71h361q0 86 -8 142.5t-33.5 89.5t-74 46.5t-129.5 13.5q-20 0 -46 -1.5t-51 -8t-45.5 -20.5t-29.5 -38h-3q-7 27 -30.5 41t-51.5 20t-55 6.5t-42 0.5q-45 0 -86 -3.5t-71.5 -19t-49 -47.5
t-18.5 -89h126q0 25 7.5 40t21 22t31.5 9t39 2q39 0 61.5 -6t34 -19.5t14 -35.5t2.5 -54v-70z" />
    <glyph glyph-name="ccedilla" unicode="&#xe7;" horiz-adv-x="551" 
d="M311 -12l-114 -69l27 -46l131 52zM394 200q0 -35 -3 -56.5t-14.5 -33.5t-34 -16t-61.5 -4q-42 0 -64 8.5t-32 28.5t-11.5 53t-1.5 82q0 51 2 84t12 53t32 28t63 8q33 0 55 -3.5t34.5 -13.5t18 -28.5t5.5 -48.5h126q0 62 -15.5 99.5t-45.5 57.5t-75 26.5t-103 6.5
q-77 0 -123.5 -16t-71.5 -49.5t-32.5 -84t-7.5 -119.5q0 -80 9.5 -131.5t35.5 -82t72 -42.5t118 -12q66 0 112 8t74 30.5t40.5 62.5t12.5 105h-126z" />
    <glyph glyph-name="egrave" unicode="&#xe8;" horiz-adv-x="570" 
d="M403 167q0 -29 -9 -45t-24.5 -23t-37.5 -8t-48 -1q-42 0 -65.5 7.5t-35 24.5t-13.5 46t-2 71h361q0 86 -8 142.5t-33.5 89.5t-74 46.5t-129.5 13.5q-80 0 -127.5 -16t-73 -49t-33.5 -84t-8 -121q0 -76 9.5 -127.5t36 -82.5t74 -44t122.5 -13q56 0 101.5 4t77.5 21
t49 51.5t17 96.5h-126zM168 319q0 35 3 57.5t14.5 35.5t34.5 18t64 5q39 0 62 -3t36 -14.5t17 -35t4 -63.5h-235zM220 743l-45 -82l194 -86l27 52z" />
    <glyph glyph-name="eacute" unicode="&#xe9;" horiz-adv-x="570" 
d="M403 167q0 -29 -9 -45t-24.5 -23t-37.5 -8t-48 -1q-42 0 -65.5 7.5t-35 24.5t-13.5 46t-2 71h361q0 86 -8 142.5t-33.5 89.5t-74 46.5t-129.5 13.5q-80 0 -127.5 -16t-73 -49t-33.5 -84t-8 -121q0 -76 9.5 -127.5t36 -82.5t74 -44t122.5 -13q56 0 101.5 4t77.5 21
t49 51.5t17 96.5h-126zM168 319q0 35 3 57.5t14.5 35.5t34.5 18t64 5q39 0 62 -3t36 -14.5t17 -35t4 -63.5h-235zM371 743l-176 -116l27 -52l194 86z" />
    <glyph glyph-name="ecircumflex" unicode="&#xea;" horiz-adv-x="570" 
d="M403 167q0 -29 -9 -45t-24.5 -23t-37.5 -8t-48 -1q-42 0 -65.5 7.5t-35 24.5t-13.5 46t-2 71h361q0 86 -8 142.5t-33.5 89.5t-74 46.5t-129.5 13.5q-80 0 -127.5 -16t-73 -49t-33.5 -84t-8 -121q0 -76 9.5 -127.5t36 -82.5t74 -44t122.5 -13q56 0 101.5 4t77.5 21
t49 51.5t17 96.5h-126zM168 319q0 35 3 57.5t14.5 35.5t34.5 18t64 5q39 0 62 -3t36 -14.5t17 -35t4 -63.5h-235zM285 742l-178 -108l24 -50l154 63l153 -63l25 50z" />
    <glyph glyph-name="edieresis" unicode="&#xeb;" horiz-adv-x="570" 
d="M403 167q0 -29 -9 -45t-24.5 -23t-37.5 -8t-48 -1q-42 0 -65.5 7.5t-35 24.5t-13.5 46t-2 71h361q0 86 -8 142.5t-33.5 89.5t-74 46.5t-129.5 13.5q-80 0 -127.5 -16t-73 -49t-33.5 -84t-8 -121q0 -76 9.5 -127.5t36 -82.5t74 -44t122.5 -13q56 0 101.5 4t77.5 21
t49 51.5t17 96.5h-126zM168 319q0 35 3 57.5t14.5 35.5t34.5 18t64 5q39 0 62 -3t36 -14.5t17 -35t4 -63.5h-235zM134 695v-88h99v88h-99zM338 695v-88h99v88h-99z" />
    <glyph glyph-name="igrave" unicode="&#xec;" horiz-adv-x="236" 
d="M181 525h-126v-525h126v525zM53 743l-45 -82l194 -86l27 52z" />
    <glyph glyph-name="iacute" unicode="&#xed;" horiz-adv-x="236" 
d="M181 525h-126v-525h126v525zM184 743l-176 -116l27 -52l194 86z" />
    <glyph glyph-name="icircumflex" unicode="&#xee;" horiz-adv-x="236" 
d="M181 525h-126v-525h126v525zM118 742l-178 -108l24 -50l154 63l153 -63l25 50z" />
    <glyph glyph-name="idieresis" unicode="&#xef;" horiz-adv-x="236" 
d="M181 525h-126v-525h126v525zM-33 695v-88h99v88h-99zM171 695v-88h99v88h-99z" />
    <glyph glyph-name="eth" unicode="&#xf0;" horiz-adv-x="582" 
d="M291 435q42 0 66 -7t36.5 -26.5t15.5 -53.5t3 -87t-3 -86t-15.5 -52t-36.5 -26t-66 -7t-66 7t-36.5 26t-15.5 52t-3 86t3 87t15.5 53.5t36.5 26.5t66 7zM181 726q28 -17 47.5 -32.5t37.5 -32.5l-131 -40l56 -54l127 39q41 -51 64 -116q-17 15 -36 23.5t-38 12.5t-36.5 5
t-32.5 1q-66 0 -104.5 -18.5t-58.5 -53.5t-26 -85t-6 -113q0 -76 8 -127.5t33.5 -82.5t74.5 -44.5t131 -13.5t131 15t74.5 48.5t33 88.5t7.5 136q0 100 -25.5 187t-91.5 168l128 39l-54 55l-127 -39q-18 17 -39.5 33.5t-47.5 30.5z" />
    <glyph glyph-name="ntilde" unicode="&#xf1;" horiz-adv-x="598" 
d="M62 525v-525h126v289q0 35 4 62.5t17 46t38 28t66 9.5q30 0 49.5 -5.5t30 -17.5t14.5 -31.5t4 -47.5v-333h126v346q0 48 -8.5 83t-29.5 57.5t-55.5 33.5t-86.5 11q-28 0 -53 -2.5t-46.5 -11t-38.5 -25.5t-27 -46h-4v79h-126zM431 704q-9 -16 -22.5 -30.5t-33.5 -14.5
q-15 0 -33.5 9t-39 19.5t-41 19.5t-40.5 9q-42 0 -69 -25.5t-46 -59.5l64 -35q9 17 20.5 29.5t33.5 12.5q15 0 33 -8.5t37.5 -19t40 -19t42.5 -8.5q43 0 69.5 26t46.5 61z" />
    <glyph glyph-name="ograve" unicode="&#xf2;" horiz-adv-x="582" 
d="M291 531q-82 0 -131 -13.5t-74.5 -44.5t-33.5 -83t-8 -128t8 -127.5t33.5 -82.5t74.5 -44.5t131 -13.5t131 13.5t74.5 44.5t33.5 82.5t8 127.5t-8 128t-33.5 83t-74.5 44.5t-131 13.5zM291 435q42 0 66 -7t36.5 -26.5t15.5 -53.5t3 -87t-3 -86t-15.5 -52t-36.5 -26
t-66 -7t-66 7t-36.5 26t-15.5 52t-3 86t3 87t15.5 53.5t36.5 26.5t66 7zM226 743l-45 -82l194 -86l27 52z" />
    <glyph glyph-name="oacute" unicode="&#xf3;" horiz-adv-x="582" 
d="M291 531q-82 0 -131 -13.5t-74.5 -44.5t-33.5 -83t-8 -128t8 -127.5t33.5 -82.5t74.5 -44.5t131 -13.5t131 13.5t74.5 44.5t33.5 82.5t8 127.5t-8 128t-33.5 83t-74.5 44.5t-131 13.5zM291 435q42 0 66 -7t36.5 -26.5t15.5 -53.5t3 -87t-3 -86t-15.5 -52t-36.5 -26
t-66 -7t-66 7t-36.5 26t-15.5 52t-3 86t3 87t15.5 53.5t36.5 26.5t66 7zM357 743l-176 -116l27 -52l194 86z" />
    <glyph glyph-name="ocircumflex" unicode="&#xf4;" horiz-adv-x="582" 
d="M291 531q-82 0 -131 -13.5t-74.5 -44.5t-33.5 -83t-8 -128t8 -127.5t33.5 -82.5t74.5 -44.5t131 -13.5t131 13.5t74.5 44.5t33.5 82.5t8 127.5t-8 128t-33.5 83t-74.5 44.5t-131 13.5zM291 435q42 0 66 -7t36.5 -26.5t15.5 -53.5t3 -87t-3 -86t-15.5 -52t-36.5 -26
t-66 -7t-66 7t-36.5 26t-15.5 52t-3 86t3 87t15.5 53.5t36.5 26.5t66 7zM291 742l-178 -108l24 -50l154 63l153 -63l25 50z" />
    <glyph glyph-name="otilde" unicode="&#xf5;" horiz-adv-x="582" 
d="M291 531q-82 0 -131 -13.5t-74.5 -44.5t-33.5 -83t-8 -128t8 -127.5t33.5 -82.5t74.5 -44.5t131 -13.5t131 13.5t74.5 44.5t33.5 82.5t8 127.5t-8 128t-33.5 83t-74.5 44.5t-131 13.5zM291 435q42 0 66 -7t36.5 -26.5t15.5 -53.5t3 -87t-3 -86t-15.5 -52t-36.5 -26
t-66 -7t-66 7t-36.5 26t-15.5 52t-3 86t3 87t15.5 53.5t36.5 26.5t66 7zM423 704q-9 -16 -22.5 -30.5t-33.5 -14.5q-15 0 -33.5 9t-39 19.5t-41 19.5t-40.5 9q-42 0 -69 -25.5t-46 -59.5l64 -35q9 17 20.5 29.5t33.5 12.5q15 0 33 -8.5t37.5 -19t40 -19t42.5 -8.5
q43 0 69.5 26t46.5 61z" />
    <glyph glyph-name="odieresis" unicode="&#xf6;" horiz-adv-x="582" 
d="M291 531q-82 0 -131 -13.5t-74.5 -44.5t-33.5 -83t-8 -128t8 -127.5t33.5 -82.5t74.5 -44.5t131 -13.5t131 13.5t74.5 44.5t33.5 82.5t8 127.5t-8 128t-33.5 83t-74.5 44.5t-131 13.5zM291 435q42 0 66 -7t36.5 -26.5t15.5 -53.5t3 -87t-3 -86t-15.5 -52t-36.5 -26
t-66 -7t-66 7t-36.5 26t-15.5 52t-3 86t3 87t15.5 53.5t36.5 26.5t66 7zM140 695v-88h99v88h-99zM344 695v-88h99v88h-99z" />
    <glyph glyph-name="divide" unicode="&#xf7;" horiz-adv-x="584" 
d="M50 235h484v96h-484v-96zM233 41h118v118h-118v-118zM233 407h118v118h-118v-118z" />
    <glyph glyph-name="oslash" unicode="&#xf8;" horiz-adv-x="582" 
d="M581 539l-83 -66q-17 21 -42 33t-53 17.5t-57 6.5t-54 1q-83 0 -132 -13t-74.5 -43.5t-33.5 -82t-8 -129.5q0 -39 1.5 -78.5t12.5 -77.5l-56 -49v-79l86 73q17 -21 42 -33t53.5 -17.5t58 -6.5t54.5 -1q90 0 139 18.5t72 56t27 94.5t4 135q0 30 -1 59.5t-10 58.5l54 42v81
zM412 275q0 -29 -1.5 -64.5t-9.5 -62.5q-5 -21 -14.5 -32.5t-22.5 -17.5t-29.5 -7t-36.5 -1h-31q-17 0 -33.5 3.5t-29.5 11.5t-17 23l224 198zM171 196l-1 52q0 26 1 60t5 58t13.5 38t23.5 20.5t32.5 8.5t39.5 2h31t35.5 -3.5t30.5 -12t17 -24.5z" />
    <glyph glyph-name="ugrave" unicode="&#xf9;" horiz-adv-x="593" 
d="M530 0v525h-126v-303q0 -69 -27.5 -100.5t-100.5 -31.5q-30 0 -47.5 5.5t-26.5 18t-11.5 32.5t-2.5 48v331h-126v-380q0 -43 13 -72t36 -46.5t55.5 -25t71.5 -7.5q27 0 52 3.5t47 13.5t39 27t28 43h4v-81h122zM191 743l-45 -82l194 -86l27 52z" />
    <glyph glyph-name="uacute" unicode="&#xfa;" horiz-adv-x="593" 
d="M530 0v525h-126v-303q0 -69 -27.5 -100.5t-100.5 -31.5q-30 0 -47.5 5.5t-26.5 18t-11.5 32.5t-2.5 48v331h-126v-380q0 -43 13 -72t36 -46.5t55.5 -25t71.5 -7.5q27 0 52 3.5t47 13.5t39 27t28 43h4v-81h122zM374 743l-176 -116l27 -52l194 86z" />
    <glyph glyph-name="ucircumflex" unicode="&#xfb;" horiz-adv-x="593" 
d="M530 0v525h-126v-303q0 -69 -27.5 -100.5t-100.5 -31.5q-30 0 -47.5 5.5t-26.5 18t-11.5 32.5t-2.5 48v331h-126v-380q0 -43 13 -72t36 -46.5t55.5 -25t71.5 -7.5q27 0 52 3.5t47 13.5t39 27t28 43h4v-81h122zM277 742l-178 -108l24 -50l154 63l153 -63l25 50z" />
    <glyph glyph-name="udieresis" unicode="&#xfc;" horiz-adv-x="593" 
d="M530 0v525h-126v-303q0 -69 -27.5 -100.5t-100.5 -31.5q-30 0 -47.5 5.5t-26.5 18t-11.5 32.5t-2.5 48v331h-126v-380q0 -43 13 -72t36 -46.5t55.5 -25t71.5 -7.5q27 0 52 3.5t47 13.5t39 27t28 43h4v-81h122zM145 695v-88h99v88h-99zM349 695v-88h99v88h-99z" />
    <glyph glyph-name="yacute" unicode="&#xfd;" horiz-adv-x="485" 
d="M490 525h-128l-102 -447h-2l-133 447h-130l173 -525h61q-4 -23 -9.5 -47t-16 -44t-28.5 -33t-48 -13q-7 0 -13.5 1t-13.5 2v-95q14 -1 27 -2.5t27 -1.5q55 0 89 16.5t55 45t33 67t23 83.5zM320 743l-176 -116l27 -52l194 86z" />
    <glyph glyph-name="thorn" unicode="&#xfe;" horiz-adv-x="596" 
d="M312 90q-41 0 -65.5 9t-38 27.5t-18 48.5t-4.5 72q0 47 1.5 82t13 58.5t37.5 35.5t74 12q43 0 66 -12.5t33 -36.5t11.5 -59t1.5 -80q0 -50 -5.5 -80.5t-18 -47.5t-34 -23t-54.5 -6zM60 -227h126v297h5q10 -24 27 -39t38 -23t45 -11t48 -3q67 0 107 18t61 51t27 79.5
t6 104.5q0 60 -4 112t-23.5 90.5t-60 60t-113.5 21.5q-56 0 -97.5 -16.5t-63.5 -68.5h-2v304h-126v-977z" />
    <glyph glyph-name="ydieresis" unicode="&#xff;" horiz-adv-x="485" 
d="M490 525h-128l-102 -447h-2l-133 447h-130l173 -525h61q-4 -23 -9.5 -47t-16 -44t-28.5 -33t-48 -13q-7 0 -13.5 1t-13.5 2v-95q14 -1 27 -2.5t27 -1.5q55 0 89 16.5t55 45t33 67t23 83.5zM91 695v-88h99v88h-99zM295 695v-88h99v88h-99z" />
    <glyph glyph-name="dotlessi" unicode="&#x131;" horiz-adv-x="236" 
d="M181 525h-126v-525h126v525z" />
    <glyph glyph-name="Lslash" unicode="&#x141;" horiz-adv-x="565" 
d="M210 406l161 148v112l-161 -148v232h-144v-350l-80 -74v-114l80 75v-287h494v123h-350v283z" />
    <glyph glyph-name="lslash" unicode="&#x142;" horiz-adv-x="272" 
d="M199 423l73 67v88l-73 -67v239h-126v-344l-73 -68v-88l73 69v-319h126v423z" />
    <glyph glyph-name="OE" unicode="&#x152;" horiz-adv-x="1105" 
d="M363 117q-60 0 -95.5 4.5t-54 22t-24.5 52t-6 94.5v202q0 38 5 65t23.5 44t54.5 24.5t97 7.5q62 0 100 -5.5t58.5 -23t27 -51.5t6.5 -91v-174q0 -55 -6.5 -88.5t-27 -52t-58 -24.5t-100.5 -6zM699 627h366v123h-501l3 -85h-3q-14 34 -40.5 52.5t-57.5 27t-63.5 10
t-59.5 1.5q-79 0 -136 -13t-94.5 -44t-55.5 -81.5t-18 -125.5v-202q0 -84 13.5 -141t48 -91.5t93.5 -49t149 -14.5q35 0 67.5 2.5t60.5 11.5t51.5 26t41.5 47h3l-3 -81h504v123h-369v203h347v109h-347v192z" />
    <glyph glyph-name="oe" unicode="&#x153;" horiz-adv-x="931" 
d="M285 435q41 0 64.5 -4t35.5 -21t15.5 -52t3.5 -96q0 -57 -3.5 -91t-16 -52t-36 -23.5t-63.5 -5.5q-39 0 -62 6t-36 24t-17 52t-4 90q0 59 3.5 93.5t15.5 52t35.5 22.5t64.5 5zM40 262q0 -77 9 -128t35.5 -82.5t75 -44.5t128.5 -13q27 0 53.5 1t50.5 8t43.5 22.5
t31.5 43.5h3q10 -27 29 -42t42.5 -22.5t50.5 -9t54 -1.5q56 0 101.5 4t77.5 21t49 51.5t17 96.5h-126q0 -29 -9 -45t-24.5 -23t-37.5 -8t-48 -1q-42 0 -65.5 7.5t-35 24.5t-13.5 46t-2 71h361q0 86 -8 142.5t-33.5 89.5t-74 46.5t-129.5 13.5q-23 0 -49 -1.5t-51 -9
t-45.5 -22t-30.5 -39.5h-2q-9 27 -31 41.5t-49 21.5t-54 8t-46 1q-89 0 -139 -17t-74 -51t-29.5 -84.5t-5.5 -116.5zM530 319q0 35 3 57.5t14.5 35.5t34.5 18t64 5q39 0 62 -3t36 -14.5t17 -35t4 -63.5h-235z" />
    <glyph glyph-name="Scaron" unicode="&#x160;" horiz-adv-x="673" 
d="M33 239v-35q0 -81 25.5 -123.5t69 -62t100.5 -22t119 -2.5q72 0 127 6t92 29.5t55.5 69t18.5 124.5q0 72 -13.5 112.5t-47 62t-90 29.5t-143.5 13q-55 3 -87.5 7t-50 14t-22.5 29t-5 54q0 30 6 48.5t23.5 28.5t50 13.5t86.5 3.5q38 0 63.5 -1.5t41.5 -10t22.5 -25.5
t6.5 -47v-24h144v24q0 74 -22 114.5t-59.5 60t-88.5 23.5t-108 4q-68 0 -124.5 -4t-98 -24.5t-64.5 -63.5t-23 -120q0 -82 22.5 -125.5t61.5 -63.5t92 -24.5t114 -8.5q42 -2 73.5 -3t53 -9t32 -27.5t10.5 -59.5q0 -33 -5 -54t-20.5 -34t-45 -18t-78.5 -5q-50 0 -82.5 2.5
t-52 11.5t-27.5 27.5t-8 50.5v35h-144zM337 809l178 108l-25 50l-153 -63l-154 63l-24 -50z" />
    <glyph glyph-name="scaron" unicode="&#x161;" horiz-adv-x="557" 
d="M507 382q0 55 -21 85t-53.5 44.5t-72.5 17t-79 2.5q-51 0 -94.5 -2.5t-75.5 -17t-50.5 -44t-18.5 -83.5q0 -50 8.5 -81.5t33 -49t69.5 -24.5t117 -8q48 -1 74 -5.5t38.5 -13.5t15 -22t2.5 -30q0 -27 -8 -41.5t-23.5 -20.5t-37.5 -7t-50 -1q-35 0 -56.5 2.5t-34 11.5
t-17 25.5t-5.5 45.5h-126q0 -64 17 -99t48.5 -51t75.5 -18.5t98 -2.5q50 0 94.5 4.5t78 20.5t53 47t19.5 84q0 64 -19 97t-51.5 48t-75 17.5t-88.5 4.5q-41 2 -65.5 4t-37.5 8t-17 16.5t-4 30.5q0 26 8 40t23 20.5t36 7.5t46 1t44 -1t31.5 -7t18.5 -18.5t6 -36.5h126z
M279 584l178 108l-25 50l-153 -63l-154 63l-24 -50z" />
    <glyph glyph-name="Ydieresis" unicode="&#x178;" horiz-adv-x="670" 
d="M681 750h-166l-181 -320h-3l-178 320h-164l271 -462v-288h144v288zM184 920v-88h99v88h-99zM388 920v-88h99v88h-99z" />
    <glyph glyph-name="florin" unicode="&#x192;" 
d="M627 756q-69 0 -117 -2t-81 -19t-53 -55.5t-32 -110.5l-15 -83h-90l-16 -96h90l-78 -438q-6 -33 -12 -51t-19.5 -26.5t-38.5 -10t-70 -1.5l-17 -96q67 0 115.5 2.5t82.5 17.5t55 48t32 93l82 462h118l16 96h-118l15 83q6 34 15 52.5t24.5 27t38.5 10t56 1.5z" />
    <glyph glyph-name="circumflex" unicode="&#x2c6;" horiz-adv-x="506" 
d="M253 742l-178 -108l24 -50l154 63l153 -63l25 50z" />
    <glyph glyph-name="caron" unicode="&#x2c7;" horiz-adv-x="506" 
d="M253 584l178 108l-25 50l-153 -63l-154 63l-24 -50z" />
    <glyph glyph-name="breve" unicode="&#x2d8;" horiz-adv-x="489" 
d="M75 728q2 -33 16.5 -62t37 -51t52.5 -34.5t64 -12.5q33 0 63 12.5t52.5 34.5t37 51t16.5 62h-66q-6 -38 -35.5 -62t-67.5 -24t-68 24t-36 62h-66z" />
    <glyph glyph-name="dotaccent" unicode="&#x2d9;" horiz-adv-x="249" 
d="M174 695h-99v-88h99v88z" />
    <glyph glyph-name="ring" unicode="&#x2da;" horiz-adv-x="334" 
d="M75 656q0 -19 7 -35.5t19.5 -29t29.5 -20t36 -7.5t36 7.5t29.5 20t19.5 29t7 35.5t-7 36t-19.5 29.5t-29.5 19.5t-36 7t-36 -7t-29.5 -19.5t-19.5 -29.5t-7 -36zM120 656q0 20 13.5 33.5t33.5 13.5t33.5 -13.5t13.5 -33.5t-13.5 -33.5t-33.5 -13.5t-33.5 13.5t-13.5 33.5
z" />
    <glyph glyph-name="ogonek" unicode="&#x2db;" horiz-adv-x="313" 
d="M151 4q-31 -20 -53.5 -46t-22.5 -64q0 -22 9 -38.5t24 -28t34 -17t39 -5.5q14 0 28 3t28 8v65q-13 -6 -23.5 -9t-24.5 -3q-19 0 -33.5 10t-14.5 30q0 13 10 25.5t24.5 24t31.5 21.5t31 16v8h-87z" />
    <glyph glyph-name="tilde" unicode="&#x2dc;" horiz-adv-x="537" 
d="M400 704q-9 -16 -22.5 -30.5t-33.5 -14.5q-15 0 -33.5 9t-39 19.5t-41 19.5t-40.5 9q-42 0 -69 -25.5t-46 -59.5l64 -35q9 17 20.5 29.5t33.5 12.5q15 0 33 -8.5t37.5 -19t40 -19t42.5 -8.5q43 0 69.5 26t46.5 61z" />
    <glyph glyph-name="hungarumlaut" unicode="&#x2dd;" horiz-adv-x="538" 
d="M201 761l-126 -170l43 -39l153 146zM392 761l-126 -170l44 -39l153 146z" />
    <glyph glyph-name="Delta" unicode="&#x394;" horiz-adv-x="706" 
d="M695 0l-277 712h-149l-258 -712h684zM501 129h-303l146 427z" />
    <glyph glyph-name="Omega" unicode="&#x3a9;" horiz-adv-x="770" 
d="M715 412q0 72 -26 129t-71 97t-105.5 61.5t-129.5 21.5t-130 -21.5t-106 -62t-71.5 -98t-26.5 -129.5q0 -43 11 -84.5t33.5 -76t55 -59.5t76.5 -37v-30h-176v-123h289v208q-35 7 -60.5 24t-42.5 42t-25.5 55.5t-8.5 64.5q0 40 12.5 76.5t36.5 63.5t58 43t76 16t75 -15.5
t56.5 -42t35.5 -62t12 -75.5q0 -35 -8.5 -66t-25.5 -56.5t-43 -43t-62 -24.5v-208h290v123h-177v30q45 10 78 36t55.5 61t33.5 77t11 85z" />
    <glyph glyph-name="pi" unicode="&#x3c0;" horiz-adv-x="613" 
d="M589 18v98q-11 -5 -22 -8t-22 -3q-25 0 -31 14.5t-6 35.5v212h79v124h-587v-124h70v-367h134v367h170v-236q0 -31 5 -56.5t18 -44t35.5 -28.5t57.5 -10q29 0 51.5 6.5t47.5 19.5z" />
    <glyph glyph-name="endash" unicode="&#x2013;" horiz-adv-x="500" 
d="M0 324v-96h500v96h-500z" />
    <glyph glyph-name="emdash" unicode="&#x2014;" horiz-adv-x="1000" 
d="M0 324v-96h1000v96h-1000z" />
    <glyph glyph-name="quoteleft" unicode="&#x2018;" horiz-adv-x="232" 
d="M184 756h-25q-40 0 -62.5 -10.5t-33 -29t-13 -45t-2.5 -58.5v-118h126v135h-50q0 42 16 54.5t44 12.5v59z" />
    <glyph glyph-name="quoteright" unicode="&#x2019;" horiz-adv-x="232" 
d="M48 489h25q40 0 62.5 10t33 29t13 45.5t2.5 58.5v118h-126v-135h50q0 -42 -16 -54.5t-44 -12.5v-59z" />
    <glyph glyph-name="quotesinglbase" unicode="&#x201a;" horiz-adv-x="252" 
d="M46 -126h25q40 0 62.5 10t33 29t13 45.5t2.5 58.5v118h-126v-135h50q0 -42 -16 -54.5t-44 -12.5v-59z" />
    <glyph glyph-name="quotedblleft" unicode="&#x201c;" horiz-adv-x="424" 
d="M377 756h-25q-40 0 -62.5 -10.5t-33 -29t-13 -45t-2.5 -58.5v-118h126v135h-50q0 42 16 54.5t44 12.5v59zM184 756h-25q-40 0 -62.5 -10.5t-33 -29t-13 -45t-2.5 -58.5v-118h126v135h-50q0 42 16 54.5t44 12.5v59z" />
    <glyph glyph-name="quotedblright" unicode="&#x201d;" horiz-adv-x="424" 
d="M48 489h25q40 0 62.5 10t33 29t13 45.5t2.5 58.5v118h-126v-135h50q0 -42 -16 -54.5t-44 -12.5v-59zM241 489h25q40 0 62.5 10t33 29t13 45.5t2.5 58.5v118h-126v-135h50q0 -42 -16 -54.5t-44 -12.5v-59z" />
    <glyph glyph-name="quotedblbase" unicode="&#x201e;" horiz-adv-x="424" 
d="M46 -126h25q40 0 62.5 10t33 29t13 45.5t2.5 58.5v118h-126v-135h50q0 -42 -16 -54.5t-44 -12.5v-59zM237 -126h25q40 0 62.5 10t33 29t13 45.5t2.5 58.5v118h-126v-135h50q0 -42 -16 -54.5t-44 -12.5v-59z" />
    <glyph glyph-name="dagger" unicode="&#x2020;" 
d="M420 750h-136v-221h-192v-109h192v-647h136v647h193v109h-193v221z" />
    <glyph glyph-name="daggerdbl" unicode="&#x2021;" 
d="M420 750h-136v-236h-192v-109h192v-276h-192v-109h192v-247h136v247h193v109h-193v276h193v109h-193v236z" />
    <glyph glyph-name="bullet" unicode="&#x2022;" horiz-adv-x="520" 
d="M448 375q0 39 -15 73t-40.5 59.5t-59.5 40.5t-73 15t-73.5 -15t-60 -40.5t-40 -59.5t-13.5 -73q0 -39 14.5 -73.5t40 -59.5t59.5 -39.5t73 -14.5t73 14.5t59.5 40t40.5 59.5t15 73z" />
    <glyph glyph-name="ellipsis" unicode="&#x2026;" horiz-adv-x="1000" 
d="M230 137h-126v-137h126v137zM563 137h-126v-137h126v137zM896 137h-126v-137h126v137z" />
    <glyph glyph-name="perthousand" unicode="&#x2030;" horiz-adv-x="1292" 
d="M1270 240q-1 45 -10.5 71.5t-29.5 41t-51 18.5t-75 4t-73.5 -4.5t-48.5 -18.5t-27.5 -41t-9.5 -72v-110q1 -45 9.5 -71.5t27.5 -41t49 -18.5t74 -4q43 0 74 4.5t51 18.5t29.5 41t10.5 72v110zM1185 141q0 -26 -4 -40.5t-13.5 -21.5t-25 -8t-38.5 -1t-37.5 1t-22.5 8
t-11 21.5t-3 40.5v93q0 24 3 37.5t11 19.5t22.5 7t37.5 1q25 0 41 -1t25 -7t12 -19.5t3 -37.5v-93zM741 750h-95l-474 -750h93zM883 240q-1 45 -10.5 71.5t-29.5 41t-51 18.5t-75 4t-73.5 -4.5t-48.5 -18.5t-27.5 -41t-9.5 -72v-110q1 -45 9.5 -71.5t27.5 -41t49 -18.5
t74 -4q43 0 74 4.5t51 18.5t29.5 41t10.5 72v110zM798 141q0 -26 -4 -40.5t-13.5 -21.5t-25 -8t-38.5 -1t-37.5 1t-22.5 8t-11 21.5t-3 40.5v93q0 24 3 37.5t11 19.5t22.5 7t37.5 1q25 0 41 -1t25 -7t12 -19.5t3 -37.5v-93zM347 621q-1 45 -10.5 71.5t-29.5 41t-51 18.5
t-75 4t-73.5 -4.5t-48.5 -18.5t-27.5 -41t-9.5 -72v-110q1 -45 9.5 -71.5t27.5 -41t49 -18.5t74 -4q43 0 74 4.5t51 18.5t29.5 41t10.5 72v110zM262 522q0 -26 -4 -40.5t-13.5 -21.5t-25 -8t-38.5 -1t-37.5 1t-22.5 8t-11 21.5t-3 40.5v93q0 24 3 37.5t11 19.5t22.5 7
t37.5 1q25 0 41 -1t25 -7t12 -19.5t3 -37.5v-93z" />
    <glyph glyph-name="guilsinglleft" unicode="&#x2039;" horiz-adv-x="325" 
d="M182 539l-131 -264l142 -262l81 51l-113 211l106 216z" />
    <glyph glyph-name="guilsinglright" unicode="&#x203a;" horiz-adv-x="325" 
d="M142 539l-85 -48l107 -216l-113 -211l80 -51l143 262z" />
    <glyph glyph-name="trademark" unicode="&#x2122;" horiz-adv-x="1000" 
d="M929 750h-142l-91 -239l-91 239h-142v-404h88v326h2l117 -326h52l117 326h2v-326h88v404zM414 750h-343v-78h123v-326h97v326h123v78z" />
    <glyph glyph-name="partialdiff" unicode="&#x2202;" horiz-adv-x="576" 
d="M533 359q0 67 -14 132t-46 116t-85.5 82.5t-131.5 31.5q-58 0 -101.5 -19t-86.5 -56l73 -83q26 23 55.5 38.5t65.5 15.5q40 0 66 -20.5t41 -51t21 -67t6 -68.5v-12q-30 23 -62.5 35t-70.5 12q-48 0 -89 -17.5t-70 -47.5t-45.5 -71t-16.5 -89q0 -52 17 -95t47.5 -73.5
t73 -47.5t94.5 -17q80 0 130.5 34t79 87.5t39 119.5t10.5 131zM394 269q1 -27 -5 -59t-20 -59t-37 -45.5t-56 -18.5q-27 0 -46 11t-31.5 28.5t-18.5 40t-6 46.5q0 25 7 49t20.5 42t34.5 29t49 11q32 0 60 -14.5t49 -37.5v-23z" />
    <glyph glyph-name="product" unicode="&#x220f;" horiz-adv-x="751" 
d="M697 -214v1000h-643v-1000h137v868h368v-868h138z" />
    <glyph glyph-name="summation" unicode="&#x2211;" horiz-adv-x="679" 
d="M651 -214v132h-445l278 375l-261 360h417v133h-600v-115l282 -379l-294 -391v-115h623z" />
    <glyph glyph-name="minus" unicode="&#x2212;" horiz-adv-x="584" 
d="M50 235h484v96h-484v-96z" />
    <glyph glyph-name="fraction" unicode="&#x2215;" horiz-adv-x="564" 
d="M567 750h-95l-474 -750h93z" />
    <glyph glyph-name="radical" unicode="&#x221a;" horiz-adv-x="578" 
d="M587 786h-144l-161 -788l-115 250l-176 -80l51 -108l55 25l145 -299h126z" />
    <glyph glyph-name="infinity" unicode="&#x221e;" horiz-adv-x="856" 
d="M811 270q0 42 -12.5 78.5t-36.5 63.5t-59 42t-79 15q-34 0 -61.5 -10t-51 -26.5t-44 -39t-39.5 -47.5q-20 25 -40 47.5t-43.5 39t-51 26t-61.5 9.5q-44 0 -79 -15t-59 -41.5t-36.5 -63t-12.5 -79.5t13 -80t38 -64t60.5 -42t79.5 -15q33 0 59.5 9t49.5 24.5t43 36.5t40 44
q19 -23 39.5 -44t44.5 -37t51.5 -25.5t59.5 -9.5q45 0 80 16t59 43.5t36.5 64.5t12.5 80zM698 268q0 -34 -19.5 -58t-55.5 -24q-20 0 -37.5 7t-33.5 18t-29.5 25.5t-24.5 28.5q10 13 24 28t29.5 27.5t33 21t35.5 8.5q36 0 57 -23.5t21 -58.5zM358 265q-11 -14 -24.5 -27.5
t-29.5 -25t-33 -18.5t-36 -7q-36 0 -56.5 22.5t-20.5 57.5q0 33 20 57.5t55 24.5q18 0 35.5 -8t34 -20.5t30.5 -27.5t25 -28z" />
    <glyph glyph-name="integral" unicode="&#x222b;" horiz-adv-x="635" 
d="M528 699q0 22 -12 38t-30 26.5t-39.5 15.5t-39.5 5q-67 0 -103.5 -28.5t-53.5 -73t-20 -98t-3 -103.5v-449q0 -38 3.5 -74.5t3.5 -74.5q0 -10 -3 -23t-17 -13q-12 0 -15.5 14t-8 31.5t-15 31.5t-37.5 14q-26 0 -45 -14.5t-19 -42.5q0 -24 12 -41.5t30 -29.5t40 -17.5
t42 -5.5q68 0 104 32t51.5 80t17 104t1.5 105v414q0 41 -3.5 81t-3.5 81q0 4 0.5 11t2.5 13.5t5.5 11t10.5 4.5q12 0 16 -14t9.5 -31.5t17 -31.5t38.5 -14q29 0 46 19t17 47z" />
    <glyph glyph-name="approxequal" unicode="&#x2248;" horiz-adv-x="593" 
d="M573 479h-89q-2 -26 -17 -41.5t-41 -15.5q-30 0 -59.5 8.5t-59.5 19t-59.5 19.5t-59.5 9q-43 0 -73.5 -15.5t-50.5 -42t-30.5 -61t-12.5 -72.5h87q3 23 17.5 41.5t40.5 18.5t57.5 -9.5t64.5 -21.5t65.5 -21.5t60.5 -9.5q17 0 33.5 5.5t31.5 13.5q25 14 42 33t28 41.5
t16.5 48t7.5 52.5zM572 249h-89q-4 -23 -17 -41t-39 -18q-30 0 -62 9.5t-64.5 20.5t-64.5 20.5t-61 9.5q-38 0 -66.5 -18t-47.5 -46t-29 -62.5t-12 -67.5h87q4 23 18 41.5t40 18.5q24 0 56 -10t66 -22t68 -22t62 -10q40 0 68.5 18t47 46.5t27.5 63.5t12 69z" />
    <glyph glyph-name="notequal" unicode="&#x2260;" horiz-adv-x="593" 
d="M564 83v135h-218l50 100h168v135h-101l49 99l-118 58l-79 -157h-286v-135h219l-50 -100h-169v-135h102l-50 -100l119 -59l78 159h286z" />
    <glyph glyph-name="lessequal" unicode="&#x2264;" horiz-adv-x="593" 
d="M564 117v139l-348 96l348 88v140l-535 -162v-134zM564 -45v135h-535v-135h535z" />
    <glyph glyph-name="greaterequal" unicode="&#x2265;" horiz-adv-x="593" 
d="M564 284v134l-535 162v-140l347 -88l-347 -96v-139zM564 -45v135h-535v-135h535z" />
    <glyph glyph-name="lozenge" unicode="&#x25ca;" horiz-adv-x="593" 
d="M545 356l-188 391h-122l-187 -391l185 -391h124zM407 356l-111 -256l-110 256l110 255z" />
    <glyph glyph-name="apple" unicode="&#xf8ff;" horiz-adv-x="500" 
 />
    <glyph glyph-name="fi" unicode="&#xfb01;" horiz-adv-x="584" 
d="M528 750h-126v-107h126v107zM528 525h-126v-525h126v525zM338 750h-82q-52 0 -84.5 -10.5t-51 -32t-25.5 -55.5t-7 -81v-46h-74v-96h74v-429h126v429h128v96h-128v32q0 24 1.5 43t9.5 31t25.5 18t49.5 5h38v96z" />
    <glyph glyph-name="fl" unicode="&#xfb02;" horiz-adv-x="596" 
d="M532 750h-126v-750h126v750zM342 525h-128v32q0 24 1.5 43t9.5 31t25.5 18t49.5 5h38v96h-82q-52 0 -84.5 -10.5t-51 -32t-25.5 -55.5t-7 -81v-46h-74v-96h74v-429h126v429h128v96z" />
    </font>
</defs>
</svg>
