<?xml version="1.0" standalone="no"?>
<!DOCTYPE svg PUBLIC "-//W3C//DTD SVG 1.1//EN" "http://www.w3.org/Graphics/SVG/1.1/DTD/svg11.dtd" >
<svg xmlns="http://www.w3.org/2000/svg" xmlns:xlink="http://www.w3.org/1999/xlink" version="1.1">
<metadata>
Created by FontForge 20170731 at Mon Sep 24 18:41:23 2001
 By Aleksey,,,
Copyright (c) 1987, 1992, 1998 Adobe Systems Incorporated.  All Rights Reserved.Eurostile is a trademark of Nebiolo.
</metadata>
<defs>
<font id="EurostileLT" horiz-adv-x="690" >
  <font-face 
    font-family="Eurostile LT"
    font-weight="400"
    font-stretch="normal"
    units-per-em="1000"
    panose-1="2 0 6 3 4 0 0 2 0 4"
    ascent="800"
    descent="-200"
    x-height="525"
    cap-height="750"
    bbox="-67 -250 1260 968"
    underline-thickness="50"
    underline-position="-175"
    unicode-range="U+0020-FB02"
  />
<missing-glyph horiz-adv-x="345" 
 />
    <glyph glyph-name=".notdef" horiz-adv-x="345" 
 />
    <glyph glyph-name=".null" horiz-adv-x="0" 
 />
    <glyph glyph-name="nonmarkingreturn" horiz-adv-x="333" 
 />
    <glyph glyph-name="space" unicode=" " horiz-adv-x="345" 
 />
    <glyph glyph-name="exclam" unicode="!" horiz-adv-x="270" 
d="M182 102h-89v-102h89v102zM182 750h-89l8 -543h73z" />
    <glyph glyph-name="quotedbl" unicode="&#x22;" horiz-adv-x="355" 
d="M51 750v-111l27 -135h40l27 135v111h-94zM210 750v-111l27 -135h40l27 135v111h-94z" />
    <glyph glyph-name="numbersign" unicode="#" 
d="M273 750l-36 -204h-119v-80h105l-27 -163h-115v-80h100l-37 -223h75l40 223h123l-37 -223h76l38 223h117v80h-101l27 163h107v80h-92l35 204h-79l-35 -204h-124l36 204h-77zM301 466h123l-27 -163h-123z" />
    <glyph glyph-name="dollar" unicode="$" 
d="M313 416q-44 0 -79.5 1.5t-60.5 14t-38.5 40t-13.5 79.5q0 48 11.5 74.5t35 38.5t59.5 14t86 2v-264zM378 346q51 -2 88 -4t62 -14t37 -39.5t12 -81.5q0 -49 -10.5 -76.5t-33.5 -41t-61.5 -16.5t-93.5 -3v276zM378 680q57 0 92 -3t55 -14.5t27 -35t7 -64.5v-23h85v23
q0 67 -16.5 104.5t-49.5 56t-83 22.5t-117 4v70h-65v-70q-68 0 -119.5 -5.5t-86.5 -27t-53 -64t-18 -115.5q0 -70 21 -108.5t57.5 -57t87.5 -22.5t111 -4v-276q-72 0 -112 5t-59 20t-23 42t-4 70v26h-85v-26q0 -74 18 -115.5t54 -61.5t89 -25t122 -5v-85h65v85q74 0 128 7
t88.5 30t51 66t16.5 115q0 74 -22 114t-60.5 58t-90 21.5t-111.5 4.5v264z" />
    <glyph glyph-name="percent" unicode="%" horiz-adv-x="884" 
d="M862 240q-1 45 -10.5 71.5t-29.5 41t-51 18.5t-75 4t-73.5 -4.5t-48.5 -18.5t-27.5 -41t-9.5 -72v-110q1 -45 9.5 -71.5t27.5 -41t49 -18.5t74 -4q43 0 74 4.5t51 18.5t29.5 41t10.5 72v110zM731 750h-70l-506 -756h67zM802 132q0 -31 -5 -48t-17 -24.5t-32.5 -9
t-51.5 -1.5t-50 1.5t-30 9t-15 24.5t-4 48v110q0 29 4 44.5t15 23t30 9t50 1.5q33 0 53.5 -1.5t32.5 -9t16 -23t4 -44.5v-110zM347 621q-1 45 -10.5 71.5t-29.5 41t-51 18.5t-75 4t-73.5 -4.5t-48.5 -18.5t-27.5 -41t-9.5 -72v-110q1 -45 9.5 -71.5t27.5 -41t49 -18.5t74 -4
q43 0 74 4.5t51 18.5t29.5 41t10.5 72v110zM287 513q0 -31 -5 -48t-17 -24.5t-32.5 -9t-51.5 -1.5t-50 1.5t-30 9t-15 24.5t-4 48v110q0 29 4 44.5t15 23t30 9t50 1.5q33 0 53.5 -1.5t32.5 -9t16 -23t4 -44.5v-110z" />
    <glyph glyph-name="ampersand" unicode="&#x26;" horiz-adv-x="788" 
d="M563 144q-7 -31 -30 -46.5t-53.5 -22t-65.5 -6.5h-65q-66 0 -105.5 4t-60.5 19.5t-27.5 47t-6.5 86.5q0 45 3.5 71.5t16 43t36.5 26t65 18.5zM740 0l46 59l-136 108q5 26 7 52.5t2 52.5q0 15 -0.5 29.5t-1.5 29.5h-78q0 -13 1.5 -26t0.5 -26t-1.5 -25t-1.5 -25l-292 245
q-15 12 -25 22.5t-16 22.5t-8.5 26t-2.5 34q0 37 11.5 57.5t31 30.5t46 12t56.5 2q42 0 67 -4.5t38 -17t17.5 -34.5t4.5 -58v-47h85v47q0 59 -14 96t-41 57.5t-66.5 28t-90.5 7.5q-55 0 -98 -7t-72 -26t-44.5 -54t-15.5 -90q0 -32 3.5 -53t12 -37t21.5 -29.5t31 -28.5
q-36 -10 -64.5 -17.5t-48 -26.5t-30 -55.5t-10.5 -104.5q0 -88 21 -135.5t59 -69t90.5 -25t114.5 -3.5q45 0 88.5 1.5t80.5 10.5t66 29t45 57z" />
    <glyph glyph-name="quotesingle" unicode="'" horiz-adv-x="191" 
d="M49 750v-111l27 -135h40l27 135v111h-94z" />
    <glyph glyph-name="parenleft" unicode="(" horiz-adv-x="312" 
d="M250 756h-27q-56 0 -89 -19t-50.5 -51.5t-23 -75t-5.5 -89.5v-436q0 -47 5.5 -89.5t23 -75t50.5 -51.5t89 -19h27v75h-27q-31 0 -48 16.5t-24.5 41t-9 52t-1.5 50.5v436q0 22 1.5 50t9 52.5t24.5 41t48 16.5h27v75z" />
    <glyph glyph-name="parenright" unicode=")" horiz-adv-x="312" 
d="M62 681h27q31 0 48 -16.5t24.5 -41t9 -52.5t1.5 -50v-436q0 -23 -1.5 -50.5t-9 -52t-24.5 -41t-48 -16.5h-27v-75h27q55 0 88.5 19t51 51.5t23 75t5.5 89.5v436q0 47 -5.5 89.5t-23 75t-51 51.5t-88.5 19h-27v-75z" />
    <glyph glyph-name="asterisk" unicode="*" 
d="M545 589l-19 56l-153 -57v162h-55v-162l-154 57l-19 -54l153 -58l-96 -131l44 -33l100 135l93 -135l44 33l-92 131z" />
    <glyph glyph-name="plus" unicode="+" horiz-adv-x="584" 
d="M255 525v-204h-205v-75h205v-205h75v205h204v75h-204v204h-75z" />
    <glyph glyph-name="comma" unicode="," horiz-adv-x="345" 
d="M159 0v-19q0 -28 -11 -37.5t-38 -10.5v-45h23q25 0 40 7t23.5 19.5t11 29.5t2.5 37v121h-89v-102h38z" />
    <glyph glyph-name="hyphen" unicode="-" horiz-adv-x="261" 
d="M0 311v-75h261v75h-261z" />
    <glyph glyph-name="hyphen" unicode="&#xad;" horiz-adv-x="261" 
d="M0 311v-75h261v75h-261z" />
    <glyph glyph-name="period" unicode="." horiz-adv-x="345" 
d="M199 102h-89v-102h89v102z" />
    <glyph glyph-name="slash" unicode="/" horiz-adv-x="727" 
d="M699 750h-93l-578 -863h91z" />
    <glyph glyph-name="zero" unicode="0" 
d="M344 681q70 0 115.5 -3t72 -21.5t37 -58.5t10.5 -113v-220q0 -73 -10.5 -113t-37 -58.5t-72 -21.5t-115.5 -3q-69 0 -114 3t-71.5 21.5t-37 58.5t-10.5 113v220q0 73 10.5 113t37 58.5t71.5 21.5t114 3zM346 -6q87 0 147 8.5t97.5 37t54.5 82t19 143.5v220
q-2 90 -19.5 143.5t-55 82t-97.5 37t-148 8.5q-87 0 -147 -8.5t-97.5 -37t-54.5 -82t-19 -143.5v-220q2 -90 19.5 -143.5t55 -82t97.5 -37t148 -8.5z" />
    <glyph glyph-name="one" unicode="1" 
d="M448 750h-123l-207 -225l53 -51l192 211v-685h85v750z" />
    <glyph glyph-name="two" unicode="2" 
d="M612 75h-455v64q0 41 8.5 66.5t31 40t60.5 21.5t98 12q71 6 120.5 16t80 35t44.5 69.5t14 119.5q0 71 -13 117t-43 72.5t-80 37t-125 10.5q-98 0 -154 -12t-84 -38.5t-35.5 -69.5t-7.5 -104v-39h85v39q-1 52 4 81.5t25.5 44.5t59.5 19t107 4q53 0 87.5 -3.5t54 -19.5
t27 -48.5t7.5 -90.5q0 -59 -8 -89.5t-29.5 -45.5t-59 -19.5t-97.5 -10.5q-68 -7 -117.5 -16t-81.5 -31.5t-48 -64.5t-16 -115v-127h540v75z" />
    <glyph glyph-name="three" unicode="3" 
d="M275 347h89q40 0 71 -2t52.5 -13.5t32.5 -37t11 -73.5q0 -56 -7 -87t-28.5 -46t-62.5 -17.5t-109 -1.5q-60 1 -96 4t-55 15t-24.5 36.5t-5.5 68.5v50h-85v-50q-1 -66 16 -105t51 -60t84 -27.5t115 -6.5q67 0 121.5 2.5t92 22t58 64t20.5 129.5q0 41 -5.5 72t-21 52
t-42.5 33t-70 15v2q41 3 65.5 17t37.5 37.5t17 54t4 66.5q0 73 -19.5 112.5t-55 57.5t-85 21.5t-109.5 3.5q-65 0 -114.5 -5t-82.5 -25t-50 -61t-17 -113v-32h85v32q1 44 7.5 69.5t24 39t50 17t86.5 3.5q66 0 105 -3.5t59 -17.5t25.5 -41t5.5 -73q0 -48 -8.5 -73t-27 -36
t-47.5 -12.5t-69 -2.5h-89v-75z" />
    <glyph glyph-name="four" unicode="4" 
d="M537 750h-130l-377 -478v-101h422v-171h85v171h109v75h-109v504zM452 246h-352l350 449h2v-449z" />
    <glyph glyph-name="five" unicode="5" 
d="M166 675h425v75h-510v-380h85q5 30 25.5 44.5t47 19.5t55.5 4.5t52 -0.5q60 0 97.5 -5t58.5 -23.5t28 -54t7 -95.5q0 -62 -5 -99.5t-24.5 -57.5t-57.5 -27t-104 -7q-50 0 -86.5 2.5t-60 14t-34.5 36t-11 68.5v25h-86l1 -18q4 -68 19 -108.5t47.5 -61.5t83.5 -27t127 -6
q85 0 139 8.5t84.5 36.5t41.5 80.5t11 140.5q0 54 -6.5 100.5t-32 80t-75.5 53t-138 19.5q-24 0 -53.5 -1.5t-58 -7.5t-53 -18.5t-37.5 -34.5h-2v224z" />
    <glyph glyph-name="six" unicode="6" 
d="M363 389q60 0 95 -5t52.5 -21.5t22.5 -48.5t5 -85q0 -51 -4 -82t-23 -48.5t-57.5 -23.5t-108.5 -6q-67 0 -105.5 7t-58 27t-24.5 57.5t-5 98.5q0 45 10 71t34 39t64.5 16.5t102.5 3.5zM67 259q0 -87 14 -139.5t46.5 -80.5t85.5 -36.5t132 -8.5q80 0 133.5 8.5t85.5 33.5
t45.5 71t13.5 122q0 79 -14 125.5t-47 71t-86 31.5t-131 7q-86 0 -131.5 -17t-59.5 -52h-2v161q1 48 12.5 73.5t35.5 37t61 13t88 1.5q42 0 74 -1.5t54 -11t33 -30t11 -57.5v-21h85v24q0 65 -23 100t-59.5 51t-82.5 18.5t-92 2.5q-66 0 -118 -6t-88 -27t-55.5 -60.5
t-20.5 -106.5v-297z" />
    <glyph glyph-name="seven" unicode="7" 
d="M610 750h-547v-70h477l-394 -680h100l364 643v107z" />
    <glyph glyph-name="eight" unicode="8" 
d="M195 389q-45 -7 -71 -21t-39 -36.5t-16.5 -53.5t-3.5 -71q0 -81 18.5 -124t54.5 -63t88 -23t119 -3q82 0 136 6.5t86 28.5t45 64t13 114q0 45 -5.5 77t-20 53.5t-39.5 33.5t-63 18v1q41 7 64.5 21.5t35.5 36t15.5 50t3.5 64.5q0 70 -17 109.5t-51 58t-85 22.5t-118 4
q-69 0 -120 -4t-84.5 -23t-49.5 -58t-16 -109q0 -42 4.5 -71t17.5 -49t36.5 -32t61.5 -19v-2zM160 562q0 40 4.5 63.5t23.5 36t55.5 16t101.5 3.5t102 -4t56 -17t23.5 -36t4.5 -62q0 -44 -5 -71t-24 -42t-56 -20t-101 -5q-65 0 -102 5.5t-55.5 20.5t-23 42t-4.5 70zM150 207
q0 49 7 77.5t28 43t59 18t101 3.5q65 0 103.5 -4.5t59 -19.5t26.5 -43t6 -75q0 -43 -7 -70.5t-28 -43t-59 -20.5t-101 -4q-69 1 -108.5 5.5t-58.5 19t-23.5 41.5t-4.5 72z" />
    <glyph glyph-name="nine" unicode="9" 
d="M349 366q-62 0 -99.5 4t-58 19t-27.5 45.5t-7 83.5q0 59 6 92t25.5 48.5t57.5 19t103 3.5q56 0 93.5 -3t59.5 -18.5t31 -48.5t9 -93q0 -53 -6 -83.5t-26 -45.5t-58 -19t-103 -4zM63 163q0 -62 20 -96t57 -50.5t90 -19.5t119 -3q90 0 144.5 10.5t84.5 37t39.5 72.5
t9.5 117v287q0 77 -13.5 123.5t-46 72t-86 34t-132.5 8.5q-81 0 -134.5 -8t-85 -33.5t-44.5 -72.5t-13 -124q0 -75 14 -120t46.5 -68.5t85.5 -31t131 -7.5h37q27 0 57 6t57.5 20t39.5 41l2 -2v-125q0 -59 -8 -91.5t-29.5 -48t-59 -19t-96.5 -3.5q-62 0 -101.5 2.5t-61.5 12
t-30 28.5t-8 51v28h-85v-28z" />
    <glyph glyph-name="colon" unicode=":" horiz-adv-x="345" 
d="M199 102h-89v-102h89v102zM199 525h-89v-102h89v102z" />
    <glyph glyph-name="semicolon" unicode=";" horiz-adv-x="345" 
d="M159 0v-19q0 -28 -11 -37.5t-38 -10.5v-45h23q25 0 40 7t23.5 19.5t11 29.5t2.5 37v121h-89v-102h38zM210 525h-89v-102h89v102z" />
    <glyph glyph-name="semicolon" unicode="&#x37e;" horiz-adv-x="345" 
d="M159 0v-19q0 -28 -11 -37.5t-38 -10.5v-45h23q25 0 40 7t23.5 19.5t11 29.5t2.5 37v121h-89v-102h38zM210 525h-89v-102h89v102z" />
    <glyph glyph-name="less" unicode="&#x3c;" horiz-adv-x="584" 
d="M534 484l-484 -207v-70l484 -207v80l-395 162l395 162v80z" />
    <glyph glyph-name="equal" unicode="=" horiz-adv-x="584" 
d="M50 399v-75h484v75h-484zM50 244v-75h484v75h-484z" />
    <glyph glyph-name="greater" unicode="&#x3e;" horiz-adv-x="584" 
d="M534 277l-484 207v-80l391 -162l-391 -162v-80l484 207v70z" />
    <glyph glyph-name="question" unicode="?" horiz-adv-x="584" 
d="M299 214v27q0 22 3.5 35.5t14 22.5t29.5 16.5t51 18.5q45 16 71.5 35.5t39.5 46t16.5 61t3.5 79.5q0 61 -13 100t-40.5 61t-71.5 30.5t-105 8.5t-105.5 -5.5t-74 -26t-45 -60t-16.5 -108.5v-43h80v43q0 45 7.5 70t26 37t49.5 15t78 3q46 0 75.5 -4t46 -16.5t22.5 -37.5
t6 -67q0 -43 -3 -68t-13 -40t-28 -25t-49 -22q-43 -16 -70.5 -29t-43 -30t-21.5 -41t-6 -60v-27h85zM301 102h-89v-102h89v102z" />
    <glyph glyph-name="at" unicode="@" horiz-adv-x="990" 
d="M644 550l-18 -57h-2q-5 17 -16 31.5t-26.5 25t-33.5 16t-36 4.5q-45 -2 -83.5 -23t-67 -54t-45.5 -74.5t-20 -84.5q-1 -32 8.5 -62.5t28 -54t45.5 -37.5t62 -12q40 0 66.5 18.5t52.5 44.5q3 -19 12.5 -31.5t23 -20t29.5 -10.5t33 -3q55 0 98.5 26.5t73.5 68.5t45.5 94
t15.5 102q0 72 -35 127.5t-90 94t-123 58t-133 19.5q-80 0 -153 -32.5t-129 -88t-90 -129t-37 -154.5q-1 -82 31.5 -148.5t87.5 -113.5t127 -72t149 -24q50 1 98 10.5t93 26.5l-25 58q-34 -11 -77 -20t-91 -10q-62 0 -118.5 21t-100 58.5t-70 90t-29.5 115.5
q-2 67 25.5 129.5t74 110.5t107.5 77.5t128 29.5q54 0 109 -16.5t99.5 -48t73 -76t28.5 -100.5q0 -35 -8.5 -74t-26 -72.5t-44 -55.5t-61.5 -22q-68 0 -54 44l89 280h-71zM594 445q2 -26 -6 -63.5t-25.5 -72.5t-43 -60t-58.5 -25q-21 0 -37.5 10t-28.5 25.5t-18 34.5t-6 37
q1 29 12 60.5t29.5 58t45 43.5t59.5 17q30 0 52 -16.5t25 -48.5z" />
    <glyph glyph-name="A" unicode="A" horiz-adv-x="685" 
d="M532 159l59 -159h88l-280 750h-120l-273 -750h89l58 159h379zM508 229h-332l165 451z" />
    <glyph glyph-name="B" unicode="B" horiz-adv-x="694" 
d="M146 348h279q42 1 67 -8t38.5 -27.5t17.5 -46.5t4 -65q0 -43 -8.5 -68t-25.5 -38t-43 -16.5t-60 -3.5h-269v273zM460 0q95 0 136 54t41 155q0 35 -4 65.5t-16.5 54.5t-35.5 40t-60 23v2q29 10 47.5 24.5t29 34.5t14 44.5t3.5 54.5q0 49 -7.5 86t-27 62t-53 37.5
t-86.5 12.5h-380v-750h399zM146 675h256q33 0 57.5 -3.5t40 -15t23 -33.5t7.5 -60q0 -44 -7 -71.5t-23 -42.5t-42.5 -20.5t-64.5 -5.5h-247v252z" />
    <glyph glyph-name="C" unicode="C" horiz-adv-x="665" 
d="M383 -6q56 0 104 5.5t82.5 25.5t54 57.5t19.5 102.5v70h-85v-60q0 -40 -8.5 -65t-29.5 -38.5t-55 -18t-85 -4.5h-101q-53 0 -83 14.5t-44.5 45t-18 77.5t-3.5 111v206q0 51 12.5 82.5t40.5 48t73.5 22t111.5 5.5h48q41 0 67 -7.5t40.5 -25t19.5 -45t5 -66.5v-21h85v24
q0 55 -10 96t-33.5 67.5t-63 39.5t-98.5 13h-70q-68 0 -125.5 -7t-99 -31.5t-65 -71.5t-23.5 -126v-290q0 -113 57.5 -174.5t160.5 -61.5h120z" />
    <glyph glyph-name="D" unicode="D" horiz-adv-x="734" 
d="M64 0h385q56 0 95.5 15.5t66 41t41.5 57t22.5 62.5t9.5 59t2 47v179q0 69 -12.5 117.5t-33.5 80.5t-48 50.5t-55.5 27.5t-56.5 11t-51 2h-365v-750zM149 75v600h294q54 0 85 -22.5t47.5 -52.5t21 -60t4.5 -46v-197q-1 -50 -7 -91t-24 -70t-51.5 -45t-89.5 -16h-280z" />
    <glyph glyph-name="E" unicode="E" horiz-adv-x="560" 
d="M126 675h397v75h-482v-750h482v75h-397v275h380v70h-380v255z" />
    <glyph glyph-name="F" unicode="F" horiz-adv-x="549" 
d="M150 675h375v75h-460v-750h85v343h365v70h-365v262z" />
    <glyph glyph-name="G" unicode="G" horiz-adv-x="696" 
d="M339 375v-75h239v-93q0 -45 -7.5 -72t-27.5 -42t-55 -19.5t-91 -4.5h-80q-53 0 -88.5 7t-58 26.5t-32 53.5t-9.5 88v241q0 61 6.5 99.5t26 60t56 29t97.5 7.5h105q46 0 76 -4.5t48 -16.5t25 -33t7 -53v-43h85v58q0 45 -15.5 77t-42.5 52t-63.5 29t-78.5 9h-197
q-48 0 -88.5 -12t-69.5 -42t-45.5 -80.5t-16.5 -126.5v-232q0 -87 17 -140t52 -81.5t89.5 -38t129.5 -9.5h82q64 0 110.5 9.5t77.5 33.5t46 66.5t15 108.5v163h-324z" />
    <glyph glyph-name="H" unicode="H" horiz-adv-x="750" 
d="M680 750h-85v-330h-439v330h-85v-750h85v345h439v-345h85v750z" />
    <glyph glyph-name="I" unicode="I" horiz-adv-x="228" 
d="M157 750h-85v-750h85v750z" />
    <glyph glyph-name="J" unicode="J" horiz-adv-x="565" 
d="M409 750l-1 -581q0 -38 -14 -58t-36.5 -29.5t-50.5 -11t-57 -1.5q-45 0 -72 5.5t-41 19t-18.5 36.5t-4.5 58v85h-85v-110q0 -56 18.5 -89t50.5 -51t75 -23.5t92 -5.5q50 0 92 8t72 29t47 57.5t17 92.5v569h-84z" />
    <glyph glyph-name="K" unicode="K" horiz-adv-x="678" 
d="M157 750h-85v-750h85v347h74l343 -347h115l-384 387l343 363h-111l-306 -328h-74v328z" />
    <glyph glyph-name="L" unicode="L" horiz-adv-x="558" 
d="M160 750h-85v-750h467v75h-382v675z" />
    <glyph glyph-name="M" unicode="M" horiz-adv-x="965" 
d="M808 686h2v-686h85v750h-147l-266 -642l-265 642h-147v-750h85v686h2l284 -686h84z" />
    <glyph glyph-name="N" unicode="N" horiz-adv-x="783" 
d="M715 750h-85v-685h-2l-420 685h-140v-750h85v680h2l421 -680h139v750z" />
    <glyph glyph-name="O" unicode="O" horiz-adv-x="671" 
d="M285 756q-70 -1 -117 -14t-75 -42.5t-40 -77.5t-12 -118v-267q0 -66 13 -112.5t41.5 -75.5t75 -42t114.5 -13h101q67 0 114 13t75.5 42t41.5 75.5t13 112.5v267q0 70 -12 118t-40 77.5t-75 42.5t-117 14h-101zM386 681q47 0 78 -7t49 -26.5t25 -54t7 -89.5v-267
q0 -56 -9.5 -89t-29 -50.5t-49.5 -23t-71 -5.5h-101q-41 0 -71 5.5t-49.5 23t-29 50.5t-9.5 89v267q0 55 7 89.5t25 54t49 26.5t78 7h101z" />
    <glyph glyph-name="P" unicode="P" horiz-adv-x="661" 
d="M59 0h85v292h293q45 0 76.5 12.5t52 32.5t31.5 45.5t16 51t6 49t1 40.5q0 48 -7.5 89.5t-27.5 72t-55 48t-89 17.5h-382v-750zM404 675q39 0 64.5 -5t40.5 -22.5t20.5 -49.5t5.5 -86q0 -55 -11 -84.5t-32.5 -43t-53.5 -15.5t-74 -2h-220v308h260z" />
    <glyph glyph-name="Q" unicode="Q" horiz-adv-x="737" 
d="M734 92l-63 42q11 31 13.5 65.5t2.5 81.5v212q0 73 -14 123.5t-44.5 81.5t-80.5 44.5t-122 13.5h-117q-71 -2 -120 -17.5t-80 -47t-45 -80.5t-14 -118v-212q0 -76 10.5 -130t39 -89t79 -51.5t130.5 -16.5h117q69 0 124.5 16.5t92.5 61.5l56 -38zM380 326l-39 -58
l234 -152q-9 -14 -24 -23t-32.5 -14t-37 -7.5t-38.5 -2.5h-143q-48 0 -79.5 7.5t-50.5 29t-27 60t-8 100.5v244q0 47 8 79.5t27 53t50.5 29.5t79.5 9h143q51 0 82 -12t48 -33t23 -50.5t6 -63.5v-279q0 -13 -0.5 -30t-5.5 -29z" />
    <glyph glyph-name="R" unicode="R" horiz-adv-x="701" 
d="M154 300h273q39 0 63.5 -8.5t38.5 -26t19 -44t5 -62.5v-159h85v199q0 61 -29 95.5t-92 39.5v2q45 6 71 22.5t39.5 42.5t17 60t3.5 73q0 64 -13.5 106t-42 66.5t-72.5 34t-105 9.5h-346v-750h85v300zM154 375v300h262q50 0 79.5 -7t44.5 -23t19 -41t4 -61
q0 -47 -4.5 -78.5t-20 -51t-44.5 -28.5t-78 -10h-262z" />
    <glyph glyph-name="S" unicode="S" horiz-adv-x="629" 
d="M311 346q51 -4 89 -5t63 -10.5t37 -35t12 -79.5q0 -55 -9.5 -85t-32.5 -43.5t-62.5 -16t-99.5 -2.5t-97 2.5t-58 18t-28 49t-6 95.5h-85q-6 -81 9 -129t50 -72.5t89 -31.5t126 -7q71 0 125 4.5t90.5 25.5t55 65t18.5 124q0 76 -17 116.5t-50.5 59.5t-83.5 23.5t-117 8.5
q-53 1 -92 2.5t-64.5 13t-38.5 38.5t-13 81q0 39 6 63.5t26 38t57.5 18.5t99.5 5q60 0 96 -3t56 -16t27 -40.5t9 -76.5h85q3 76 -16 119t-55 63t-87 24.5t-112 4.5q-69 0 -121 -6t-86.5 -28t-52 -65.5t-17.5 -118.5q0 -74 22 -111.5t60 -54t87.5 -19.5t105.5 -7z" />
    <glyph glyph-name="T" unicode="T" horiz-adv-x="579" 
d="M332 675h243v75h-571v-75h243v-675h85v675z" />
    <glyph glyph-name="U" unicode="U" horiz-adv-x="737" 
d="M581 750v-540q0 -53 -12 -81.5t-37.5 -41.5t-65.5 -15.5t-97 -2.5q-69 0 -110.5 5t-64 20t-30 42.5t-7.5 73.5v540h-85v-540q0 -80 23.5 -123.5t63.5 -64t94 -24.5t116 -4q66 0 121 5.5t94 27t60.5 65t21.5 118.5v540h-85z" />
    <glyph glyph-name="V" unicode="V" horiz-adv-x="643" 
d="M558 750l-234 -685h-3l-236 685h-91l268 -750h121l266 750h-91z" />
    <glyph glyph-name="W" unicode="W" horiz-adv-x="1123" 
d="M1121 750h-88l-209 -685h-2l-200 685h-125l-202 -685h-2l-204 685h-87l230 -750h127l199 675h2l196 -675h129z" />
    <glyph glyph-name="X" unicode="X" horiz-adv-x="653" 
d="M641 750h-100l-210 -321l-213 321h-102l246 -362l-268 -388h104l233 345l228 -345h100l-258 388z" />
    <glyph glyph-name="Y" unicode="Y" horiz-adv-x="632" 
d="M638 750h-101l-222 -351l-222 351h-99l275 -437v-313h85v313z" />
    <glyph glyph-name="Z" unicode="Z" horiz-adv-x="637" 
d="M601 750h-561v-75h457l-471 -601v-74h585v75h-482l472 596v79z" />
    <glyph glyph-name="bracketleft" unicode="[" horiz-adv-x="311" 
d="M55 756v-906h194v75h-109v756h109v75h-194z" />
    <glyph glyph-name="backslash" unicode="\" horiz-adv-x="278" 
d="M237 -113h91l-285 863h-93z" />
    <glyph glyph-name="bracketright" unicode="]" horiz-adv-x="311" 
d="M256 -150v906h-194v-75h109v-756h-109v-75h194z" />
    <glyph glyph-name="asciicircum" unicode="^" horiz-adv-x="584" 
d="M257 750l-207 -489h80l162 391l162 -391h80l-207 489h-70z" />
    <glyph glyph-name="underscore" unicode="_" horiz-adv-x="500" 
d="M500 -75h-500v-50h500v50z" />
    <glyph glyph-name="grave" unicode="`" horiz-adv-x="338" 
d="M115 743l-40 -54l162 -100l26 41z" />
    <glyph glyph-name="a" unicode="a" horiz-adv-x="570" 
d="M263 58q-34 0 -59 2.5t-41 12.5t-24 31t-8 59q0 32 7.5 50t23.5 27t41 11.5t60 2.5q37 0 67 -1.5t50 -10.5t31 -29t11 -57q0 -36 -13.5 -56t-36 -29t-51 -11t-58.5 -2zM503 0v358q0 60 -17 94.5t-47.5 52t-72.5 22t-91 4.5q-44 0 -82 -3t-66.5 -17.5t-45 -43t-16.5 -79.5
v-11h82v18q0 27 12.5 41.5t32.5 21.5t44.5 8t47.5 1q33 0 59 -3t44 -13.5t27.5 -31.5t9.5 -57v-97h-5q-4 18 -23 28.5t-44 16t-52 7t-46 1.5q-49 0 -87 -5.5t-64.5 -22.5t-40 -50t-13.5 -87q0 -51 14.5 -82.5t41 -48.5t63.5 -22.5t81 -5.5q25 0 51 1t49 7t42.5 18.5
t30.5 35.5l2 -2v-54h79z" />
    <glyph glyph-name="b" unicode="b" horiz-adv-x="574" 
d="M441 262q0 -54 -3 -92.5t-17 -63.5t-43.5 -36.5t-81.5 -11.5q-44 0 -72 8t-45 30.5t-23.5 62t-6.5 103.5q0 56 3.5 95t18 63.5t44 35.5t81.5 11q47 0 75.5 -8t44 -30t20.5 -62.5t5 -104.5zM68 0h79v62l2 2q11 -21 28.5 -35t40 -21.5t48 -10.5t52.5 -3q68 0 108.5 18
t62 52t28 84t6.5 114q0 61 -6.5 111t-28 85t-62 54t-108.5 19q-23 0 -48.5 -2t-49.5 -9.5t-43 -22.5t-28 -40h-2v293h-79v-750z" />
    <glyph glyph-name="c" unicode="c" horiz-adv-x="546" 
d="M426 190v-26q0 -36 -7 -57t-23 -32t-42 -14t-63 -3q-58 0 -90 9.5t-47.5 31.5t-19 59t-3.5 93q0 63 2.5 104.5t16.5 66.5t42.5 35t81.5 10q34 0 60.5 -2t45 -11t28 -28.5t9.5 -55.5v-16h79v14q0 56 -17.5 88.5t-48.5 49t-72 21t-89 4.5q-71 0 -114.5 -16.5t-67 -48.5
t-31 -80.5t-7.5 -112.5q0 -73 5.5 -126t29 -87t70 -50t128.5 -16q47 0 87.5 5.5t70.5 22.5t47.5 50t17.5 89v29h-79z" />
    <glyph glyph-name="d" unicode="d" horiz-adv-x="574" 
d="M280 58q-42 0 -71 6.5t-46 27.5t-24.5 61.5t-7.5 108.5q0 69 6.5 109.5t23 62t45.5 27.5t74 6q48 0 77 -12t44.5 -36.5t20 -63.5t4.5 -93q0 -61 -5.5 -100.5t-21.5 -62.5t-44.5 -32t-74.5 -9zM426 0h79v750h-79v-290h-2q-9 24 -28 38t-43 21.5t-50 9.5t-48 2
q-71 0 -112 -20t-62 -55.5t-26.5 -85t-5.5 -108.5q0 -60 6 -109.5t27 -84.5t62 -54.5t111 -19.5q27 0 52 2.5t47.5 10.5t40 22.5t29.5 38.5l2 -2v-66z" />
    <glyph glyph-name="e" unicode="e" horiz-adv-x="565" 
d="M431 159v-20q0 -28 -7 -44t-24 -24.5t-44.5 -10.5t-67.5 -2q-53 0 -84 6t-46.5 25.5t-19.5 56.5t-4 99h378v53q0 73 -11 118.5t-37 71t-69 34.5t-107 9q-71 0 -116.5 -11.5t-72 -41.5t-37 -82t-10.5 -134q0 -75 8 -126.5t33 -83t71.5 -45t123.5 -13.5q44 0 84.5 3.5
t71.5 17.5t49.5 43.5t18.5 81.5v19h-81zM134 309q2 45 6.5 75.5t19.5 49t44.5 26t83.5 7.5q45 0 72 -3.5t42 -19.5t20.5 -47.5t7.5 -87.5h-296z" />
    <glyph glyph-name="f" unicode="f" horiz-adv-x="302" 
d="M167 525v71q0 26 3 44.5t12.5 30t27 16.5t47.5 5q12 0 24.5 -0.5t24.5 -1.5v64q-12 1 -24.5 1.5t-24.5 0.5q-48 0 -80.5 -8.5t-52 -28t-28 -51.5t-8.5 -80v-63h-80v-64h80v-461h79v461h139v64h-139z" />
    <glyph glyph-name="g" unicode="g" horiz-adv-x="573" 
d="M277 58q-57 0 -87 14t-42.5 40.5t-13.5 64.5t-1 85q0 52 2 90.5t15.5 64t42.5 38t84 12.5q53 0 83.5 -11.5t45.5 -36.5t19 -63.5t4 -93.5q0 -44 -2.5 -81.5t-16.5 -64.5t-45 -42.5t-88 -15.5zM508 525h-79v-66l-2 -1q-12 24 -29.5 38t-39.5 22t-47.5 10.5t-52.5 2.5
q-68 0 -108.5 -17.5t-62.5 -51.5t-29 -84t-7 -116q0 -68 8.5 -118t31.5 -83.5t63 -50t104 -16.5q23 0 49.5 2t50 9.5t42.5 21.5t27 38h2v-121q0 -39 -11 -61.5t-30.5 -34t-47.5 -14.5t-63 -3q-31 0 -55.5 2.5t-41 13t-25.5 32t-9 59.5h-79q-3 -57 12.5 -91t44 -51.5t68 -23
t85.5 -5.5q48 0 90 7t73.5 26t49.5 52t18 86v587z" />
    <glyph glyph-name="h" unicode="h" horiz-adv-x="580" 
d="M148 750h-79v-750h79v306q0 45 6.5 76t23.5 50t48 27t79 8q33 0 57 -4t39.5 -16t22.5 -34t7 -58v-355h79v349q1 55 -11 90t-36.5 55.5t-62 28.5t-88.5 8q-23 0 -47.5 -2t-47 -9.5t-40.5 -21t-27 -37.5h-2v289z" />
    <glyph glyph-name="i" unicode="i" horiz-adv-x="215" 
d="M147 525h-79v-525h79v525zM147 750h-79v-87h79v87z" />
    <glyph glyph-name="j" unicode="j" horiz-adv-x="209" 
d="M147 525h-79v-562v-38t-4.5 -34.5t-16.5 -25t-36 -9.5q-4 0 -8 0.5t-8 0.5v-61q22 -5 39 -5q37 0 58.5 11.5t33.5 31t16 46.5t5 57v588zM147 750h-79v-87h79v87z" />
    <glyph glyph-name="k" unicode="k" horiz-adv-x="487" 
d="M147 750h-79v-750h79v252h32l223 -252h104l-266 284l225 241h-97l-189 -209h-32v434z" />
    <glyph glyph-name="l" unicode="l" horiz-adv-x="214" 
d="M147 750h-79v-750h79v750z" />
    <glyph glyph-name="m" unicode="m" horiz-adv-x="919" 
d="M145 525h-79v-525h79v316q0 81 40 116t118 35q43 0 66 -8t34 -23t13.5 -36.5t3.5 -47.5v-352h79v322q0 42 9 70t28.5 44.5t50 23.5t72.5 7q38 0 61 -7.5t35 -23.5t15.5 -40.5t3.5 -57.5v-338h79v346q0 97 -40.5 141t-141.5 44q-27 0 -54.5 -4t-52.5 -13.5t-46 -26.5
t-34 -43q-7 26 -24 43t-40 26.5t-48.5 13.5t-49.5 4q-25 0 -51.5 -4t-50.5 -14t-43.5 -27t-29.5 -42h-2v81z" />
    <glyph glyph-name="n" unicode="n" horiz-adv-x="580" 
d="M148 525h-79v-525h79v306q0 45 6.5 76t23.5 50t48 27t79 8q33 0 57 -4t39.5 -16t22.5 -34t7 -58v-355h79v349q1 55 -11 90t-36.5 55.5t-62 28.5t-88.5 8q-23 0 -47.5 -2t-47 -9.5t-40.5 -21t-27 -37.5h-2v64z" />
    <glyph glyph-name="o" unicode="o" horiz-adv-x="570" 
d="M52 262q0 -83 9 -135t34.5 -81.5t71 -40.5t118.5 -11t118.5 11t71 40.5t34.5 81.5t9 135t-9 135.5t-34.5 82t-71 40.5t-118.5 11t-118.5 -11t-71 -40.5t-34.5 -82t-9 -135.5zM134 262q0 69 4 109.5t19 61.5t45 27.5t83 6.5t83 -6.5t45 -27.5t19 -61.5t4 -109.5
q0 -68 -4 -108.5t-19 -61.5t-45 -27.5t-83 -6.5t-83 6.5t-45 27.5t-19 61.5t-4 108.5z" />
    <glyph glyph-name="p" unicode="p" horiz-adv-x="573" 
d="M294 467q50 0 79 -10t43.5 -33.5t18.5 -63t4 -98.5q0 -64 -5.5 -103.5t-21.5 -62t-44 -30.5t-74 -8q-53 0 -83 14.5t-44.5 41t-18 64t-3.5 84.5q0 52 2.5 90.5t16.5 64t44 38t86 12.5zM145 525h-79v-752h79v289h2q11 -23 30.5 -36.5t42.5 -20.5t48 -9t48 -2q58 0 97 12.5
t63 43.5t34.5 82.5t10.5 129.5q0 59 -5 108.5t-25.5 85t-61.5 55.5t-113 20q-25 0 -50 -3t-47.5 -10.5t-41 -22t-30.5 -36.5l-2 2v64z" />
    <glyph glyph-name="q" unicode="q" horiz-adv-x="575" 
d="M284 58q-55 0 -85.5 11t-44.5 35.5t-17 63.5t-3 94q0 68 6.5 108.5t22.5 62t42.5 28t66.5 6.5q56 0 87.5 -11.5t46.5 -36t18 -63.5t3 -94q0 -51 -3.5 -89.5t-18 -64t-43 -38t-78.5 -12.5zM508 525h-79v-63l-2 -2q-22 42 -64.5 56.5t-89.5 14.5q-75 0 -118.5 -18
t-66.5 -52t-29.5 -84.5t-6.5 -114.5q0 -85 12 -137.5t38.5 -81.5t68.5 -39t102 -10q19 0 41.5 2t44.5 8.5t40 19.5t28 36h2v-287h79v752z" />
    <glyph glyph-name="r" unicode="r" horiz-adv-x="442" 
d="M58 525v-525h79v327q-1 35 5 61t21 43.5t40 26.5t62 9q50 0 69 -19t19 -68v-35h75v38q0 74 -35 111t-111 37q-22 0 -44.5 -3.5t-42 -11.5t-36 -22t-26.5 -36l-2 2l4 65h-77z" />
    <glyph glyph-name="s" unicode="s" horiz-adv-x="537" 
d="M484 408q0 45 -19 69.5t-49 36.5t-66.5 14.5t-70.5 2.5q-53 0 -95.5 -3t-72 -17.5t-45.5 -46t-16 -88.5q0 -56 19.5 -84.5t52 -41t73.5 -14.5t84 -5q36 -2 62 -2t42.5 -6.5t24.5 -23.5t8 -54q0 -35 -14 -52t-34.5 -23.5t-44.5 -6t-44 0.5q-45 0 -74 2.5t-46.5 9t-24 18.5
t-6.5 31v41h-82v-49q0 -44 20.5 -68.5t53.5 -36.5t74.5 -15t84.5 -3q44 0 83.5 3t69.5 18t48 46t18 87q0 64 -21.5 95.5t-57 44.5t-82 14t-97.5 4q-31 1 -51.5 2.5t-33 9.5t-18 26t-5.5 53q0 24 9 37t27.5 19t46 7t64.5 1q31 0 54 -1t38.5 -6t23 -15.5t7.5 -30.5v-20h82v20z
" />
    <glyph glyph-name="t" unicode="t" horiz-adv-x="366" 
d="M346 525h-203v127h-79v-127h-70v-64h70v-309q0 -46 6.5 -76.5t23 -48.5t46 -25.5t75.5 -7.5q81 0 116 37.5t35 115.5v39h-75v-39q0 -19 -1 -35t-8 -28t-22 -19t-43 -7q-22 0 -36 3t-22.5 10.5t-12 21.5t-3.5 35v333h203v64z" />
    <glyph glyph-name="u" unicode="u" horiz-adv-x="570" 
d="M420 0h80v525h-79v-324q0 -47 -10.5 -75t-31.5 -43t-52.5 -20t-73.5 -5q-38 0 -60 8.5t-32.5 25t-13 40.5t-2.5 56v337h-79v-337q0 -52 10 -88.5t32 -60t58 -34.5t88 -11q26 0 51 3t46.5 11t38.5 23t28 39h2v-70z" />
    <glyph glyph-name="v" unicode="v" horiz-adv-x="453" 
d="M457 525h-86l-144 -465h-2l-149 465h-80l174 -525h111z" />
    <glyph glyph-name="w" unicode="w" horiz-adv-x="754" 
d="M751 525h-82l-119 -470h-2l-114 470h-113l-115 -470h-2l-119 470h-81l142 -525h116l113 470h2l112 -470h115z" />
    <glyph glyph-name="x" unicode="x" horiz-adv-x="454" 
d="M438 525h-92l-119 -192l-122 192h-89l170 -251l-190 -274h95l136 212l136 -212h95l-187 274z" />
    <glyph glyph-name="y" unicode="y" horiz-adv-x="437" 
d="M441 525h-82l-118 -467h-2l-162 467h-81l190 -525h28q-7 -23 -13 -52t-17.5 -55.5t-29.5 -44.5t-49 -18q-15 0 -28 3v-61q8 -2 17 -3.5t19 -1.5q47 0 76.5 16.5t48.5 44t30 63t22 72.5z" />
    <glyph glyph-name="z" unicode="z" horiz-adv-x="454" 
d="M430 525h-379v-64h287l-313 -388v-73h405v64h-313l313 388v73z" />
    <glyph glyph-name="braceleft" unicode="{" horiz-adv-x="334" 
d="M48 266q25 -3 40.5 -13.5t24 -27.5t11 -40t2.5 -52v-164q0 -27 9 -49t22 -37.5t27 -24t24 -8.5h83v75h-44q-22 0 -29 16.5t-7 45.5v162q0 39 -10 67t-22.5 46.5t-24.5 28t-15 12.5q3 2 15 12t24.5 28.5t22.5 46.5t10 67v163q0 29 7 45t29 16h44v75h-83q-10 0 -24 -8.5
t-27 -24.5t-22 -37.5t-9 -48.5v-164q0 -29 -2.5 -52.5t-11 -40t-24 -26.5t-40.5 -13v-75z" />
    <glyph glyph-name="bar" unicode="|" horiz-adv-x="260" 
d="M168 750h-75v-1000h75v1000z" />
    <glyph glyph-name="braceright" unicode="}" horiz-adv-x="334" 
d="M286 340q-26 3 -41 13.5t-23.5 27.5t-11 40t-2.5 52v164q0 27 -9 49t-22 37.5t-27 24t-24 8.5h-83v-75h44q22 0 29 -16.5t7 -45.5v-162q0 -39 10 -67t22.5 -46.5t24.5 -28t15 -12.5q-3 -2 -15 -12t-24.5 -28.5t-22.5 -46.5t-10 -67v-163q0 -29 -7 -45t-29 -16h-44v-75h83
q10 0 24 8.5t27 24.5t22 37.5t9 48.5v164q0 29 2.5 52.5t11 40t23.5 26.5t41 13v75z" />
    <glyph glyph-name="asciitilde" unicode="~" horiz-adv-x="584" 
d="M120 215q-2 18 2 35t10.5 29.5t16 20.5t19.5 8q9 0 19.5 -4t20.5 -12l120 -76q49 -30 90 -28q29 0 51.5 15.5t37.5 39.5t22 52t5 54h-70q1 -15 0 -30t-6 -27t-14.5 -20t-23.5 -8q-21 -2 -47 13l-146 88q-8 5 -26 10.5t-41 3.5q-31 -3 -51.5 -19t-33.5 -39t-18.5 -51
t-6.5 -55h70z" />
    <glyph glyph-name="Euro" 
d="M683 671q-29 33 -61.5 50.5t-63.5 25t-58.5 8.5t-45.5 1h-112q-35 0 -76 -9t-77 -34.5t-60 -71.5t-24 -121v-38h-73l-20 -65h93v-62h-73l-20 -65h93v-60q0 -113 57.5 -174.5t160.5 -61.5h126q16 0 42.5 1t56 7t59 20.5t51.5 41.5v99q-30 -54 -78 -74t-100 -20h-141
q-50 0 -79.5 13t-45 40.5t-20 69t-4.5 98.5h374l20 65h-394v62h413l20 65h-433v41q0 49 11.5 80t32 48t48.5 23.5t60 6.5h135q58 0 105 -24.5t71 -75.5z" />
    <glyph glyph-name="Euro" unicode="&#x20ac;" 
d="M683 671q-29 33 -61.5 50.5t-63.5 25t-58.5 8.5t-45.5 1h-112q-35 0 -76 -9t-77 -34.5t-60 -71.5t-24 -121v-38h-73l-20 -65h93v-62h-73l-20 -65h93v-60q0 -113 57.5 -174.5t160.5 -61.5h126q16 0 42.5 1t56 7t59 20.5t51.5 41.5v99q-30 -54 -78 -74t-100 -20h-141
q-50 0 -79.5 13t-45 40.5t-20 69t-4.5 98.5h374l20 65h-394v62h413l20 65h-433v41q0 49 11.5 80t32 48t48.5 23.5t60 6.5h135q58 0 105 -24.5t71 -75.5z" />
    <glyph glyph-name="Zcaron" horiz-adv-x="637" 
d="M601 750h-561v-75h457l-471 -601v-74h585v75h-482l472 596v79zM316 811l177 107l-21 43l-156 -76l-148 76l-24 -43z" />
    <glyph glyph-name="Zcaron" unicode="&#x17d;" horiz-adv-x="637" 
d="M601 750h-561v-75h457l-471 -601v-74h585v75h-482l472 596v79zM316 811l177 107l-21 43l-156 -76l-148 76l-24 -43z" />
    <glyph glyph-name="zcaron" horiz-adv-x="454" 
d="M430 525h-379v-64h287l-313 -388v-73h405v64h-313l313 388v73zM225 586l177 107l-21 43l-156 -76l-148 76l-24 -43z" />
    <glyph glyph-name="zcaron" unicode="&#x17e;" horiz-adv-x="454" 
d="M430 525h-379v-64h287l-313 -388v-73h405v64h-313l313 388v73zM225 586l177 107l-21 43l-156 -76l-148 76l-24 -43z" />
    <glyph glyph-name="nonbreakingspace" unicode="&#xa0;" horiz-adv-x="345" 
 />
    <glyph glyph-name="exclamdown" unicode="&#xa1;" horiz-adv-x="270" 
d="M177 525h-89v-102h89v102zM88 -225h89l-8 543h-73z" />
    <glyph glyph-name="cent" unicode="&#xa2;" 
d="M300 142q-40 2 -63 13.5t-35 36t-15 62.5t-3 94q0 50 2 87t12.5 61.5t34 37.5t67.5 15v-407zM300 687v-73q-69 -2 -109 -22.5t-60.5 -55.5t-26 -83t-5.5 -105q0 -56 5.5 -105.5t26 -87t60.5 -59t109 -19.5v-83h65v83q48 -1 83.5 6.5t60 27t37 52t13.5 81.5v29h-80v-29
q-1 -33 -8 -53t-20.5 -31t-35 -14.5t-50.5 -3.5v407q31 -1 51.5 -7t32.5 -18.5t16.5 -33.5t2.5 -53h80q1 52 -12 86t-37.5 54t-59 28t-74.5 9v73h-65z" />
    <glyph glyph-name="sterling" unicode="&#xa3;" 
d="M442 363h-213v168q1 52 6 82t22 45t51.5 19t94.5 4q50 0 80.5 -5t47.5 -19.5t22.5 -42t5.5 -72.5v-16h80v16q0 66 -11.5 107.5t-40 65.5t-78 32.5t-124.5 8.5q-61 0 -106.5 -7.5t-75.5 -31t-44.5 -68t-14.5 -118.5v-168h-92v-70h92v-62q0 -24 -0.5 -51t-7 -51t-21.5 -42
t-44 -23v-64h582v73l-484 -9l-2 2q25 16 38 33.5t18.5 37.5t5.5 43v51v62h213v70z" />
    <glyph glyph-name="currency" unicode="&#xa4;" 
d="M134 497l58 -60q-19 -16 -26.5 -42t-7.5 -55q-1 -28 5.5 -55.5t23.5 -48.5l-49 -51l55 -59l54 51q29 -14 49.5 -20t43.5 -5q51 2 100 33l53 -55l58 55l-57 57q10 17 21 42.5t9 63.5q-5 35 -11.5 53.5t-14.5 31.5l58 55l-59 61l-56 -54q-29 14 -53.5 19.5t-48.5 4.5
q-20 -1 -42.5 -6t-50.5 -18l-58 59zM339 217q-18 0 -39 7t-38.5 22t-28.5 37.5t-10 53.5q-1 31 10 53t28 36t38 21t40 7t40 -6.5t39 -20.5t29.5 -35.5t11.5 -51.5q0 -32 -11.5 -55.5t-29.5 -38.5t-39 -22t-40 -7z" />
    <glyph glyph-name="yen" unicode="&#xa5;" 
d="M505 512l147 238h-98l-207 -351l-210 351h-99l143 -238h-98v-70h139l67 -112h-206v-70h216v-260h85v260h223v70h-213l68 112h145v70h-102z" />
    <glyph glyph-name="brokenbar" unicode="&#xa6;" horiz-adv-x="260" 
d="M168 -175v350h-75v-350h75zM168 675h-75v-350h75v350z" />
    <glyph glyph-name="section" unicode="&#xa7;" 
d="M253 207q-23 6 -40.5 11.5t-29.5 15t-18 26t-6 44.5q0 39 7.5 62.5t23.5 33.5t41 8t60 -14l139 -41q18 -5 35.5 -10.5t32 -14t23 -23t8.5 -37.5q0 -39 -6.5 -64t-21.5 -37t-40 -12t-62 11zM416 85q31 -8 52.5 -14t35.5 -16.5t20.5 -29t6.5 -51.5q0 -49 -13 -74.5
t-36.5 -36t-57 -11t-74.5 -0.5q-70 0 -107.5 6.5t-55 22t-20.5 42.5t-4 68h-75q0 -74 15 -116t46.5 -62.5t81 -25.5t119.5 -5q60 0 107.5 3.5t80.5 22.5t50.5 58.5t17.5 111.5q0 24 -2 46.5t-10 42t-23 35t-40 24.5v2q24 7 38 22.5t22 36t10.5 44t2.5 44.5q0 43 -11 68.5
t-31.5 40t-49.5 23t-65 19.5l-146 41q-37 10 -59 17.5t-33.5 19t-15 30.5t-3.5 52q0 40 9.5 60.5t29 29.5t49.5 9.5t72 0.5q56 0 88.5 -4t49.5 -17.5t21.5 -39t4.5 -68.5h75q-1 65 -10 104t-35 60t-72.5 28t-121.5 7q-62 0 -106.5 -4t-73 -22.5t-42 -56.5t-13.5 -105
q0 -19 1.5 -38.5t7.5 -36.5t17 -31.5t29 -23.5v-2q-28 -5 -45 -17.5t-26 -30.5t-12 -40.5t-3 -47.5q0 -41 5.5 -67.5t19.5 -43.5t38 -28t61 -21z" />
    <glyph glyph-name="dieresis" unicode="&#xa8;" horiz-adv-x="438" 
d="M163 653h-88v-74h88v74zM363 653h-88v-74h88v74z" />
    <glyph glyph-name="copyright" unicode="&#xa9;" horiz-adv-x="780" 
d="M391 756q-80 0 -149.5 -30t-121.5 -82t-82 -121t-30 -148q0 -80 30 -149t82 -121t121.5 -81.5t149.5 -29.5q79 0 148.5 29.5t121 81.5t81.5 121t30 149q0 79 -30 148t-81.5 121t-121 82t-148.5 30zM391 696q66 0 124.5 -25t101.5 -68.5t68 -101.5t25 -124q0 -67 -25 -126
t-68 -102.5t-101.5 -69t-124.5 -25.5q-67 0 -125.5 25.5t-102 69t-68.5 102.5t-25 126q0 66 25 124t68.5 101.5t102 68.5t125.5 25zM525 305q-6 -48 -39 -72.5t-78 -24.5q-37 0 -65.5 14t-47.5 37t-29 54t-10 66q0 36 9 66.5t28 53t47 35t66 12.5q46 0 78.5 -24t40.5 -69h60
q-11 69 -61 106.5t-119 37.5q-49 0 -87.5 -16.5t-65.5 -46t-41.5 -69.5t-14.5 -87t15 -87.5t43 -70t67 -46.5t87 -17q33 0 63.5 10.5t54.5 29.5t39.5 46.5t19.5 61.5h-60z" />
    <glyph glyph-name="ordfeminine" unicode="&#xaa;" horiz-adv-x="440" 
d="M311 435h53v215q1 37 -10.5 58.5t-32 32t-47.5 13t-58 2.5q-27 0 -51.5 -2t-43 -11.5t-30 -29t-11.5 -54.5h60q-3 34 16.5 41.5t66.5 7.5q30 0 46.5 -5.5t24 -17.5t9 -31.5t1.5 -47.5q-9 9 -22 14.5t-27.5 7.5t-29.5 2.5t-27 0.5q-30 0 -54 -4t-41 -15.5t-26 -31.5
t-9 -53q0 -32 10 -51t28 -29.5t42 -14t51 -3.5q29 0 59.5 4t50.5 28l2 -2v-24zM208 477q-20 0 -34 1t-24 6.5t-14.5 17t-4.5 31.5q0 35 20 42.5t67 7.5q20 0 36 -1.5t27 -6.5t17 -16t6 -30t-8 -29.5t-21.5 -15.5t-31 -6t-35.5 -1z" />
    <glyph glyph-name="guillemotleft" unicode="&#xab;" horiz-adv-x="503" 
d="M191 575l-135 -286l151 -289l55 36l-131 253l118 251zM376 575l-135 -286l151 -289l55 36l-131 253l118 251z" />
    <glyph glyph-name="logicalnot" unicode="&#xac;" horiz-adv-x="584" 
d="M459 129h75v270h-484v-75h409v-195z" />
    <glyph glyph-name="registered" unicode="&#xae;" horiz-adv-x="780" 
d="M391 756q-80 0 -149.5 -30t-121.5 -82t-82 -121t-30 -148q0 -80 30 -149t82 -121t121.5 -81.5t149.5 -29.5q79 0 148.5 29.5t121 81.5t81.5 121t30 149q0 79 -30 148t-81.5 121t-121 82t-148.5 30zM391 696q66 0 124.5 -25t101.5 -68.5t68 -101.5t25 -124q0 -67 -25 -126
t-68 -102.5t-101.5 -69t-124.5 -25.5q-67 0 -125.5 25.5t-102 69t-68.5 102.5t-25 126q0 66 25 124t68.5 101.5t102 68.5t125.5 25zM454 354q57 1 95 29.5t38 91.5q0 34 -13 56t-34 35t-48.5 17.5t-56.5 4.5h-186v-427h60v187h83l122 -187h67zM309 537h114q17 0 35.5 -1.5
t33.5 -8t25 -18.5t10 -33q0 -16 -4.5 -30t-16.5 -24.5t-32.5 -16.5t-52.5 -6h-112v138z" />
    <glyph glyph-name="macron" unicode="&#xaf;" horiz-adv-x="434" 
d="M79 648v-64h276v64h-276z" />
    <glyph glyph-name="macron" unicode="&#x2c9;" horiz-adv-x="434" 
d="M79 648v-64h276v64h-276z" />
    <glyph glyph-name="degree" unicode="&#xb0;" horiz-adv-x="400" 
d="M350 606q0 31 -12 58t-32.5 47.5t-47.5 32.5t-58 12t-58.5 -12t-48 -32.5t-32 -47.5t-11.5 -58t12 -58.5t32 -47.5t47.5 -32t58.5 -12t58 12t47.5 32t32.5 47.5t12 58.5zM300 606q0 -21 -8 -39.5t-21.5 -32t-32 -21t-38.5 -7.5q-21 0 -39 7.5t-31.5 21t-21.5 32t-8 39.5
q0 20 8 38.5t21.5 32t31.5 21.5t38 8q21 0 39 -8t32 -21.5t22 -32t8 -38.5z" />
    <glyph glyph-name="plusminus" unicode="&#xb1;" horiz-adv-x="584" 
d="M255 525v-152h-205v-75h205v-152h75v152h204v75h-204v152h-75zM50 10h484v75h-484v-75z" />
    <glyph glyph-name="twosuperior" unicode="&#xb2;" horiz-adv-x="414" 
d="M105 362v23q0 22 5.5 35.5t19 21t36.5 11t58 6.5q46 3 78 10.5t52 24.5t29 45.5t9 73.5q0 43 -8.5 70.5t-28 43.5t-52 22.5t-81.5 6.5q-63 0 -99.5 -7t-55 -23t-23 -42t-4.5 -63v-23h65v23q-1 25 2.5 40t15.5 23t35.5 10t63.5 2q31 0 51.5 -2t32.5 -10.5t16.5 -25
t4.5 -45.5q0 -33 -5 -50.5t-18 -26t-35.5 -11t-57.5 -6.5q-44 -4 -76 -9.5t-53 -20t-31.5 -40.5t-10.5 -71v-76h351v60h-286z" />
    <glyph glyph-name="threesuperior" unicode="&#xb3;" horiz-adv-x="414" 
d="M179 508h58q24 0 42.5 -1t30.5 -8t18.5 -21.5t6.5 -42.5q0 -30 -4 -46.5t-17.5 -24.5t-38 -9.5t-64.5 -1.5q-36 1 -57 3t-32.5 8.5t-15 20.5t-3.5 38v25h-65v-30q-1 -39 10.5 -63t33.5 -36.5t54.5 -16.5t74.5 -4q44 0 79 2t59.5 14.5t37.5 39t13 75.5q0 25 -3.5 43.5
t-13.5 31t-27.5 19.5t-45.5 9v2q27 1 43 9.5t24 22.5t10.5 32.5t2.5 40.5q0 44 -12.5 67.5t-35.5 34.5t-55 13t-71 2q-42 0 -74.5 -3t-54 -15.5t-32.5 -37t-11 -67.5v-19h65v19q1 22 5 35.5t14.5 21t29.5 9.5t51 2q39 0 62 -2t35 -9.5t15.5 -21.5t3.5 -38q0 -26 -5 -39.5
t-15.5 -19.5t-27 -7t-40.5 -1h-58v-55z" />
    <glyph glyph-name="acute" unicode="&#xb4;" horiz-adv-x="338" 
d="M224 743l-149 -113l27 -41l161 100z" />
    <glyph glyph-name="mu" unicode="&#xb5;" horiz-adv-x="570" 
d="M422 0h80v525h-79v-324q0 -47 -10.5 -75t-31.5 -43t-52.5 -20t-73.5 -5q-38 0 -60 8.5t-32.5 25t-13 40.5t-2.5 56v337h-79v-752h79v241q39 -20 109 -20q26 0 51 3t46.5 11t38.5 23t28 39h2v-70z" />
    <glyph glyph-name="mu" unicode="&#x3bc;" horiz-adv-x="570" 
d="M422 0h80v525h-79v-324q0 -47 -10.5 -75t-31.5 -43t-52.5 -20t-73.5 -5q-38 0 -60 8.5t-32.5 25t-13 40.5t-2.5 56v337h-79v-752h79v241q39 -20 109 -20q26 0 51 3t46.5 11t38.5 23t28 39h2v-70z" />
    <glyph glyph-name="paragraph" unicode="&#xb6;" 
d="M656 -209v959h-414q-65 0 -105.5 -15.5t-63 -45t-31 -72.5t-8.5 -97q0 -74 15 -118.5t42.5 -68.5t66 -31.5t84.5 -7.5h175v-503h75v889h89v-889h75zM417 364h-175q-28 0 -50.5 5t-38.5 21.5t-25 47t-9 82.5q0 45 3 75.5t15 49t36.5 27t68.5 8.5h175v-316z" />
    <glyph glyph-name="periodcentered" unicode="&#xb7;" horiz-adv-x="345" 
d="M217 335h-89v-102h89v102z" />
    <glyph glyph-name="periodcentered" unicode="&#x2219;" horiz-adv-x="345" 
d="M217 335h-89v-102h89v102z" />
    <glyph glyph-name="cedilla" unicode="&#xb8;" horiz-adv-x="270" 
d="M130 -40l-66 -114l43 -23l77 107z" />
    <glyph glyph-name="onesuperior" unicode="&#xb9;" horiz-adv-x="414" 
d="M269 756h-90l-134 -135l34 -41l125 128v-406h65v454z" />
    <glyph glyph-name="ordmasculine" unicode="&#xba;" horiz-adv-x="440" 
d="M225 756q-52 0 -82.5 -8.5t-46 -28t-20 -50t-4.5 -74.5q0 -51 5 -83.5t21 -50.5t46 -25t81 -7q49 0 77.5 9t43 28.5t18.5 51t4 77.5q0 48 -6 79t-21.5 49.5t-43.5 25.5t-72 7zM225 708q30 0 46.5 -4.5t25 -17t10 -34.5t1.5 -57q0 -37 -2 -60t-10 -36t-24.5 -17.5
t-46.5 -4.5q-33 0 -51.5 2t-28 13t-11.5 35t-2 68q0 38 2.5 60.5t12 34t28 15t50.5 3.5z" />
    <glyph glyph-name="guillemotright" unicode="&#xbb;" horiz-adv-x="503" 
d="M254 540l118 -251l-131 -253l55 -36l151 289l-135 286zM69 540l118 -251l-131 -253l55 -36l151 289l-135 286z" />
    <glyph glyph-name="onequarter" unicode="&#xbc;" horiz-adv-x="1035" 
d="M915 450h-92l-242 -287v-72h269v-91h65v91h66v60h-66v299zM850 151h-219l216 256h3v-256zM803 750h-70l-506 -750h67zM279 750h-90l-134 -135l34 -41l125 128v-402h65v450z" />
    <glyph glyph-name="onehalf" unicode="&#xbd;" horiz-adv-x="1035" 
d="M784 750h-70l-506 -750h67zM181 750l-134 -135l34 -41l125 128v-402h65v450h-90zM701 60v23q0 22 5.5 35.5t19 21t36.5 11t58 6.5q46 3 78 10.5t52 24.5t29 45.5t9 73.5q0 43 -8.5 70.5t-28 43.5t-52 22.5t-81.5 6.5q-63 0 -99.5 -7t-55 -23t-23 -42t-4.5 -63v-23h65v23
q-1 25 2.5 40t15.5 23t35.5 10t63.5 2q31 0 51.5 -2t32.5 -10.5t16.5 -25t4.5 -45.5q0 -33 -5 -50.5t-18 -26t-35.5 -11t-57.5 -6.5q-44 -4 -76 -9.5t-53 -20t-31.5 -40.5t-10.5 -71v-76h351v60h-286z" />
    <glyph glyph-name="threequarters" unicode="&#xbe;" horiz-adv-x="1035" 
d="M925 450h-92l-242 -287v-72h269v-91h65v91h66v60h-66v299zM860 151h-219l216 256h3v-256zM850 750h-70l-506 -750h67zM186 508h58q24 0 42.5 -1t30.5 -8t18.5 -21.5t6.5 -42.5q0 -30 -4 -46.5t-17.5 -24.5t-38 -9.5t-64.5 -1.5q-36 1 -57 3t-32.5 8.5t-15 20.5t-3.5 38
v25h-65v-30q-1 -39 10.5 -63t33.5 -36.5t54.5 -16.5t74.5 -4q44 0 79 1.5t59.5 13.5t37.5 38.5t13 77.5q0 25 -3.5 43.5t-13.5 31t-27.5 19.5t-45.5 9v2q27 1 43 9.5t24 22.5t10.5 32.5t2.5 40.5q0 44 -12.5 67.5t-35.5 34.5t-55 13t-71 2q-42 0 -74.5 -3t-54 -15.5
t-32.5 -37t-11 -67.5v-19h65v19q1 22 5 35.5t14.5 21t29.5 9.5t51 2q39 0 62 -2t35 -9.5t15.5 -21.5t3.5 -38q0 -26 -5 -39.5t-15.5 -19.5t-27 -7t-40.5 -1h-58v-55z" />
    <glyph glyph-name="questiondown" unicode="&#xbf;" horiz-adv-x="584" 
d="M286 309v-27q0 -22 -3.5 -35.5t-14 -22.5t-30 -16.5t-50.5 -18.5q-45 -16 -71.5 -35.5t-39.5 -46t-16.5 -61t-3.5 -79.5q0 -61 13 -100t40.5 -61t71 -30.5t105.5 -8.5q61 0 105.5 5.5t74 26t44.5 60t17 108.5v43h-80v-43q0 -45 -7.5 -70t-26 -37t-49.5 -15t-78 -3
q-46 0 -75.5 4t-46 16.5t-22.5 37.5t-6 67q0 43 3 68t12.5 40t28 25t49.5 22q43 16 70 29t43 30t22 41t6 60v27h-85zM372 525h-89v-102h89v102z" />
    <glyph glyph-name="Agrave" unicode="&#xc0;" horiz-adv-x="685" 
d="M532 159l59 -159h88l-280 750h-120l-273 -750h89l58 159h379zM508 229h-332l165 451zM289 968l-40 -54l162 -100l26 41z" />
    <glyph glyph-name="Aacute" unicode="&#xc1;" horiz-adv-x="685" 
d="M532 159l59 -159h88l-280 750h-120l-273 -750h89l58 159h379zM508 229h-332l165 451zM398 968l-149 -113l27 -41l161 100z" />
    <glyph glyph-name="Acircumflex" unicode="&#xc2;" horiz-adv-x="685" 
d="M532 159l59 -159h88l-280 750h-120l-273 -750h89l58 159h379zM508 229h-332l165 451zM344 961l-176 -108l21 -42l155 76l149 -76l24 42z" />
    <glyph glyph-name="Atilde" unicode="&#xc3;" horiz-adv-x="685" 
d="M532 159l59 -159h88l-280 750h-120l-273 -750h89l58 159h379zM508 229h-332l165 451zM469 914q-9 -16 -23.5 -30t-34.5 -14q-14 0 -32 7t-37 15t-37.5 14.5t-35.5 6.5q-36 0 -58.5 -22.5t-37.5 -51.5l45 -26q10 17 19 29t31 12q15 0 32.5 -6.5t35.5 -14.5q19 -8 37.5 -15
t35.5 -7q35 0 60.5 23t42.5 52z" />
    <glyph glyph-name="Adieresis" unicode="&#xc4;" horiz-adv-x="685" 
d="M532 159l59 -159h88l-280 750h-120l-273 -750h89l58 159h379zM508 229h-332l165 451zM287 878h-88v-74h88v74zM487 878h-88v-74h88v74z" />
    <glyph glyph-name="Aring" unicode="&#xc5;" horiz-adv-x="685" 
d="M532 159l59 -159h88l-280 750h-120l-273 -750h89l58 159h379zM508 229h-332l165 451zM256 874q0 -18 7 -34t18.5 -27.5t27 -18.5t33.5 -7q36 0 61.5 25.5t25.5 61.5q0 18 -7 33.5t-18.5 27.5t-27.5 19t-34 7t-33.5 -7t-27 -19t-18.5 -27.5t-7 -33.5zM294 874
q0 20 14 34.5t34 14.5t34.5 -14.5t14.5 -34.5t-14.5 -34.5t-34.5 -14.5t-34 14.5t-14 34.5z" />
    <glyph glyph-name="AE" unicode="&#xc6;" horiz-adv-x="1044" 
d="M614 675h393v75h-601l-414 -750h100l87 155h350v-155h478v75h-393v275h375v70h-375v255zM529 230h-311l239 445h72v-445z" />
    <glyph glyph-name="Ccedilla" unicode="&#xc7;" horiz-adv-x="665" 
d="M339 -40l-66 -114l43 -23l77 107zM383 -6q56 0 104 5.5t82.5 25.5t54 57.5t19.5 102.5v70h-85v-60q0 -40 -8.5 -65t-29.5 -38.5t-55 -18t-85 -4.5h-101q-53 0 -83 14.5t-44.5 45t-18 77.5t-3.5 111v206q0 51 12.5 82.5t40.5 48t73.5 22t111.5 5.5h48q41 0 67 -7.5
t40.5 -25t19.5 -45t5 -66.5v-21h85v24q0 55 -10 96t-33.5 67.5t-63 39.5t-98.5 13h-70q-68 0 -125.5 -7t-99 -31.5t-65 -71.5t-23.5 -126v-290q0 -113 57.5 -174.5t160.5 -61.5h120z" />
    <glyph glyph-name="Egrave" unicode="&#xc8;" horiz-adv-x="560" 
d="M126 675h397v75h-482v-750h482v75h-397v275h380v70h-380v255zM226 968l-40 -54l162 -100l26 41z" />
    <glyph glyph-name="Eacute" unicode="&#xc9;" horiz-adv-x="560" 
d="M126 675h397v75h-482v-750h482v75h-397v275h380v70h-380v255zM335 968l-149 -113l27 -41l161 100z" />
    <glyph glyph-name="Ecircumflex" unicode="&#xca;" horiz-adv-x="560" 
d="M126 675h397v75h-482v-750h482v75h-397v275h380v70h-380v255zM282 961l-176 -108l21 -42l155 76l149 -76l24 42z" />
    <glyph glyph-name="Edieresis" unicode="&#xcb;" horiz-adv-x="560" 
d="M126 675h397v75h-482v-750h482v75h-397v275h380v70h-380v255zM224 878h-88v-74h88v74zM424 878h-88v-74h88v74z" />
    <glyph glyph-name="Igrave" unicode="&#xcc;" horiz-adv-x="228" 
d="M157 750h-85v-750h85v750zM60 968l-40 -54l162 -100l26 41z" />
    <glyph glyph-name="Iacute" unicode="&#xcd;" horiz-adv-x="228" 
d="M157 750h-85v-750h85v750zM169 968l-149 -113l27 -41l161 100z" />
    <glyph glyph-name="Icircumflex" unicode="&#xce;" horiz-adv-x="228" 
d="M157 750h-85v-750h85v750zM116 961l-176 -108l21 -42l155 76l149 -76l24 42z" />
    <glyph glyph-name="Idieresis" unicode="&#xcf;" horiz-adv-x="228" 
d="M157 750h-85v-750h85v750zM58 878h-88v-74h88v74zM258 878h-88v-74h88v74z" />
    <glyph glyph-name="Eth" unicode="&#xd0;" horiz-adv-x="734" 
d="M70 421h-103v-70h103v-351h385q56 0 95.5 15.5t66 41t41.5 57t22.5 62.5t9.5 59t2 47v179q0 69 -12.5 117.5t-33.5 80.5t-48 50.5t-55.5 27.5t-56.5 11t-51 2h-365v-329zM155 675h294q54 0 85 -22.5t47.5 -52.5t21 -60t4.5 -46v-197q-1 -50 -7 -91t-24 -70t-51.5 -45
t-89.5 -16h-280v276h207v70h-207v254z" />
    <glyph glyph-name="Ntilde" unicode="&#xd1;" horiz-adv-x="783" 
d="M715 750h-85v-685h-2l-420 685h-140v-750h85v680h2l421 -680h139v750zM518 914q-9 -16 -23.5 -30t-34.5 -14q-14 0 -32 7t-37 15t-37.5 14.5t-35.5 6.5q-36 0 -58.5 -22.5t-37.5 -51.5l45 -26q10 17 19 29t31 12q15 0 32.5 -6.5t35.5 -14.5q19 -8 37.5 -15t35.5 -7
q35 0 60.5 23t42.5 52z" />
    <glyph glyph-name="Ograve" unicode="&#xd2;" horiz-adv-x="671" 
d="M285 756q-70 -1 -117 -14t-75 -42.5t-40 -77.5t-12 -118v-267q0 -66 13 -112.5t41.5 -75.5t75 -42t114.5 -13h101q67 0 114 13t75.5 42t41.5 75.5t13 112.5v267q0 70 -12 118t-40 77.5t-75 42.5t-117 14h-101zM386 681q47 0 78 -7t49 -26.5t25 -54t7 -89.5v-267
q0 -56 -9.5 -89t-29 -50.5t-49.5 -23t-71 -5.5h-101q-41 0 -71 5.5t-49.5 23t-29 50.5t-9.5 89v267q0 55 7 89.5t25 54t49 26.5t78 7h101zM262 968l-40 -54l162 -100l26 41z" />
    <glyph glyph-name="Oacute" unicode="&#xd3;" horiz-adv-x="671" 
d="M285 756q-70 -1 -117 -14t-75 -42.5t-40 -77.5t-12 -118v-267q0 -66 13 -112.5t41.5 -75.5t75 -42t114.5 -13h101q67 0 114 13t75.5 42t41.5 75.5t13 112.5v267q0 70 -12 118t-40 77.5t-75 42.5t-117 14h-101zM386 681q47 0 78 -7t49 -26.5t25 -54t7 -89.5v-267
q0 -56 -9.5 -89t-29 -50.5t-49.5 -23t-71 -5.5h-101q-41 0 -71 5.5t-49.5 23t-29 50.5t-9.5 89v267q0 55 7 89.5t25 54t49 26.5t78 7h101zM391 968l-149 -113l27 -41l161 100z" />
    <glyph glyph-name="Ocircumflex" unicode="&#xd4;" horiz-adv-x="671" 
d="M285 756q-70 -1 -117 -14t-75 -42.5t-40 -77.5t-12 -118v-267q0 -66 13 -112.5t41.5 -75.5t75 -42t114.5 -13h101q67 0 114 13t75.5 42t41.5 75.5t13 112.5v267q0 70 -12 118t-40 77.5t-75 42.5t-117 14h-101zM386 681q47 0 78 -7t49 -26.5t25 -54t7 -89.5v-267
q0 -56 -9.5 -89t-29 -50.5t-49.5 -23t-71 -5.5h-101q-41 0 -71 5.5t-49.5 23t-29 50.5t-9.5 89v267q0 55 7 89.5t25 54t49 26.5t78 7h101zM337 961l-176 -108l21 -42l155 76l149 -76l24 42z" />
    <glyph glyph-name="Otilde" unicode="&#xd5;" horiz-adv-x="671" 
d="M285 756q-70 -1 -117 -14t-75 -42.5t-40 -77.5t-12 -118v-267q0 -66 13 -112.5t41.5 -75.5t75 -42t114.5 -13h101q67 0 114 13t75.5 42t41.5 75.5t13 112.5v267q0 70 -12 118t-40 77.5t-75 42.5t-117 14h-101zM386 681q47 0 78 -7t49 -26.5t25 -54t7 -89.5v-267
q0 -56 -9.5 -89t-29 -50.5t-49.5 -23t-71 -5.5h-101q-41 0 -71 5.5t-49.5 23t-29 50.5t-9.5 89v267q0 55 7 89.5t25 54t49 26.5t78 7h101zM462 914q-9 -16 -23.5 -30t-34.5 -14q-14 0 -32 7t-37 15t-37.5 14.5t-35.5 6.5q-36 0 -58.5 -22.5t-37.5 -51.5l45 -26q10 17 19 29
t31 12q15 0 32.5 -6.5t35.5 -14.5q19 -8 37.5 -15t35.5 -7q35 0 60.5 23t42.5 52z" />
    <glyph glyph-name="Odieresis" unicode="&#xd6;" horiz-adv-x="671" 
d="M285 756q-70 -1 -117 -14t-75 -42.5t-40 -77.5t-12 -118v-267q0 -66 13 -112.5t41.5 -75.5t75 -42t114.5 -13h101q67 0 114 13t75.5 42t41.5 75.5t13 112.5v267q0 70 -12 118t-40 77.5t-75 42.5t-117 14h-101zM386 681q47 0 78 -7t49 -26.5t25 -54t7 -89.5v-267
q0 -56 -9.5 -89t-29 -50.5t-49.5 -23t-71 -5.5h-101q-41 0 -71 5.5t-49.5 23t-29 50.5t-9.5 89v267q0 55 7 89.5t25 54t49 26.5t78 7h101zM280 878h-88v-74h88v74zM480 878h-88v-74h88v74z" />
    <glyph glyph-name="multiply" unicode="&#xd7;" horiz-adv-x="584" 
d="M50 436l193 -193l-193 -193l49 -50l193 194l193 -194l49 50l-193 193l193 193l-49 50l-193 -194l-193 194z" />
    <glyph glyph-name="Oslash" unicode="&#xd8;" horiz-adv-x="723" 
d="M596 559v-323q0 -41 -6.5 -72t-23.5 -52t-47 -32t-77 -11h-136q-16 0 -39 1t-46.5 6.5t-43 17t-28.5 32.5zM128 191v291q0 57 5.5 95t24 61t54 33t94.5 10h136q44 0 80 -9.5t52 -44.5zM707 751l-74 -67q-32 41 -81.5 56.5t-109.5 15.5h-136q-61 0 -109.5 -11t-82.5 -41
t-52.5 -83.5t-18.5 -138.5v-246q0 -17 2 -34.5t5 -32.5t6 -27t5 -16l-45 -44v-81l73 68q19 -26 44.5 -41t53.5 -22.5t58.5 -9.5t60.5 -2h136q59 0 103.5 12t74.5 40t45.5 74.5t15.5 115.5v246q0 37 -1.5 74.5t-18.5 70.5l46 38v86z" />
    <glyph glyph-name="Ugrave" unicode="&#xd9;" horiz-adv-x="737" 
d="M581 750v-540q0 -53 -12 -81.5t-37.5 -41.5t-65.5 -15.5t-97 -2.5q-69 0 -110.5 5t-64 20t-30 42.5t-7.5 73.5v540h-85v-540q0 -80 23.5 -123.5t63.5 -64t94 -24.5t116 -4q66 0 121 5.5t94 27t60.5 65t21.5 118.5v540h-85zM275 968l-40 -54l162 -100l26 41z" />
    <glyph glyph-name="Uacute" unicode="&#xda;" horiz-adv-x="737" 
d="M581 750v-540q0 -53 -12 -81.5t-37.5 -41.5t-65.5 -15.5t-97 -2.5q-69 0 -110.5 5t-64 20t-30 42.5t-7.5 73.5v540h-85v-540q0 -80 23.5 -123.5t63.5 -64t94 -24.5t116 -4q66 0 121 5.5t94 27t60.5 65t21.5 118.5v540h-85zM424 968l-149 -113l27 -41l161 100z" />
    <glyph glyph-name="Ucircumflex" unicode="&#xdb;" horiz-adv-x="737" 
d="M581 750v-540q0 -53 -12 -81.5t-37.5 -41.5t-65.5 -15.5t-97 -2.5q-69 0 -110.5 5t-64 20t-30 42.5t-7.5 73.5v540h-85v-540q0 -80 23.5 -123.5t63.5 -64t94 -24.5t116 -4q66 0 121 5.5t94 27t60.5 65t21.5 118.5v540h-85zM370 961l-176 -108l21 -42l155 76l149 -76
l24 42z" />
    <glyph glyph-name="Udieresis" unicode="&#xdc;" horiz-adv-x="737" 
d="M581 750v-540q0 -53 -12 -81.5t-37.5 -41.5t-65.5 -15.5t-97 -2.5q-69 0 -110.5 5t-64 20t-30 42.5t-7.5 73.5v540h-85v-540q0 -80 23.5 -123.5t63.5 -64t94 -24.5t116 -4q66 0 121 5.5t94 27t60.5 65t21.5 118.5v540h-85zM313 878h-88v-74h88v74zM513 878h-88v-74h88v74
z" />
    <glyph glyph-name="Yacute" unicode="&#xdd;" horiz-adv-x="632" 
d="M638 750h-101l-222 -351l-222 351h-99l275 -437v-313h85v313zM389 968l-149 -113l27 -41l161 100z" />
    <glyph glyph-name="Thorn" unicode="&#xde;" horiz-adv-x="661" 
d="M59 0h85v146h293q45 0 76.5 12.5t52 32.5t31.5 45.5t16 51t6 49t1 40.5q0 48 -7.5 89.5t-27.5 72t-55 48t-89 17.5h-297v146h-85v-750zM404 529q39 0 64.5 -5t40.5 -22.5t20.5 -49.5t5.5 -86q0 -55 -11 -84.5t-32.5 -43t-53.5 -15.5t-74 -2h-220v308h260z" />
    <glyph glyph-name="germandbls" unicode="&#xdf;" horiz-adv-x="590" 
d="M83 0h79v587q0 35 8 56t23.5 32t39.5 14t57 3q32 0 56 -2.5t39.5 -12t23.5 -28.5t8 -52q0 -18 -3 -33t-15.5 -26t-37.5 -17.5t-70 -6.5h-49v-64h66q52 0 81.5 -14t44.5 -40t18.5 -63t3.5 -83q0 -65 -5 -103t-16.5 -57.5t-29.5 -25.5t-44 -6q-42 0 -58.5 22t-16.5 61v18
h-75v-36q0 -34 12 -58.5t32 -40t47.5 -23t58.5 -7.5q63 0 98.5 21.5t53 57.5t21.5 82t4 95q0 43 -3 81.5t-16.5 69.5t-41.5 52t-78 29v2q48 13 74 43t26 82q0 48 -18.5 77t-48 44.5t-67 20.5t-75.5 5q-53 0 -91.5 -6t-64.5 -24t-38.5 -51.5t-12.5 -87.5v-587z" />
    <glyph glyph-name="agrave" unicode="&#xe0;" horiz-adv-x="570" 
d="M263 58q-34 0 -59 2.5t-41 12.5t-24 31t-8 59q0 32 7.5 50t23.5 27t41 11.5t60 2.5q37 0 67 -1.5t50 -10.5t31 -29t11 -57q0 -36 -13.5 -56t-36 -29t-51 -11t-58.5 -2zM503 0v358q0 60 -17 94.5t-47.5 52t-72.5 22t-91 4.5q-44 0 -82 -3t-66.5 -17.5t-45 -43t-16.5 -79.5
v-11h82v18q0 27 12.5 41.5t32.5 21.5t44.5 8t47.5 1q33 0 59 -3t44 -13.5t27.5 -31.5t9.5 -57v-97h-5q-4 18 -23 28.5t-44 16t-52 7t-46 1.5q-49 0 -87 -5.5t-64.5 -22.5t-40 -50t-13.5 -87q0 -51 14.5 -82.5t41 -48.5t63.5 -22.5t81 -5.5q25 0 51 1t49 7t42.5 18.5
t30.5 35.5l2 -2v-54h79zM211 743l-40 -54l162 -100l26 41z" />
    <glyph glyph-name="aacute" unicode="&#xe1;" horiz-adv-x="570" 
d="M263 58q-34 0 -59 2.5t-41 12.5t-24 31t-8 59q0 32 7.5 50t23.5 27t41 11.5t60 2.5q37 0 67 -1.5t50 -10.5t31 -29t11 -57q0 -36 -13.5 -56t-36 -29t-51 -11t-58.5 -2zM503 0v358q0 60 -17 94.5t-47.5 52t-72.5 22t-91 4.5q-44 0 -82 -3t-66.5 -17.5t-45 -43t-16.5 -79.5
v-11h82v18q0 27 12.5 41.5t32.5 21.5t44.5 8t47.5 1q33 0 59 -3t44 -13.5t27.5 -31.5t9.5 -57v-97h-5q-4 18 -23 28.5t-44 16t-52 7t-46 1.5q-49 0 -87 -5.5t-64.5 -22.5t-40 -50t-13.5 -87q0 -51 14.5 -82.5t41 -48.5t63.5 -22.5t81 -5.5q25 0 51 1t49 7t42.5 18.5
t30.5 35.5l2 -2v-54h79zM340 743l-149 -113l27 -41l161 100z" />
    <glyph glyph-name="acircumflex" unicode="&#xe2;" horiz-adv-x="570" 
d="M263 58q-34 0 -59 2.5t-41 12.5t-24 31t-8 59q0 32 7.5 50t23.5 27t41 11.5t60 2.5q37 0 67 -1.5t50 -10.5t31 -29t11 -57q0 -36 -13.5 -56t-36 -29t-51 -11t-58.5 -2zM503 0v358q0 60 -17 94.5t-47.5 52t-72.5 22t-91 4.5q-44 0 -82 -3t-66.5 -17.5t-45 -43t-16.5 -79.5
v-11h82v18q0 27 12.5 41.5t32.5 21.5t44.5 8t47.5 1q33 0 59 -3t44 -13.5t27.5 -31.5t9.5 -57v-97h-5q-4 18 -23 28.5t-44 16t-52 7t-46 1.5q-49 0 -87 -5.5t-64.5 -22.5t-40 -50t-13.5 -87q0 -51 14.5 -82.5t41 -48.5t63.5 -22.5t81 -5.5q25 0 51 1t49 7t42.5 18.5
t30.5 35.5l2 -2v-54h79zM287 736l-176 -108l21 -42l155 76l149 -76l24 42z" />
    <glyph glyph-name="atilde" unicode="&#xe3;" horiz-adv-x="570" 
d="M263 58q-34 0 -59 2.5t-41 12.5t-24 31t-8 59q0 32 7.5 50t23.5 27t41 11.5t60 2.5q37 0 67 -1.5t50 -10.5t31 -29t11 -57q0 -36 -13.5 -56t-36 -29t-51 -11t-58.5 -2zM503 0v358q0 60 -17 94.5t-47.5 52t-72.5 22t-91 4.5q-44 0 -82 -3t-66.5 -17.5t-45 -43t-16.5 -79.5
v-11h82v18q0 27 12.5 41.5t32.5 21.5t44.5 8t47.5 1q33 0 59 -3t44 -13.5t27.5 -31.5t9.5 -57v-97h-5q-4 18 -23 28.5t-44 16t-52 7t-46 1.5q-49 0 -87 -5.5t-64.5 -22.5t-40 -50t-13.5 -87q0 -51 14.5 -82.5t41 -48.5t63.5 -22.5t81 -5.5q25 0 51 1t49 7t42.5 18.5
t30.5 35.5l2 -2v-54h79zM412 689q-9 -16 -23.5 -30t-34.5 -14q-14 0 -32 7t-37 15t-37.5 14.5t-35.5 6.5q-36 0 -58.5 -22.5t-37.5 -51.5l45 -26q10 17 19 29t31 12q15 0 32.5 -6.5t35.5 -14.5q19 -8 37.5 -15t35.5 -7q35 0 60.5 23t42.5 52z" />
    <glyph glyph-name="adieresis" unicode="&#xe4;" horiz-adv-x="570" 
d="M263 58q-34 0 -59 2.5t-41 12.5t-24 31t-8 59q0 32 7.5 50t23.5 27t41 11.5t60 2.5q37 0 67 -1.5t50 -10.5t31 -29t11 -57q0 -36 -13.5 -56t-36 -29t-51 -11t-58.5 -2zM503 0v358q0 60 -17 94.5t-47.5 52t-72.5 22t-91 4.5q-44 0 -82 -3t-66.5 -17.5t-45 -43t-16.5 -79.5
v-11h82v18q0 27 12.5 41.5t32.5 21.5t44.5 8t47.5 1q33 0 59 -3t44 -13.5t27.5 -31.5t9.5 -57v-97h-5q-4 18 -23 28.5t-44 16t-52 7t-46 1.5q-49 0 -87 -5.5t-64.5 -22.5t-40 -50t-13.5 -87q0 -51 14.5 -82.5t41 -48.5t63.5 -22.5t81 -5.5q25 0 51 1t49 7t42.5 18.5
t30.5 35.5l2 -2v-54h79zM229 653h-88v-74h88v74zM429 653h-88v-74h88v74z" />
    <glyph glyph-name="aring" unicode="&#xe5;" horiz-adv-x="570" 
d="M263 58q-34 0 -59 2.5t-41 12.5t-24 31t-8 59q0 32 7.5 50t23.5 27t41 11.5t60 2.5q37 0 67 -1.5t50 -10.5t31 -29t11 -57q0 -36 -13.5 -56t-36 -29t-51 -11t-58.5 -2zM503 0v358q0 60 -17 94.5t-47.5 52t-72.5 22t-91 4.5q-44 0 -82 -3t-66.5 -17.5t-45 -43t-16.5 -79.5
v-11h82v18q0 27 12.5 41.5t32.5 21.5t44.5 8t47.5 1q33 0 59 -3t44 -13.5t27.5 -31.5t9.5 -57v-97h-5q-4 18 -23 28.5t-44 16t-52 7t-46 1.5q-49 0 -87 -5.5t-64.5 -22.5t-40 -50t-13.5 -87q0 -51 14.5 -82.5t41 -48.5t63.5 -22.5t81 -5.5q25 0 51 1t49 7t42.5 18.5
t30.5 35.5l2 -2v-54h79zM199 649q0 -18 7 -34t18.5 -27.5t27 -18.5t33.5 -7q36 0 61.5 25.5t25.5 61.5q0 18 -7 33.5t-18.5 27.5t-27.5 19t-34 7t-33.5 -7t-27 -19t-18.5 -27.5t-7 -33.5zM237 649q0 20 14 34.5t34 14.5t34.5 -14.5t14.5 -34.5t-14.5 -34.5t-34.5 -14.5
t-34 14.5t-14 34.5z" />
    <glyph glyph-name="ae" unicode="&#xe6;" horiz-adv-x="932" 
d="M506 309q2 45 6.5 75.5t19.5 49t44.5 26t83.5 7.5q45 0 72 -3.5t42 -19.5t20.5 -47.5t7.5 -87.5h-296zM263 254q37 0 67 -1.5t50 -10.5t31 -29t11 -57q0 -36 -13.5 -56t-36 -29t-51 -11t-58.5 -2q-34 0 -59 2.5t-41 12.5t-24 31t-8 59q0 32 7.5 50t23.5 27t41 11.5
t60 2.5zM424 265h-5q-4 18 -23 28.5t-44 16t-52 7t-46 1.5q-49 0 -87 -5.5t-64.5 -22.5t-40 -50t-13.5 -87q0 -51 14.5 -82.5t41 -48.5t63.5 -22.5t81 -5.5q34 0 67.5 2.5t62 11.5t50 26.5t30.5 46.5h2q10 -31 31 -48.5t48.5 -26t58.5 -10.5t61 -2q44 0 84.5 3.5t71.5 17.5
t49.5 43.5t18.5 81.5v19h-81v-20q0 -28 -7 -44t-24 -24.5t-44.5 -10.5t-67.5 -2q-53 0 -84 6t-46.5 25.5t-19.5 56.5t-4 99h378v53q0 73 -11 118.5t-37 71t-69 34.5t-107 9q-24 0 -52.5 -1.5t-55.5 -8t-49.5 -20t-34.5 -36.5q-7 26 -31.5 39.5t-54.5 19.5t-59.5 6.5
t-47.5 0.5q-44 0 -82 -3t-66.5 -17.5t-45 -43t-16.5 -79.5v-11h82v18q0 27 12.5 41.5t32.5 21.5t44.5 8t47.5 1q33 0 59 -3t44 -13.5t27.5 -31.5t9.5 -57v-97z" />
    <glyph glyph-name="ccedilla" unicode="&#xe7;" horiz-adv-x="546" 
d="M279 -40l-66 -114l43 -23l77 107zM426 190v-26q0 -36 -7 -57t-23 -32t-42 -14t-63 -3q-58 0 -90 9.5t-47.5 31.5t-19 59t-3.5 93q0 63 2.5 104.5t16.5 66.5t42.5 35t81.5 10q34 0 60.5 -2t45 -11t28 -28.5t9.5 -55.5v-16h79v14q0 56 -17.5 88.5t-48.5 49t-72 21t-89 4.5
q-71 0 -114.5 -16.5t-67 -48.5t-31 -80.5t-7.5 -112.5q0 -73 5.5 -126t29 -87t70 -50t128.5 -16q47 0 87.5 5.5t70.5 22.5t47.5 50t17.5 89v29h-79z" />
    <glyph glyph-name="egrave" unicode="&#xe8;" horiz-adv-x="565" 
d="M431 159v-20q0 -28 -7 -44t-24 -24.5t-44.5 -10.5t-67.5 -2q-53 0 -84 6t-46.5 25.5t-19.5 56.5t-4 99h378v53q0 73 -11 118.5t-37 71t-69 34.5t-107 9q-71 0 -116.5 -11.5t-72 -41.5t-37 -82t-10.5 -134q0 -75 8 -126.5t33 -83t71.5 -45t123.5 -13.5q44 0 84.5 3.5
t71.5 17.5t49.5 43.5t18.5 81.5v19h-81zM134 309q2 45 6.5 75.5t19.5 49t44.5 26t83.5 7.5q45 0 72 -3.5t42 -19.5t20.5 -47.5t7.5 -87.5h-296zM209 743l-40 -54l162 -100l26 41z" />
    <glyph glyph-name="eacute" unicode="&#xe9;" horiz-adv-x="565" 
d="M431 159v-20q0 -28 -7 -44t-24 -24.5t-44.5 -10.5t-67.5 -2q-53 0 -84 6t-46.5 25.5t-19.5 56.5t-4 99h378v53q0 73 -11 118.5t-37 71t-69 34.5t-107 9q-71 0 -116.5 -11.5t-72 -41.5t-37 -82t-10.5 -134q0 -75 8 -126.5t33 -83t71.5 -45t123.5 -13.5q44 0 84.5 3.5
t71.5 17.5t49.5 43.5t18.5 81.5v19h-81zM134 309q2 45 6.5 75.5t19.5 49t44.5 26t83.5 7.5q45 0 72 -3.5t42 -19.5t20.5 -47.5t7.5 -87.5h-296zM338 743l-149 -113l27 -41l161 100z" />
    <glyph glyph-name="ecircumflex" unicode="&#xea;" horiz-adv-x="565" 
d="M431 159v-20q0 -28 -7 -44t-24 -24.5t-44.5 -10.5t-67.5 -2q-53 0 -84 6t-46.5 25.5t-19.5 56.5t-4 99h378v53q0 73 -11 118.5t-37 71t-69 34.5t-107 9q-71 0 -116.5 -11.5t-72 -41.5t-37 -82t-10.5 -134q0 -75 8 -126.5t33 -83t71.5 -45t123.5 -13.5q44 0 84.5 3.5
t71.5 17.5t49.5 43.5t18.5 81.5v19h-81zM134 309q2 45 6.5 75.5t19.5 49t44.5 26t83.5 7.5q45 0 72 -3.5t42 -19.5t20.5 -47.5t7.5 -87.5h-296zM284 736l-176 -108l21 -42l155 76l149 -76l24 42z" />
    <glyph glyph-name="edieresis" unicode="&#xeb;" horiz-adv-x="565" 
d="M431 159v-20q0 -28 -7 -44t-24 -24.5t-44.5 -10.5t-67.5 -2q-53 0 -84 6t-46.5 25.5t-19.5 56.5t-4 99h378v53q0 73 -11 118.5t-37 71t-69 34.5t-107 9q-71 0 -116.5 -11.5t-72 -41.5t-37 -82t-10.5 -134q0 -75 8 -126.5t33 -83t71.5 -45t123.5 -13.5q44 0 84.5 3.5
t71.5 17.5t49.5 43.5t18.5 81.5v19h-81zM134 309q2 45 6.5 75.5t19.5 49t44.5 26t83.5 7.5q45 0 72 -3.5t42 -19.5t20.5 -47.5t7.5 -87.5h-296zM227 653h-88v-74h88v74zM427 653h-88v-74h88v74z" />
    <glyph glyph-name="igrave" unicode="&#xec;" horiz-adv-x="215" 
d="M147 525h-79v-525h79v525zM54 743l-40 -54l162 -100l26 41z" />
    <glyph glyph-name="iacute" unicode="&#xed;" horiz-adv-x="215" 
d="M147 525h-79v-525h79v525zM163 743l-149 -113l27 -41l161 100z" />
    <glyph glyph-name="icircumflex" unicode="&#xee;" horiz-adv-x="215" 
d="M147 525h-79v-525h79v525zM109 736l-176 -108l21 -42l155 76l149 -76l24 42z" />
    <glyph glyph-name="idieresis" unicode="&#xef;" horiz-adv-x="215" 
d="M147 525h-79v-525h79v525zM52 653h-88v-74h88v74zM252 653h-88v-74h88v74z" />
    <glyph glyph-name="eth" unicode="&#xf0;" horiz-adv-x="570" 
d="M134 262q0 69 4 109.5t19 61.5t45 27.5t83 6.5t83 -6.5t45 -27.5t19 -61.5t4 -109.5q0 -68 -4 -108.5t-19 -61.5t-45 -27.5t-83 -6.5t-83 6.5t-45 27.5t-19 61.5t-4 108.5zM186 732q26 -16 50.5 -35.5t47.5 -38.5l-118 -38l44 -37l112 35q26 -29 47.5 -59t33.5 -59
q-12 8 -22.5 14t-23 9.5t-30 5.5t-42.5 2q-73 0 -118.5 -11t-71 -40.5t-34.5 -82t-9 -135.5t9 -135t34.5 -81.5t71 -40.5t118.5 -11q75 0 121 9.5t71 43t33 97.5t8 174q0 99 -31.5 179t-89.5 144l110 34l-47 41l-104 -34q-22 21 -46.5 39t-51.5 35z" />
    <glyph glyph-name="ntilde" unicode="&#xf1;" horiz-adv-x="580" 
d="M148 525h-79v-525h79v306q0 45 6.5 76t23.5 50t48 27t79 8q33 0 57 -4t39.5 -16t22.5 -34t7 -58v-355h79v349q1 55 -11 90t-36.5 55.5t-62 28.5t-88.5 8q-23 0 -47.5 -2t-47 -9.5t-40.5 -21t-27 -37.5h-2v64zM417 689q-9 -16 -23.5 -30t-34.5 -14q-14 0 -32 7t-37 15
t-37.5 14.5t-35.5 6.5q-36 0 -58.5 -22.5t-37.5 -51.5l45 -26q10 17 19 29t31 12q15 0 32.5 -6.5t35.5 -14.5q19 -8 37.5 -15t35.5 -7q35 0 60.5 23t42.5 52z" />
    <glyph glyph-name="ograve" unicode="&#xf2;" horiz-adv-x="570" 
d="M52 262q0 -83 9 -135t34.5 -81.5t71 -40.5t118.5 -11t118.5 11t71 40.5t34.5 81.5t9 135t-9 135.5t-34.5 82t-71 40.5t-118.5 11t-118.5 -11t-71 -40.5t-34.5 -82t-9 -135.5zM134 262q0 69 4 109.5t19 61.5t45 27.5t83 6.5t83 -6.5t45 -27.5t19 -61.5t4 -109.5
q0 -68 -4 -108.5t-19 -61.5t-45 -27.5t-83 -6.5t-83 6.5t-45 27.5t-19 61.5t-4 108.5zM211 743l-40 -54l162 -100l26 41z" />
    <glyph glyph-name="oacute" unicode="&#xf3;" horiz-adv-x="570" 
d="M52 262q0 -83 9 -135t34.5 -81.5t71 -40.5t118.5 -11t118.5 11t71 40.5t34.5 81.5t9 135t-9 135.5t-34.5 82t-71 40.5t-118.5 11t-118.5 -11t-71 -40.5t-34.5 -82t-9 -135.5zM134 262q0 69 4 109.5t19 61.5t45 27.5t83 6.5t83 -6.5t45 -27.5t19 -61.5t4 -109.5
q0 -68 -4 -108.5t-19 -61.5t-45 -27.5t-83 -6.5t-83 6.5t-45 27.5t-19 61.5t-4 108.5zM340 743l-149 -113l27 -41l161 100z" />
    <glyph glyph-name="ocircumflex" unicode="&#xf4;" horiz-adv-x="570" 
d="M52 262q0 -83 9 -135t34.5 -81.5t71 -40.5t118.5 -11t118.5 11t71 40.5t34.5 81.5t9 135t-9 135.5t-34.5 82t-71 40.5t-118.5 11t-118.5 -11t-71 -40.5t-34.5 -82t-9 -135.5zM134 262q0 69 4 109.5t19 61.5t45 27.5t83 6.5t83 -6.5t45 -27.5t19 -61.5t4 -109.5
q0 -68 -4 -108.5t-19 -61.5t-45 -27.5t-83 -6.5t-83 6.5t-45 27.5t-19 61.5t-4 108.5zM287 736l-176 -108l21 -42l155 76l149 -76l24 42z" />
    <glyph glyph-name="otilde" unicode="&#xf5;" horiz-adv-x="570" 
d="M52 262q0 -83 9 -135t34.5 -81.5t71 -40.5t118.5 -11t118.5 11t71 40.5t34.5 81.5t9 135t-9 135.5t-34.5 82t-71 40.5t-118.5 11t-118.5 -11t-71 -40.5t-34.5 -82t-9 -135.5zM134 262q0 69 4 109.5t19 61.5t45 27.5t83 6.5t83 -6.5t45 -27.5t19 -61.5t4 -109.5
q0 -68 -4 -108.5t-19 -61.5t-45 -27.5t-83 -6.5t-83 6.5t-45 27.5t-19 61.5t-4 108.5zM412 689q-9 -16 -23.5 -30t-34.5 -14q-14 0 -32 7t-37 15t-37.5 14.5t-35.5 6.5q-36 0 -58.5 -22.5t-37.5 -51.5l45 -26q10 17 19 29t31 12q15 0 32.5 -6.5t35.5 -14.5q19 -8 37.5 -15
t35.5 -7q35 0 60.5 23t42.5 52z" />
    <glyph glyph-name="odieresis" unicode="&#xf6;" horiz-adv-x="570" 
d="M52 262q0 -83 9 -135t34.5 -81.5t71 -40.5t118.5 -11t118.5 11t71 40.5t34.5 81.5t9 135t-9 135.5t-34.5 82t-71 40.5t-118.5 11t-118.5 -11t-71 -40.5t-34.5 -82t-9 -135.5zM134 262q0 69 4 109.5t19 61.5t45 27.5t83 6.5t83 -6.5t45 -27.5t19 -61.5t4 -109.5
q0 -68 -4 -108.5t-19 -61.5t-45 -27.5t-83 -6.5t-83 6.5t-45 27.5t-19 61.5t-4 108.5zM229 653h-88v-74h88v74zM429 653h-88v-74h88v74z" />
    <glyph glyph-name="divide" unicode="&#xf7;" horiz-adv-x="584" 
d="M534 321h-484v-75h484v75zM344 42v104h-104v-104h104zM344 421v104h-104v-104h104z" />
    <glyph glyph-name="oslash" unicode="&#xf8;" horiz-adv-x="570" 
d="M532 540l-60 -58q-17 18 -40 28t-48 14.5t-49.5 5.5t-45.5 1q-81 0 -128 -13.5t-71.5 -44.5t-31 -83t-6.5 -128v-42t1.5 -46.5t6 -45.5t12.5 -38l-41 -40v-66l63 61q16 -18 40.5 -28t52 -15.5t54.5 -6.5t48 -1q76 0 121 15t68.5 47t31 83t8.5 123q1 55 -1.5 96t-18.5 78
l34 36v68zM434 370q2 -27 2 -54v-54q-2 -71 -6 -112t-18 -61.5t-43 -25.5t-80 -5q-12 0 -33.5 0.5t-43 5t-39 13t-21.5 25.5zM137 155q-2 26 -2 53t-1 54q-2 71 3 112t21.5 61.5t48 26t82.5 5.5q11 0 30 -0.5t38.5 -4.5t36.5 -12.5t24 -23.5z" />
    <glyph glyph-name="ugrave" unicode="&#xf9;" horiz-adv-x="570" 
d="M420 0h80v525h-79v-324q0 -47 -10.5 -75t-31.5 -43t-52.5 -20t-73.5 -5q-38 0 -60 8.5t-32.5 25t-13 40.5t-2.5 56v337h-79v-337q0 -52 10 -88.5t32 -60t58 -34.5t88 -11q26 0 51 3t46.5 11t38.5 23t28 39h2v-70zM191 743l-40 -54l162 -100l26 41z" />
    <glyph glyph-name="uacute" unicode="&#xfa;" horiz-adv-x="570" 
d="M420 0h80v525h-79v-324q0 -47 -10.5 -75t-31.5 -43t-52.5 -20t-73.5 -5q-38 0 -60 8.5t-32.5 25t-13 40.5t-2.5 56v337h-79v-337q0 -52 10 -88.5t32 -60t58 -34.5t88 -11q26 0 51 3t46.5 11t38.5 23t28 39h2v-70zM340 743l-149 -113l27 -41l161 100z" />
    <glyph glyph-name="ucircumflex" unicode="&#xfb;" horiz-adv-x="570" 
d="M420 0h80v525h-79v-324q0 -47 -10.5 -75t-31.5 -43t-52.5 -20t-73.5 -5q-38 0 -60 8.5t-32.5 25t-13 40.5t-2.5 56v337h-79v-337q0 -52 10 -88.5t32 -60t58 -34.5t88 -11q26 0 51 3t46.5 11t38.5 23t28 39h2v-70zM287 736l-176 -108l21 -42l155 76l149 -76l24 42z" />
    <glyph glyph-name="udieresis" unicode="&#xfc;" horiz-adv-x="570" 
d="M420 0h80v525h-79v-324q0 -47 -10.5 -75t-31.5 -43t-52.5 -20t-73.5 -5q-38 0 -60 8.5t-32.5 25t-13 40.5t-2.5 56v337h-79v-337q0 -52 10 -88.5t32 -60t58 -34.5t88 -11q26 0 51 3t46.5 11t38.5 23t28 39h2v-70zM229 653h-88v-74h88v74zM429 653h-88v-74h88v74z" />
    <glyph glyph-name="yacute" unicode="&#xfd;" horiz-adv-x="437" 
d="M441 525h-82l-118 -467h-2l-162 467h-81l190 -525h28q-7 -23 -13 -52t-17.5 -55.5t-29.5 -44.5t-49 -18q-15 0 -28 3v-61q8 -2 17 -3.5t19 -1.5q47 0 76.5 16.5t48.5 44t30 63t22 72.5zM292 743l-149 -113l27 -41l161 100z" />
    <glyph glyph-name="thorn" unicode="&#xfe;" horiz-adv-x="573" 
d="M294 467q50 0 79 -10t43.5 -33.5t18.5 -63t4 -98.5q0 -64 -5.5 -103.5t-21.5 -62t-44 -30.5t-74 -8q-53 0 -83 14.5t-44.5 41t-18 64t-3.5 84.5q0 52 2.5 90.5t16.5 64t44 38t86 12.5zM145 62h2q11 -23 30.5 -36.5t42.5 -20.5t48 -9t48 -2q58 0 97 12.5t63 43.5
t34.5 82.5t10.5 129.5q0 59 -5 108.5t-25.5 85t-61.5 55.5t-113 20q-25 0 -50 -3t-47.5 -10.5t-41 -22t-30.5 -36.5l-2 2v289h-79v-977h79v289z" />
    <glyph glyph-name="ydieresis" unicode="&#xff;" horiz-adv-x="437" 
d="M441 525h-82l-118 -467h-2l-162 467h-81l190 -525h28q-7 -23 -13 -52t-17.5 -55.5t-29.5 -44.5t-49 -18q-15 0 -28 3v-61q8 -2 17 -3.5t19 -1.5q47 0 76.5 16.5t48.5 44t30 63t22 72.5zM163 653h-88v-74h88v74zM363 653h-88v-74h88v74z" />
    <glyph glyph-name="dotlessi" unicode="&#x131;" horiz-adv-x="215" 
d="M147 525h-79v-525h79v525z" />
    <glyph glyph-name="Lslash" unicode="&#x141;" horiz-adv-x="558" 
d="M160 399l157 154v85l-157 -154v266h-85v-338l-84 -78v-86l84 79v-327h467v75h-382v324z" />
    <glyph glyph-name="lslash" unicode="&#x142;" horiz-adv-x="214" 
d="M147 427l64 64v70l-64 -64v253h-79v-316l-65 -63v-72l65 64v-363h79v427z" />
    <glyph glyph-name="OE" unicode="&#x152;" horiz-adv-x="1109" 
d="M353 681q73 0 119 -4.5t72.5 -24.5t36.5 -62.5t10 -117.5v-201q0 -73 -11 -114t-38 -60.5t-73 -23.5t-116 -4q-65 0 -108.5 3.5t-70 23t-37.5 60.5t-11 115l1 201q0 75 9.5 117t34.5 62.5t69 25t113 4.5zM676 675h396v75h-481v-80h-2q-6 30 -33.5 47t-63.5 26t-74 11
t-65 2q-91 0 -151 -13t-95.5 -45.5t-50 -87.5t-14.5 -138v-201q0 -94 17 -149t54.5 -83.5t96.5 -36.5t143 -8q34 0 69 1.5t67 9.5t58 25t42 48h2v-78h481v75h-396v275h379v70h-379v255z" />
    <glyph glyph-name="oe" unicode="&#x153;" horiz-adv-x="942" 
d="M432 262q0 -63 -3 -103t-17 -62.5t-44.5 -30.5t-84.5 -8q-52 0 -82 8t-45 30t-19 62t-4 104t2.5 104t15.5 62.5t41.5 30.5t80.5 8q57 0 89 -5t47.5 -25.5t19 -61.5t3.5 -113zM51 262q0 -70 7 -120.5t30.5 -83.5t68 -48.5t119.5 -15.5q26 0 56 0.5t58 7t50 21.5t33 44
q12 -26 31.5 -40.5t45 -21.5t56 -9t62.5 -2q44 0 84.5 3.5t71.5 17.5t49.5 43.5t18.5 81.5v19h-81v-20q0 -28 -7 -44t-24 -24.5t-44.5 -10.5t-67.5 -2q-53 0 -84 6t-46.5 25.5t-19.5 56.5t-4 99h378v53q0 73 -11 118.5t-37 71t-69 34.5t-107 9q-29 0 -59.5 -1.5t-57.5 -9
t-47.5 -22.5t-29.5 -41h-2q-6 30 -29.5 45t-54 21.5t-62.5 7t-56 0.5q-77 0 -121 -16.5t-66 -50t-27 -84t-5 -118.5zM514 309q2 45 6.5 75.5t19.5 49t44.5 26t83.5 7.5q45 0 72 -3.5t42 -19.5t20.5 -47.5t7.5 -87.5h-296z" />
    <glyph glyph-name="Scaron" unicode="&#x160;" horiz-adv-x="629" 
d="M311 346q51 -4 89 -5t63 -10.5t37 -35t12 -79.5q0 -55 -9.5 -85t-32.5 -43.5t-62.5 -16t-99.5 -2.5t-97 2.5t-58 18t-28 49t-6 95.5h-85q-6 -81 9 -129t50 -72.5t89 -31.5t126 -7q71 0 125 4.5t90.5 25.5t55 65t18.5 124q0 76 -17 116.5t-50.5 59.5t-83.5 23.5t-117 8.5
q-53 1 -92 2.5t-64.5 13t-38.5 38.5t-13 81q0 39 6 63.5t26 38t57.5 18.5t99.5 5q60 0 96 -3t56 -16t27 -40.5t9 -76.5h85q3 76 -16 119t-55 63t-87 24.5t-112 4.5q-69 0 -121 -6t-86.5 -28t-52 -65.5t-17.5 -118.5q0 -74 22 -111.5t60 -54t87.5 -19.5t105.5 -7zM312 811
l177 107l-21 43l-156 -76l-148 76l-24 -43z" />
    <glyph glyph-name="scaron" unicode="&#x161;" horiz-adv-x="537" 
d="M484 408q0 45 -19 69.5t-49 36.5t-66.5 14.5t-70.5 2.5q-53 0 -95.5 -3t-72 -17.5t-45.5 -46t-16 -88.5q0 -56 19.5 -84.5t52 -41t73.5 -14.5t84 -5q36 -2 62 -2t42.5 -6.5t24.5 -23.5t8 -54q0 -35 -14 -52t-34.5 -23.5t-44.5 -6t-44 0.5q-45 0 -74 2.5t-46.5 9t-24 18.5
t-6.5 31v41h-82v-49q0 -44 20.5 -68.5t53.5 -36.5t74.5 -15t84.5 -3q44 0 83.5 3t69.5 18t48 46t18 87q0 64 -21.5 95.5t-57 44.5t-82 14t-97.5 4q-31 1 -51.5 2.5t-33 9.5t-18 26t-5.5 53q0 24 9 37t27.5 19t46 7t64.5 1q31 0 54 -1t38.5 -6t23 -15.5t7.5 -30.5v-20h82v20z
M266 586l177 107l-21 43l-156 -76l-148 76l-24 -43z" />
    <glyph glyph-name="Ydieresis" unicode="&#x178;" horiz-adv-x="632" 
d="M638 750h-101l-222 -351l-222 351h-99l275 -437v-313h85v313zM260 878h-88v-74h88v74zM460 878h-88v-74h88v74z" />
    <glyph glyph-name="florin" unicode="&#x192;" 
d="M413 420h138l12 65h-139l19 110q4 25 9 43.5t14.5 30t27 17t47.5 5.5q14 0 29 -1t29 -2l11 66q-15 1 -30.5 1.5t-30.5 0.5q-50 0 -82.5 -8.5t-53 -28t-32 -52t-18.5 -79.5l-19 -103h-103l-11 -65h103l-86 -488q-5 -25 -9.5 -44t-14.5 -31.5t-27.5 -18.5t-46.5 -6
q-14 0 -29 2t-29 5l-11 -64q15 -4 29.5 -6t29.5 -2q52 0 85 8.5t53.5 29t31 53.5t18.5 81z" />
    <glyph glyph-name="circumflex" unicode="&#x2c6;" horiz-adv-x="499" 
d="M251 736l-176 -108l21 -42l155 76l149 -76l24 42z" />
    <glyph glyph-name="caron" unicode="&#x2c7;" horiz-adv-x="499" 
d="M247 586l177 107l-21 43l-156 -76l-148 76l-24 -43z" />
    <glyph glyph-name="breve" unicode="&#x2d8;" horiz-adv-x="487" 
d="M75 737q3 -32 18 -59.5t37.5 -48t51.5 -32.5t61 -12t61.5 12t52 32.5t37.5 48t18 59.5h-54q-8 -41 -40.5 -68t-74.5 -27t-74.5 26.5t-40.5 68.5h-53z" />
    <glyph glyph-name="dotaccent" unicode="&#x2d9;" horiz-adv-x="238" 
d="M163 653h-88v-74h88v74z" />
    <glyph glyph-name="ring" unicode="&#x2da;" horiz-adv-x="323" 
d="M75 649q0 -18 7 -34t18.5 -27.5t27 -18.5t33.5 -7q36 0 61.5 25.5t25.5 61.5q0 18 -7 33.5t-18.5 27.5t-27.5 19t-34 7t-33.5 -7t-27 -19t-18.5 -27.5t-7 -33.5zM113 649q0 20 14 34.5t34 14.5t34.5 -14.5t14.5 -34.5t-14.5 -34.5t-34.5 -14.5t-34 14.5t-14 34.5z" />
    <glyph glyph-name="ogonek" unicode="&#x2db;" horiz-adv-x="307" 
d="M151 0q-31 -17 -53.5 -42.5t-22.5 -63.5q0 -22 9 -38.5t24 -27t34 -16t39 -5.5q27 0 51 9v49q-9 -5 -19 -6.5t-20 -1.5q-26 0 -46 12t-20 41q0 14 8.5 27.5t21 25.5t26.5 21.5t25 15.5h-57z" />
    <glyph glyph-name="tilde" unicode="&#x2dc;" horiz-adv-x="489" 
d="M371 689q-9 -16 -23.5 -30t-34.5 -14q-14 0 -32 7t-37 15t-37.5 14.5t-35.5 6.5q-36 0 -58.5 -22.5t-37.5 -51.5l45 -26q10 17 19 29t31 12q15 0 32.5 -6.5t35.5 -14.5q19 -8 37.5 -15t35.5 -7q35 0 60.5 23t42.5 52z" />
    <glyph glyph-name="hungarumlaut" unicode="&#x2dd;" horiz-adv-x="489" 
d="M211 749l-136 -128l31 -38l150 116zM369 749l-136 -128l31 -38l150 116z" />
    <glyph glyph-name="Delta" unicode="&#x394;" horiz-adv-x="676" 
d="M664 0l-286 712h-88l-278 -712h652zM545 78h-419l207 543z" />
    <glyph glyph-name="Omega" unicode="&#x3a9;" horiz-adv-x="750" 
d="M691 0v72h-191v67q47 14 82.5 40.5t59.5 62.5t36 80t12 92q0 67 -25.5 123.5t-69 97.5t-102 63.5t-124.5 22.5t-125 -23t-102.5 -64t-69 -98t-25.5 -125q0 -47 12.5 -90.5t36.5 -79.5t59.5 -62.5t82.5 -39.5v-67h-191v-72h260v184q-43 7 -75.5 27.5t-54 50t-32.5 67
t-11 79.5q0 51 17.5 94t49 74.5t74.5 49.5t94 18t94 -18t74.5 -49.5t49 -75t17.5 -93.5q0 -42 -11 -79.5t-33 -67t-54 -50t-75 -27.5v-184h260z" />
    <glyph glyph-name="pi" unicode="&#x3c0;" horiz-adv-x="574" 
d="M551 12v61q-22 -10 -42 -10q-15 0 -23 5.5t-11 14t-3.5 19.5t-0.5 23v280h76v75h-545v-75h69v-405h81v405h238v-289q0 -25 2 -47.5t11 -39t27 -26t49 -9.5q20 0 37 5t35 13z" />
    <glyph glyph-name="endash" unicode="&#x2013;" horiz-adv-x="500" 
d="M0 311v-75h500v75h-500z" />
    <glyph glyph-name="emdash" unicode="&#x2014;" horiz-adv-x="1000" 
d="M0 311v-75h1000v75h-1000z" />
    <glyph glyph-name="quoteleft" unicode="&#x2018;" horiz-adv-x="201" 
d="M102 644v19q0 28 11 37.5t38 10.5v45h-23q-25 0 -40 -7t-23.5 -19.5t-11 -29.5t-2.5 -37v-121h89v102h-38z" />
    <glyph glyph-name="quoteright" unicode="&#x2019;" horiz-adv-x="201" 
d="M100 648v-19q0 -28 -11 -37.5t-38 -10.5v-45h23q25 0 40 7t23.5 19.5t11 29.5t2.5 37v121h-89v-102h38z" />
    <glyph glyph-name="quotesinglbase" unicode="&#x201a;" horiz-adv-x="228" 
d="M113 0v-19q0 -28 -11 -37.5t-38 -10.5v-45h23q25 0 40 7t23.5 19.5t11 29.5t2.5 37v121h-89v-102h38z" />
    <glyph glyph-name="quotedblleft" unicode="&#x201c;" horiz-adv-x="359" 
d="M259 644v19q0 28 11 37.5t38 10.5v45h-23q-25 0 -40 -7t-23.5 -19.5t-11 -29.5t-2.5 -37v-121h89v102h-38zM102 644v19q0 28 11 37.5t38 10.5v45h-23q-25 0 -40 -7t-23.5 -19.5t-11 -29.5t-2.5 -37v-121h89v102h-38z" />
    <glyph glyph-name="quotedblright" unicode="&#x201d;" horiz-adv-x="359" 
d="M100 648v-19q0 -28 -11 -37.5t-38 -10.5v-45h23q25 0 40 7t23.5 19.5t11 29.5t2.5 37v121h-89v-102h38zM257 648v-19q0 -28 -11 -37.5t-38 -10.5v-45h23q25 0 40 7t23.5 19.5t11 29.5t2.5 37v121h-89v-102h38z" />
    <glyph glyph-name="quotedblbase" unicode="&#x201e;" horiz-adv-x="359" 
d="M100 0v-19q0 -28 -11 -37.5t-38 -10.5v-45h23q25 0 40 7t23.5 19.5t11 29.5t2.5 37v121h-89v-102h38zM257 0v-19q0 -28 -11 -37.5t-38 -10.5v-45h23q25 0 40 7t23.5 19.5t11 29.5t2.5 37v121h-89v-102h38z" />
    <glyph glyph-name="dagger" unicode="&#x2020;" 
d="M387 750h-85v-206h-172v-70h172v-683h85v683h173v70h-173v206z" />
    <glyph glyph-name="daggerdbl" unicode="&#x2021;" 
d="M387 750h-85v-236h-172v-70h172v-329h-172v-70h172v-254h85v254h173v70h-173v329h173v70h-173v236z" />
    <glyph glyph-name="bullet" unicode="&#x2022;" horiz-adv-x="520" 
d="M448 375q0 39 -15 73t-40.5 59.5t-59.5 40.5t-73 15t-73.5 -15t-60 -40.5t-40 -59.5t-13.5 -73q0 -39 14.5 -73.5t40 -59.5t59.5 -39.5t73 -14.5t73 14.5t59.5 40t40.5 59.5t15 73z" />
    <glyph glyph-name="ellipsis" unicode="&#x2026;" horiz-adv-x="1000" 
d="M212 102h-89v-102h89v102zM545 102h-89v-102h89v102zM878 102h-89v-102h89v102z" />
    <glyph glyph-name="perthousand" unicode="&#x2030;" horiz-adv-x="1282" 
d="M862 240q-1 45 -10.5 71.5t-29.5 41t-51 18.5t-75 4t-73.5 -4.5t-48.5 -18.5t-27.5 -41t-9.5 -72v-110q1 -45 9.5 -71.5t27.5 -41t49 -18.5t74 -4q43 0 74 4.5t51 18.5t29.5 41t10.5 72v110zM729 750h-70l-506 -756h67zM802 132q0 -31 -5 -48t-17 -24.5t-32.5 -9
t-51.5 -1.5t-50 1.5t-30 9t-15 24.5t-4 48v110q0 29 4 44.5t15 23t30 9t50 1.5q33 0 53.5 -1.5t32.5 -9t16 -23t4 -44.5v-110zM1260 240q-1 45 -10.5 71.5t-29.5 41t-51 18.5t-75 4t-73.5 -4.5t-48.5 -18.5t-27.5 -41t-9.5 -72v-110q1 -45 9.5 -71.5t27.5 -41t49 -18.5
t74 -4q43 0 74 4.5t51 18.5t29.5 41t10.5 72v110zM1200 132q0 -31 -5 -48t-17 -24.5t-32.5 -9t-51.5 -1.5t-50 1.5t-30 9t-15 24.5t-4 48v110q0 29 4 44.5t15 23t30 9t50 1.5q33 0 53.5 -1.5t32.5 -9t16 -23t4 -44.5v-110zM347 621q-1 45 -10.5 71.5t-29.5 41t-51 18.5
t-75 4t-73.5 -4.5t-48.5 -18.5t-27.5 -41t-9.5 -72v-110q1 -45 9.5 -71.5t27.5 -41t49 -18.5t74 -4q43 0 74 4.5t51 18.5t29.5 41t10.5 72v110zM287 513q0 -31 -5 -48t-17 -24.5t-32.5 -9t-51.5 -1.5t-50 1.5t-30 9t-15 24.5t-4 48v110q0 29 4 44.5t15 23t30 9t50 1.5
q33 0 53.5 -1.5t32.5 -9t16 -23t4 -44.5v-110z" />
    <glyph glyph-name="guilsinglleft" unicode="&#x2039;" horiz-adv-x="318" 
d="M191 575l-135 -286l151 -289l55 36l-131 253l118 251z" />
    <glyph glyph-name="guilsinglright" unicode="&#x203a;" horiz-adv-x="318" 
d="M69 540l118 -251l-131 -253l55 -36l151 289l-135 286z" />
    <glyph glyph-name="trademark" unicode="&#x2122;" horiz-adv-x="1000" 
d="M942 750h-110l-125 -297l-121 297h-111v-421h70v361h2l140 -361h39l144 361h2v-361h70v421zM404 750h-341v-60h133v-361h75v361h133v60z" />
    <glyph glyph-name="partialdiff" unicode="&#x2202;" horiz-adv-x="519" 
d="M477 362q0 61 -12 125t-41 116t-78 85t-123 33q-48 0 -84.5 -15.5t-72.5 -45.5l44 -53q26 20 54 33.5t62 13.5q49 0 81.5 -25t52 -63.5t27.5 -83.5t8 -84q0 -11 -0.5 -21t-0.5 -21q-31 34 -71.5 53.5t-86.5 19.5q-47 0 -84.5 -17t-63.5 -46t-40 -68.5t-14 -84.5t14.5 -86
t41.5 -72t65 -49t86 -18q75 0 121 36.5t71.5 92t34.5 121t9 124.5zM391 282q0 -33 -7.5 -73.5t-25 -75t-45.5 -58t-70 -23.5q-33 0 -57 14t-39.5 36.5t-23.5 50.5t-8 57q0 30 8 58t24.5 49t41.5 33.5t58 12.5q46 0 81 -23.5t63 -57.5z" />
    <glyph glyph-name="product" unicode="&#x220f;" horiz-adv-x="722" 
d="M655 -214v1000h-588v-1000h84v923h420v-923h84z" />
    <glyph glyph-name="summation" unicode="&#x2211;" horiz-adv-x="621" 
d="M595 -214v77h-465l315 428l-297 418h435v77h-544v-68l305 -428l-319 -436v-68h570z" />
    <glyph glyph-name="minus" unicode="&#x2212;" horiz-adv-x="584" 
d="M50 246h484v75h-484v-75z" />
    <glyph glyph-name="fraction" unicode="&#x2215;" horiz-adv-x="566" 
d="M571 750h-70l-506 -750h67z" />
    <glyph glyph-name="radical" unicode="&#x221a;" horiz-adv-x="509" 
d="M520 786h-83l-181 -881l-148 310l-118 -56l31 -65l47 23l161 -331h80z" />
    <glyph glyph-name="infinity" unicode="&#x221e;" horiz-adv-x="769" 
d="M726 256q0 33 -10.5 62t-30.5 50.5t-48 34t-62 12.5q-31 0 -57 -10.5t-49 -27t-43.5 -37.5t-40.5 -41q-20 21 -41 41.5t-45 37t-51 26.5t-57 10q-35 0 -62.5 -12.5t-46.5 -34.5t-29.5 -51t-10.5 -62t11 -62t30.5 -50.5t47.5 -33.5t63 -12q31 0 56.5 9.5t48.5 25t44 34.5
t42 39q19 -20 40.5 -39.5t45 -35t49.5 -25t56 -9.5q35 0 63 12.5t47.5 34t29.5 51t10 63.5zM657 253q0 -36 -20.5 -61t-58.5 -25q-22 0 -42 8t-39 20.5t-35.5 27.5t-31.5 29q13 13 30 29t35.5 30t39 23t40.5 9q40 0 61 -26t21 -64zM339 252q-13 -14 -30 -28.5t-36 -27
t-39.5 -20.5t-39.5 -8q-39 0 -61 23.5t-22 61.5q0 35 21.5 62t58.5 27q21 0 41.5 -9.5t39 -23t35.5 -29t32 -28.5z" />
    <glyph glyph-name="integral" unicode="&#x222b;" horiz-adv-x="562" 
d="M429 727q0 16 -8 27.5t-21 18.5t-28 10t-28 3q-38 0 -62 -14.5t-38 -38t-20.5 -53.5t-8.5 -62t-1 -62.5t1 -55.5v-495v-23q0 -4 1 -27.5t-0.5 -50.5t-7 -48.5t-18.5 -21.5q-5 0 -9.5 7.5t-10.5 16t-14 16t-21 7.5q-16 0 -27 -11.5t-11 -27.5q0 -14 7 -24.5t18 -17.5
t24 -10t25 -3q35 0 58.5 14t38 37.5t21.5 53t9.5 60.5t2 61t-0.5 53l-1 491v40q0 5 -1.5 27t0 46t8 43.5t21.5 19.5q6 0 10.5 -7t10.5 -16t14.5 -16t22.5 -7q17 0 30.5 11t13.5 29z" />
    <glyph glyph-name="approxequal" unicode="&#x2248;" horiz-adv-x="593" 
d="M562 420h-54q-6 -29 -23 -51t-50 -22q-28 0 -62 11t-70 24t-72 24t-67 11q-32 0 -55.5 -13t-39.5 -34.5t-25 -48.5t-12 -55h55q5 29 23 52t50 23q24 0 57.5 -11t70.5 -24.5t73.5 -24.5t67.5 -11q33 0 56.5 12.5t39.5 33.5t25 48t12 56zM561 236h-54q-6 -29 -23 -51
t-50 -22q-29 0 -63 11t-69.5 24t-70.5 24t-67 11q-33 0 -56.5 -13t-39.5 -34.5t-25 -48.5t-12 -55h55q5 29 23 52t50 23q24 0 57.5 -11t70 -24.5t73 -24.5t68.5 -11q33 0 57 12.5t39.5 33.5t24.5 48t12 56z" />
    <glyph glyph-name="notequal" unicode="&#x2260;" horiz-adv-x="593" 
d="M551 111v77h-246l65 125h181v78h-141l60 114l-68 35l-77 -149h-283v-78h242l-65 -125h-177v-77h137l-59 -112l68 -35l77 147h286z" />
    <glyph glyph-name="lessequal" unicode="&#x2264;" horiz-adv-x="593" 
d="M551 85v83l-403 140l403 142v83l-509 -185v-81zM551 -31v78h-509v-78h509z" />
    <glyph glyph-name="greaterequal" unicode="&#x2265;" horiz-adv-x="593" 
d="M551 267v81l-509 185v-83l402 -142l-402 -140v-83zM551 -31v78h-509v-78h509z" />
    <glyph glyph-name="lozenge" unicode="&#x25ca;" horiz-adv-x="593" 
d="M507 356l-173 391h-77l-172 -391l172 -391h77zM426 356l-130 -311l-129 311l129 310z" />
    <glyph glyph-name="apple" unicode="&#xf8ff;" horiz-adv-x="500" 
 />
    <glyph glyph-name="fi" unicode="&#xfb01;" horiz-adv-x="509" 
d="M441 525h-79v-525h79v525zM167 525v71q0 26 3 44.5t12.5 30t27 16.5t47.5 5q12 0 24.5 -0.5t24.5 -1.5v64q-12 1 -24.5 1.5t-24.5 0.5q-48 0 -80.5 -8.5t-52 -28t-28 -51.5t-8.5 -80v-63h-80v-64h80v-461h79v461h139v64h-139zM441 750h-79v-87h79v87z" />
    <glyph glyph-name="fl" unicode="&#xfb02;" horiz-adv-x="513" 
d="M167 525v71q0 26 3 44.5t12.5 30t27 16.5t47.5 5q12 0 24.5 -0.5t24.5 -1.5v64q-12 1 -24.5 1.5t-24.5 0.5q-48 0 -80.5 -8.5t-52 -28t-28 -51.5t-8.5 -80v-63h-80v-64h80v-461h79v461h139v64h-139zM445 750h-79v-750h79v750z" />
    </font>
</defs>
</svg>
